<?xml version="1.0" encoding="iso-8859-1"?>
<!-- Generator: Adobe Illustrator 27.8.1, SVG Export Plug-In . SVG Version: 6.00 Build 0)  -->
<svg version="1.1" id="Layer_1" xmlns="http://www.w3.org/2000/svg" xmlns:xlink="http://www.w3.org/1999/xlink" x="0px" y="0px"
	 viewBox="0 0 960.709 177.75" style="enable-background:new 0 0 960.709 177.75;" xml:space="preserve">
<g>
	<g>
		<path style="fill:#FFFFFF;" d="M492.572,22.111c10.737,0,19.215,4.925,19.215,16.147c0,4.763-2.503,9.042-7.831,11.222
			c6.781,2.018,9.606,8.719,9.606,12.998c0,12.352-9.849,16.147-20.99,16.147c-8.8,0-17.116,0-25.916,0V22.111H492.572z
			 M475.618,45.524h17.034c6.782,0,10.173-2.664,10.173-7.104c0-3.956-3.472-8.154-10.253-8.154h-16.954V45.524z M475.618,70.229
			h16.954c5.005,0,11.948-1.614,11.948-7.831c0-6.055-6.701-8.8-11.868-8.8c-5.731,0-11.303,0-17.034,0V70.229z"/>
		<path style="fill:#FFFFFF;" d="M578.791,50.61c0,15.259-9.284,29.226-28.902,29.226s-28.903-14.29-28.903-29.145
			c0-17.196,12.029-29.629,29.064-29.629C569.346,21.142,578.791,35.352,578.791,50.61z M549.888,71.521
			c14.048,0,19.941-9.931,19.941-20.749c0-10.415-5.975-21.233-19.78-21.475c-13.079,0-20.103,9.123-20.103,21.475
			C530.108,60.783,535.922,71.521,549.888,71.521z"/>
		<path style="fill:#FFFFFF;" d="M643.856,50.61c0,15.259-9.284,29.226-28.902,29.226c-19.619,0-28.903-14.29-28.903-29.145
			c0-17.196,12.029-29.629,29.064-29.629C634.411,21.142,643.856,35.352,643.856,50.61z M614.954,71.521
			c14.048,0,19.941-9.931,19.941-20.749c0-10.415-5.975-21.233-19.78-21.475c-13.079,0-20.103,9.123-20.103,21.475
			C595.174,60.783,600.987,71.521,614.954,71.521z"/>
		<path style="fill:#FFFFFF;" d="M697.862,22.434L671.947,49.4l28.176,28.66v0.565H688.82l-25.189-25.754v25.754h-9.042V22.111
			h9.042v24.382l23.01-24.382h11.222V22.434z"/>
		<path style="fill:#FFFFFF;" d="M475.698,158.14v17.357h-9.042v-56.514c8.639,0,17.52-0.081,26.158-0.081
			c26.965,0,27.046,39.075,0,39.237H475.698z M475.698,149.823h17.116c14.936,0,14.854-22.605,0-22.605h-17.116V149.823z"/>
		<path style="fill:#FFFFFF;" d="M569.668,119.064v33.021c0,16.632-10.979,24.947-24.624,24.463
			c-12.595-0.323-23.332-8.396-23.332-24.463v-33.021h8.962v33.021c0,10.253,5.974,15.824,14.37,16.147
			c9.043,0.484,15.663-5.409,15.663-16.147v-33.021H569.668z"/>
		<path style="fill:#FFFFFF;" d="M609.061,118.984c10.737,0,19.215,4.925,19.215,16.146c0,4.764-2.503,9.042-7.831,11.222
			c6.781,2.019,9.606,8.72,9.606,12.999c0,12.352-9.849,16.146-20.99,16.146c-8.8,0-17.116,0-25.916,0v-56.514H609.061z
			 M592.107,142.397h17.034c6.782,0,10.173-2.665,10.173-7.105c0-3.956-3.472-8.153-10.253-8.153h-16.954V142.397z M592.107,167.101
			h16.954c5.005,0,11.948-1.614,11.948-7.831c0-6.055-6.701-8.8-11.868-8.8c-5.731,0-11.303,0-17.034,0V167.101z"/>
		<path style="fill:#FFFFFF;" d="M649.987,118.984v48.117h29.791v8.396h-38.833v-56.514H649.987z"/>
		<path style="fill:#FFFFFF;" d="M688.332,175.497v-56.514h8.962v56.514H688.332z"/>
		<path style="fill:#FFFFFF;" d="M745.248,131.497c-2.664-3.875-8.073-6.217-13.967-6.298c-7.589,0-13.079,3.149-13.079,8.559
			c0,5.489,6.297,7.023,13.725,8.073c11.626,1.614,22.687,4.844,22.687,17.52c-0.081,12.675-11.626,17.438-23.413,17.438
			c-10.818,0-19.134-3.311-24.301-12.837l6.781-4.521c4.037,6.862,11.061,9.285,17.601,9.285c6.781,0,14.29-2.261,14.29-9.365
			c0-6.136-6.54-8.235-14.452-9.285c-11.222-1.533-21.879-4.359-21.879-16.47c-0.08-11.706,11.626-16.228,21.799-16.228
			c8.154,0,16.308,1.938,21.071,9.527L745.248,131.497z"/>
		<path style="fill:#FFFFFF;" d="M803.695,175.497v-23.494h-29.872v23.494h-9.042v-56.514h9.042v24.624h29.872v-24.624h8.962v56.514
			H803.695z"/>
		<path style="fill:#FFFFFF;" d="M826.859,175.497v-56.514h8.962v56.514H826.859z"/>
		<path style="fill:#FFFFFF;" d="M889.023,159.189v-40.205h9.042v56.514h-6.862l-32.052-39.883v39.883h-9.123v-56.514h6.943
			L889.023,159.189z"/>
		<path style="fill:#FFFFFF;" d="M953.765,131.982c-4.036-3.956-10.011-6.056-15.259-6.056c-13.24,0-20.91,9.931-20.829,21.88
			c0,10.334,6.136,20.345,20.829,20.345c4.845,0,9.285-1.211,13.806-5.006v-11.464h-15.743v-8.073h24.14v23.17
			c-5.651,6.217-12.675,9.85-22.202,9.85c-20.748,0-29.71-13.805-29.71-28.821c0-16.309,10.415-30.195,29.71-30.195
			c7.509,0,15.098,2.826,20.91,8.558L953.765,131.982z"/>
	</g>
</g>
<path style="fill:#FFFFFF;" d="M318.735,163.457l54.937,1.125c6,0,13.125-1.5,13.125-1.5c14.812-6.75,26.437-38.062,26.437-38.062
	c2.437-1.5,9.75,3,9.75,3l-12.562,42.375c-2.812,7.5-15.75,5.812-15.75,5.812h-92.999l4.5-6c11.672-0.717,4.125-12,4.125-12
	c0-1.312,10.5-12,10.5-12h8.437l-10.5,16.125V163.457z M166.49,169.34l-0.37,0.83h-0.01L166.49,169.34z M451.58,0
	c-12.1,11.54-27,60.9-27,60.9c-2.25,2.81-26.86,7.03-26.86,7.03l21.94,0.7c-4.78,10.97-30.38,43.73-30.38,43.73
	c-4.92,1.41-25.87,0.14-25.87,0.14l19.54,6.19c-13.07,19.69-43.31,20.67-43.31,20.67c2.25,2.25,14.23,3.52,14.23,3.52
	c-6.3,3.66-32.09,0.7-32.09,0.7c0.42-2.23,62.44-78.94,63.41-80.14c-9.88,8.62-79.44,95.33-79.44,95.33
	c4.92,3.52,4.78,6.19,4.78,6.19c-0.28,3.37-5.9,1.68-5.9,1.68l-4.36,7.04c-1.41,1.54-6.89,4.07-6.89,4.07l4.21-7.17
	c4.65-0.7,2.4-4.22,2.4-4.22c-4.08-2.53-4.65,3.38-4.65,3.38l-5.2,7.31H275.8l-72.03,0.03v-4.57h5.92c7.14,0,12.16-2.14,15.04-6.42
	c1.82-2.62,2.71-8.62,2.71-18V36.34l-58.67,128.02l-2.28,4.98l-0.38,0.83l-0.57,1.24l-1.61,3.51l-0.99,2.16h-38v-4.57
	c8.07-0.57,13.31-1.83,15.74-3.76c2.42-1.93,3.63-4.17,3.63-6.72c0-3.2-1.39-8.05-4.19-14.55l-11.35-26.4H64.02l-10.11,24.05
	c-3.29,7.81-4.94,13.53-4.94,17.15c0,2.71,1.18,5.02,3.51,6.9s6.81,2.99,13.42,3.33h0.09v4.57H0v-4.57
	c6.84-0.41,12.15-2.28,15.98-5.61c3.82-3.34,8.07-10.59,12.76-21.77L80.36,21.78c-1.21-1.94-3.14-3.61-5.8-4.99
	c-3.07-1.61-8.03-2.4-14.85-2.4V9.82h47.36l22.3,48.09l7.47,16.11l30.91,66.67L218.46,29.5c-10.56,12.53-32.73,42.05-44.57,81.31
	c0,0-3.78-48.35,53.48-101l0.03,0.1l0.04-0.09h47.37v4.57h-5.79c-7.16,0-12.22,2.14-15.18,6.41c-1.8,2.63-2.71,8.64-2.71,18.02
	v109.27c0,10.28,1.15,16.69,3.45,19.25c3.05,3.45,7.86,5.17,14.44,5.17l6.79-0.03c19.7-20.28,96.18-149.27,96.18-149.27h-52.6
	c-21.94-0.28-23.9,9.56-23.9,9.56l-11.82,25.88c-5.76-0.99-9-2.96-9-2.96c1.41-2.39,8.3-47.39,8.3-47.39h4.36
	c4.78,2.53,12.51,2.25,12.51,2.25h109.97v6.33l-22.64,38.25C403.06,36.15,451.58,0,451.58,0z M124.94,111.95L95.85,44.37l-1.61,3.82
	L83.38,74.06l-15.9,37.89H124.94z M363.13,113.87c3.4,1.58,10.15,4.64,13.84,6.26c-2.35,2.85-5.47,5.14-8.57,7.15
	c-10.05,6.18-21.69,9.14-33.26,10.9l-0.27,0.05c0.68,1.89,2.01,3.59,3.88,4.38c0.57,0.27,1.2,0.38,1.82,0.47
	c-2.39-0.37-4.33-2.27-5.12-4.51c1.87-0.21,3.74-0.48,5.61-0.72c10.7-1.78,21.42-5.04,30.29-11.47c2.53-1.88,4.91-3.92,6.74-6.54
	l-0.41-0.17C374.07,118.18,366.76,115.28,363.13,113.87z M396.66,70.95c4.85,0.72,9.71,1.41,14.57,2.06
	c-3.62,5.13-8.57,12.37-12.09,17.5c-3.57,5.3-8.71,12.84-12.16,18.1c-4.56,1.09-11.91,2.54-17.55,2.37
	c6.03,0.38,12.09-0.31,17.96-1.81l0.11-0.03l0.08-0.12c5.79-8.26,12.81-18.58,18.46-27c2.14-3.16,4.23-6.35,6.33-9.54
	C407.14,71.92,401.91,71.41,396.66,70.95z M442.24,10.01c-4.77,7.12-9.12,14.52-13.04,22.14c-3.73,7.63-7.61,15.39-8.76,23.92
	c-6.72,3.13-13.72,5.7-20.86,7.72c-2.41,0.71-4.85,1.26-7.3,1.82c9.93-1.59,19.62-4.62,28.77-8.82l0.22-0.1l0.03-0.26
	c1.21-8.4,5.04-16.28,8.67-23.89C433.75,24.87,437.9,17.38,442.24,10.01z M167.722,107.258c0,0,6.147-47.109,35.315-75.265
	l-9.891-11.242C193.146,20.751,162.162,64.102,167.722,107.258z M164.552,99.491c0,0-4.064-34.5,11.451-56.536l-9.217-10.476
	C166.787,32.48,153.089,69.461,164.552,99.491z M129.37,57.91l7.47,16.11c13.46,11.09,21.93,24.83,22.31,25.45
	C153.64,81.47,139.85,66.9,129.37,57.91z M132.508,47.998l-1.298,8.4c15.189,6.228,24.412,25.275,24.412,25.275
	C151.663,62.496,132.508,47.998,132.508,47.998z M168.77,164.36l-2.28,4.98h0.01l2.28-4.98H168.77z"/>
</svg>
