<?xml version="1.0" encoding="utf-8"?>
<!-- Generator: Adobe Illustrator 25.4.1, SVG Export Plug-In . SVG Version: 6.00 Build 0)  -->
<svg version="1.1" id="Layer_1" xmlns="http://www.w3.org/2000/svg" xmlns:xlink="http://www.w3.org/1999/xlink" x="0px" y="0px"
	 viewBox="0 0 249.7 143.3" style="enable-background:new 0 0 249.7 143.3;" xml:space="preserve">
<style type="text/css">
	.st0{fill:#264F9B;enable-background:new    ;}
	.st1{fill:#FF9900;enable-background:new    ;}
	.st2{fill:#EF4823;enable-background:new    ;}
	.st3{fill:#151D47;enable-background:new    ;}
	.st4{fill:#FFF7DE;}
	.st5{fill:#143017;}
	.st6{fill:#BE680B;}
</style>
<path class="st5" d="M152.5,34.7c-0.1-11.3-0.2-22.4-0.3-33.5c3.7,0,7.2,0,10.8,0c0,0.3,0,0.6,0,0.9c0,21.8,0,43.7,0,65.5
	c0,0.8-0.2,1.1-1,1.1c-2.7-0.1-5.4,0-8.1,0c-0.5,0-0.8-0.1-0.9-0.7c-2.6-9.1-5.3-18.1-7.9-27.2c-0.6-2-0.9-4-1.3-6
	c-0.1-0.3-0.2-0.7-0.3-1.1c0.1,11.7,0.2,23.3,0.3,35c-3.8,0-7.4,0-11.1,0c0-22.4,0-44.9,0-67.4c0.3,0,0.5,0,0.8,0c3.1,0,6.2,0,9.3,0
	c0.6,0,0.9,0.2,1,0.8c2.6,10,5.3,20,7.9,30C152,32.7,152.2,33.6,152.5,34.7z"/>
<path class="st5" d="M96.1,140.7c-2.5,0-5,0-7.5,0c-2.3,0-2.3,0-3-2.2c-2.4-8.4-4.9-16.8-7.3-25.2c-0.7-2.5-1.1-5-1.7-7.4
	c0.1,11.5,0.3,23.1,0.4,34.8c-3.8,0-7.5,0-11.2,0c0-22.4,0-44.8,0-67.3c0.3,0,0.5-0.1,0.8-0.1c3.1,0,6.2,0,9.3,0
	c0.5,0,0.8,0.1,1,0.7c2.7,10.2,5.3,20.3,8,30.5c0.2,0.7,0.3,1.4,0.6,2.1c-0.1-11-0.2-22.1-0.3-33.2c3.7,0,7.2,0,10.7,0
	C96.1,95.8,96.1,118.2,96.1,140.7z"/>
<path class="st5" d="M102.4,68.5c-4.1,0-8,0-12,0c0-22.5,0-44.9,0-67.4c0.3,0,0.6,0,0.9,0c5.8,0,11.6,0,17.4,0
	c3.9,0,7.4,1.1,10.1,4.2c1.9,2.2,2.8,4.8,3.3,7.6c0.7,4.3,0.7,8.5-0.6,12.7c-1.3,4.2-3.7,7.3-8.2,8.2c0,0-0.1,0.1-0.2,0.1
	c0.1,0.1,0.1,0.2,0.2,0.2c3.6,1.4,5.5,4.3,6.6,7.9c0.9,3.1,1.1,6.3,1.2,9.5c0.2,4.8,0.4,9.5,0.6,14.3c0,0.9,0.3,1.7,0.4,2.7
	c-0.3,0-0.6,0-0.8,0c-3.5,0-7,0-10.4,0c-0.7,0-0.9-0.2-1.1-0.9c-0.6-3.2-0.7-6.5-0.7-9.7c0-3.1,0-6.3,0-9.4c0-2.1-0.5-4.1-1.6-5.9
	c-0.9-1.5-2.1-2.6-3.8-3.1c-1-0.3-1.2-0.2-1.2,0.9c0,9,0,18,0,26.9C102.4,67.7,102.4,68.1,102.4,68.5z M102.4,19.3c0,3,0,6,0,9
	c0,0.8,0.2,1,1,1c0.8-0.1,1.7,0,2.5,0c2.5,0,3.7-0.8,4-3.4c0.3-2.4,0.4-4.8,0.4-7.1c0-2.2-0.2-4.5-1-6.6c-0.6-1.6-1.8-2.6-3.6-2.7
	c-0.8-0.1-1.7,0-2.5-0.1c-0.7-0.1-0.8,0.2-0.8,0.9C102.4,13.2,102.4,16.2,102.4,19.3z"/>
<path class="st5" d="M146.3,73.3c0.3,0,0.5,0,0.7,0c5,0,10,0,15,0c2.4,0,4.8,0.4,7,1.4c3.3,1.6,5.2,4.4,6.1,7.9
	c1.2,4.9,1.5,9.9,0.4,14.9c-0.3,1.4-1,2.7-1.7,4c-0.9,1.5-2.3,2.5-4,3c-0.2,0.1-0.5,0.2-0.7,0.2c0,0-0.1,0.1-0.1,0.2
	c0.1,0.1,0.2,0.1,0.3,0.2c3.3,0.7,5.3,2.9,6.7,5.8c1.4,3,1.9,6.3,2,9.6c0.1,3.7-0.1,7.3-1.3,10.8c-1.8,5.2-5.5,8.2-10.9,9.1
	c-1.5,0.3-3.1,0.4-4.6,0.4c-4.6,0-9.3,0-13.9,0c-0.3,0-0.6,0-1,0C146.3,118.2,146.3,95.8,146.3,73.3z M157.8,121c0,3.7,0,7.5,0,11.2
	c0,0.6,0.1,0.8,0.7,0.8c0.6,0,1.2,0,1.8,0c2.9,0,4-0.9,4.6-3.8c0.1-0.3,0.1-0.6,0.2-0.9c0.1-3.9,0.3-7.8,0.3-11.6
	c0-1.6-0.4-3.3-0.9-4.9c-0.6-1.9-1.9-2.7-3.9-2.7c-0.6,0-1.2,0-1.8,0c-0.8-0.1-1.1,0.1-1.1,1C157.8,113.7,157.8,117.3,157.8,121z
	 M157.9,100.5c1.3,0,2.6,0.1,3.8,0c1.7-0.2,2.4-1.6,2.5-3.1c0.3-2.6,0.4-5.3,0.4-7.9c0-1.6-0.2-3.2-0.5-4.8c-0.6-3-3.3-4.4-6.2-3.4
	C157.9,87.7,157.9,94.1,157.9,100.5z"/>
<path class="st5" d="M14.5,68.6c0-22.6,0-45,0-67.5c0.3,0,0.6,0,0.9,0c4.7,0,9.3,0,14,0c2.1,0,4.2,0.3,6.1,1
	c3.3,1.2,5.5,3.5,6.6,6.7c1.9,5.6,2.2,11.4,0.7,17.2c-0.8,3.2-2.6,5.6-6,6.4c-0.1,0-0.1,0.1-0.3,0.2c0.2,0.1,0.4,0.2,0.5,0.2
	c2.8,0.7,4.7,2.5,6.1,5c1.4,2.5,2,5.2,2.3,8c0.4,4.1,0.3,8.1-0.8,12.1c-1.6,6.2-6,9.9-12.6,10.5c-1.3,0.1-2.6,0.2-3.8,0.2
	c-4.2,0-8.5,0-12.7,0C15.2,68.6,14.9,68.6,14.5,68.6z M25.4,48.7c0,3.5,0,7,0,10.5c0,1.8-0.2,1.5,1.5,1.5c0.2,0,0.4,0,0.7,0
	c3.5,0,4.6-0.9,5.1-4.4c0-0.1,0-0.1,0-0.2c0.5-4.3,0.6-8.5,0.2-12.8c-0.1-1.5-0.6-3-1.1-4.4c-0.5-1.5-1.8-2.2-3.4-2.2
	c-0.7,0-1.4,0-2.1,0c-0.7-0.1-1,0.2-0.9,0.9C25.4,41.4,25.4,45.1,25.4,48.7z M25.4,18.7c0,3,0,5.9,0,8.9c0,0.6,0.2,0.9,0.9,0.8
	c0.6-0.1,1.1,0,1.7,0c2.7,0.2,3.6-1.4,3.9-3.3c0.6-4.1,0.6-8.2-0.1-12.3c-0.5-3-1.8-4-4.9-4c-0.2,0-0.4,0-0.7,0
	c-0.7-0.1-0.9,0.2-0.9,0.8C25.4,12.7,25.4,15.7,25.4,18.7z"/>
<path class="st5" d="M105.4,106.6c0.1-6.2,0.2-12.3,1-18.5c0.4-3,1-6,2.2-8.8c1.8-4.1,4.8-6.5,9.3-6.9c2.6-0.3,5.1-0.3,7.6,0.2
	c4,0.7,6.6,3.1,8.2,6.7c1.3,3,1.9,6.1,2.3,9.3c1.1,8.5,1,17,0.8,25.5c-0.1,5.2-0.5,10.5-1.7,15.6c-0.6,2.7-1.4,5.3-3,7.6
	c-1.5,2.3-3.6,3.8-6.2,4.4c-3.1,0.8-6.3,0.8-9.4,0.1c-3.6-0.8-6-3.1-7.5-6.4c-1.7-3.6-2.5-7.4-2.8-11.3c-0.5-5.8-0.8-11.6-1.1-17.5
	C105.2,106.6,105.3,106.6,105.4,106.6z M124.6,102.2C124.5,102.2,124.5,102.2,124.6,102.2c-0.1-3.4,0-6.7-0.1-10.1
	c-0.1-2.7-0.2-5.3-0.4-8c-0.1-1.2-0.4-2.4-0.7-3.6c-0.2-0.9-0.9-1.3-1.9-1.4c-1,0-2,0.1-2.4,1.1c-0.4,0.9-0.7,1.9-0.8,2.9
	c-0.2,2.8-0.5,5.5-0.5,8.3c0,11.7,0,23.5,0.1,35.2c0,2,0.4,4.1,0.7,6.1c0.2,1.3,1,1.8,2.2,1.8c1.8,0.1,2.3-0.4,2.8-2.1
	c0.1-0.3,0.1-0.5,0.2-0.8c0.3-4.7,0.6-9.3,0.7-14C124.7,112.6,124.6,107.4,124.6,102.2z"/>
<path class="st5" d="M50.2,68.5c3.3-22.6,6.5-45.2,9.8-67.8c0.3,0,0.5-0.1,0.7-0.1c3.4,0,6.7,0,10.1,0c0.6,0,0.8,0.2,0.9,0.7
	c0.9,5.5,1.8,11,2.8,16.4c1.6,9.3,3.2,18.7,4.8,28c1.3,7.5,2.5,14.9,3.8,22.4c0,0.1,0,0.2,0,0.4c-0.3,0-0.5,0.1-0.7,0.1
	c-3.6,0-7.2,0-10.8,0c-0.7,0-0.9-0.2-1-0.9c-0.3-3.1-0.7-6.2-1-9.4c0-0.2-0.3-0.6-0.5-0.6c-2.4,0-4.8,0-7.2,0
	c-0.2,1.5-0.4,3-0.5,4.4c-0.2,1.9-0.4,3.9-0.7,5.8c0,0.2-0.4,0.6-0.6,0.6c-3.2,0-6.3,0-9.5,0C50.5,68.6,50.4,68.5,50.2,68.5z
	 M65.4,19.7c-0.9,10.1-1.8,20.3-2.8,30.6c2.1,0,4.1,0,6.1,0C67.7,40,66.5,29.8,65.4,19.7z"/>
<path class="st6" d="M35.4,126.2c0.5-1.1,1.1-2.2,1.6-3.4c1.4-3.1,2.7-6.3,4.2-9.5c1.5-3.3,3.6-6,7.1-7.2c3.2-1.1,6.4-0.8,9.1,1.4
	c2.3,1.9,2.9,5.5,1.2,7.8c-0.9,1.3-2.4,1.8-3.8,1.4c-1-0.3-1.5-1.1-1.7-2c-0.2-0.9-0.3-1.9-0.5-2.8c-0.6-3-3.2-3.9-5.6-1.9
	c-1.5,1.3-2.6,2.9-3.4,4.7c-1.7,3.6-3.2,7.2-4.8,10.8c-0.5,1-1,2-1.4,3c-0.1,0.4-0.2,0.9,0,1.2c1.5,2.9,3.4,5.5,6,7.4
	c2.6,1.8,5.2,2,7.8,0.2c1.2-0.8,2.3-1.7,3.5-2.6c0.3,0.5,0.7,0.9,1,1.4c0.1,0.1,0,0.5-0.1,0.6c-2.4,3-5.3,5.3-9.2,6.1
	c-3,0.6-5.7-0.3-8-2.1c-1.8-1.4-3.3-3-4.9-4.6c-0.8-0.8-0.8-0.8-1.6,0c-2.9,3.1-6.3,5.4-10.5,6.3c-5.9,1.3-11.5,0.6-16.3-3.3
	c-2.8-2.3-4.4-5.4-4.8-9c-1.1-8.4,1.9-15.2,8.2-20.7c2-1.7,4.1-3.3,6.2-4.9c0.7-0.5,0.9-0.9,0.6-1.8c-1.5-4.5-2.3-9-2.2-13.7
	c0.1-5.8,2.4-10.6,6.6-14.5c3-2.8,6.5-4.6,10.5-5.1c4.1-0.5,8.1-0.3,11.5,2.6c2.5,2.1,3.6,4.8,3.8,8c0.2,5.1-1.9,9.3-5.4,12.9
	c-2.8,2.9-6.2,5-9.6,7c-2,1.1-3.9,2.2-5.9,3.2c-1,0.6-1.1,0.6-0.6,1.7c1.5,3.2,3,6.5,4.6,9.7c1.9,3.6,3.9,7.1,5.9,10.6
	c0.2,0.3,0.4,0.6,0.6,0.9C35.2,126.2,35.3,126.2,35.4,126.2z M17,108.7c-0.3,0.2-0.5,0.3-0.6,0.4c-5,4.6-8.2,10.1-8.9,16.9
	c-0.5,4.9,2.1,9.7,6.4,11.7c2.7,1.2,5.5,1.4,8.4,0.9c3.1-0.5,5.6-2.2,7.7-4.5c0.5-0.5,0.5-0.9,0.1-1.5c-4.6-6.5-8.5-13.4-11.7-20.7
	C18,110.9,17.5,109.8,17,108.7z M32.3,74.3c-0.4,0-0.9,0-1.3,0c-0.4,0-0.9,0.1-1.3,0.3c-4.5,1.3-7.2,4.3-8.3,8.7
	c-1.4,5.4-0.9,10.9,0.7,16.3c0.3,1,0.4,1,1.2,0.5c3-1.8,6-3.7,8.9-5.6c2.3-1.6,4.5-3.4,5.9-5.9c1.5-2.7,2.1-5.5,1.7-8.5
	C39.1,76.5,36.2,74.1,32.3,74.3z M36.7,135.8c0.1-0.1,0.1-0.1,0.2-0.2c-0.1-0.2-0.2-0.3-0.3-0.5c-2.5-4.1-5.2-8.2-7.6-12.5
	c-5.2-9.4-9.7-19.1-10.6-30c-0.2-2.4,0-4.8,0-7.2c0-1,0.2-2.1,0.4-3.2c-0.2,0.1-0.3,0.2-0.3,0.2c-0.1,0.2-0.2,0.4-0.3,0.6
	c-1.4,3.3-1.7,6.7-1.5,10.2c0.2,4.3,1.1,8.5,2.6,12.5c3.5,9.7,8.6,18.6,14.9,26.8C35,133.7,35.9,134.7,36.7,135.8z"/>
<path class="st5" d="M224.8,20.5c0.1-1.3,0.2-2.4,0.2-3.6c-0.1-2.4-0.2-4.8-0.5-7.2c-0.1-1.1-0.8-2-2.1-2.2c-2-0.4-3.2,0.3-3.6,2.3
	c-0.9,4.6-0.6,9,2.2,12.9c2,2.8,4.1,5.4,6.2,8.1c2.8,3.6,5.6,7.1,7.8,11.1c1.7,3.2,2.7,6.6,2.5,10.2c-0.2,3.7-0.7,7.2-2.5,10.5
	c-2,3.8-5,6.3-9.3,6.9c-3.3,0.5-6.8,0.5-10-0.8c-4-1.6-6.4-4.5-7.5-8.6c-1.3-4.4-1.2-8.9-0.4-13.4c0.1-0.7,0.4-0.9,1.2-0.9
	c3,0,6,0,8.9,0c0.3,0,0.5,0,0.8,0c-0.2,1.8-0.4,3.5-0.4,5.3c0,2.2,0.2,4.3,0.3,6.5c0,0.5,0.2,1,0.4,1.5c0.7,2,2,2.7,4.2,2.5
	c1-0.1,1.7-0.7,2.2-1.6c0.9-1.9,1-3.9,1.1-5.9c0.3-4.7-1.5-8.7-4.3-12.3c-2.5-3.3-5.3-6.5-7.8-9.8c-2.7-3.5-5.1-7.3-6.4-11.6
	c-1.4-4.6-0.9-9.2,1-13.5c1.7-3.9,4.9-6,9-6.7c3.1-0.5,6.2-0.4,9.2,0.6c3.3,1.1,5.8,3.2,7.1,6.5c1.6,4,1.8,8.1,0.8,12.3
	c-0.2,0.7-0.5,1-1.2,1c-2.7-0.1-5.3,0-8,0C225.4,20.5,225.1,20.5,224.8,20.5z"/>
<path class="st5" d="M220,140.7c0-22.5,0-44.9,0-67.3c8.2,0,16.4,0,24.6,0c0,3.3,0,6.6,0,10c-0.3,0-0.6,0-1,0c-3.7,0-7.3,0-11,0
	c-0.6,0-0.9,0.2-0.9,0.8c0,5.6,0,11.1,0,16.7c0,0.7,0.2,0.9,0.9,0.9c3.2,0,6.3,0,9.5,0c0.3,0,0.6,0,0.9,0c0,3.1,0,6.2,0,9.3
	c-0.4,0-0.7,0-1,0c-3.2,0-6.3,0-9.5,0c-0.7,0-0.8,0.2-0.8,0.9c0,6,0,12,0,18c0,0.7,0.2,0.8,0.8,0.8c4.2,0,8.4,0,12.6,0
	c0.3,0,0.7,0,1.1,0c0,3.3,0,6.6,0,10C237.5,140.7,228.8,140.7,220,140.7z"/>
<path class="st5" d="M198.6,1.1c0,1,0,2,0,2.9c0,2.1,0,4.2,0,6.3c0,0.6-0.2,0.8-0.8,0.8c-3.8,0-7.5,0-11.3,0c-0.5,0-0.8,0-0.8,0.7
	c0,5.7,0,11.5,0,17.2c0,0.1,0,0.2,0.1,0.4c3.7,0,7.5,0,11.3,0c0,3.2,0,6.2,0,9.4c-0.4,0-0.7,0-1,0c-3.2,0-6.3,0-9.5,0
	c-0.6,0-0.8,0.2-0.8,0.8c0,6,0,12.1,0,18.1c0,0.2,0,0.4,0.1,0.8c0.4,0,0.7,0,1,0c4.2,0,8.5,0,12.7,0c0.7,0,1,0.1,1,0.9
	c0,2.8,0,5.6,0,8.3c0,0.2,0,0.5,0,0.8c-0.3,0-0.6,0-0.9,0c-8.2,0-16.4,0-24.6,0c-0.8,0-1-0.2-1-1c0-21.9,0-43.8,0-65.7
	c0-0.6,0.1-0.9,0.8-0.9c7.7,0,15.4,0,23.1,0C198,1.1,198.2,1.1,198.6,1.1z"/>
<path class="st5" d="M199,130.7c4.8,0,9.5,0,14.3,0c0,3.4,0,6.7,0,10c-8.8,0-17.6,0-26.4,0c0-22.5,0-44.9,0-67.4c4,0,8.1,0,12.2,0
	C199,92.4,199,111.5,199,130.7z"/>
</svg>
