<?xml version="1.0" encoding="utf-8"?>
<!-- Generator: Adobe Illustrator 25.4.1, SVG Export Plug-In . SVG Version: 6.00 Build 0)  -->
<svg version="1.1" id="Layer_1" xmlns="http://www.w3.org/2000/svg" xmlns:xlink="http://www.w3.org/1999/xlink" x="0px" y="0px"
	 viewBox="0 0 756.3 142.7" style="enable-background:new 0 0 756.3 142.7;" xml:space="preserve">
<style type="text/css">
	.st0{fill:#264F9B;enable-background:new    ;}
	.st1{fill:#FF9900;enable-background:new    ;}
	.st2{fill:#EF4823;enable-background:new    ;}
	.st3{fill:#151D47;enable-background:new    ;}
</style>
<g>
	<path class="st2" d="M431.3,117.1c-14.7,8.5-29.4,17-44.3,25.6c0-0.8-0.1-1.3-0.1-1.8c0-5.2,0-10.4,0-15.7c0-0.4,0-0.8,0-1.3
		c0-1.5-0.2-1.6-1.7-1.6c-0.4,0-0.8,0-1.3,0c-33.8,0-67.6,0-101.4,0c-0.7,0-1.3,0-2.3-0.1c0.7-0.9,1.1-1.5,1.6-2.1
		c2.5-2.6,5.1-5.2,7.6-7.8c2.6-2.7,5.2-5.5,7.8-8.3c2-2.1,3.9-4.3,5.9-6.4c3.6-3.9,7.1-7.8,10.7-11.6c2.7-3,5.4-6,8.1-9.1
		c2.9-3.2,5.7-6.5,8.5-9.7c1.6-1.9,3.3-3.7,4.9-5.5c4.9-5.4,9.6-11,13.4-17.3c2.3-3.9,4.1-8,4.6-12.5c0.5-4.3-0.1-8.4-2.8-11.9
		c-2.3-2.9-5.2-5.1-8.8-6.2c-5-1.5-9.9-1.2-14.8,0.5c-2.2,0.8-4,2-5.7,3.6c-0.8,0.7-1.5,1.5-2.2,2.2c-0.4,0.4-0.7,0.8-1,1.2
		c-0.9,1.5-0.8,1.7,0.8,2.2c2.8,0.8,5.3,2,7.5,3.9c2.4,2,4.1,4.6,5.1,7.5c1.8,5.1,1.6,10-1.1,14.8c-2.7,5-6.9,8.1-12.5,9.1
		c-5.9,1-11.3-0.3-15.8-4.6c-3.9-3.8-5.8-8.5-5.6-13.9c0.1-3.2,0.9-6.2,2.1-9.2c2.1-5.5,5.1-10.5,9.2-14.8c6.7-7,14.8-11.2,24-13.7
		c4.8-1.3,9.7-2.1,14.6-2.4c6.9-0.4,13.8,0.4,20.5,2.3c5.1,1.5,9.9,3.6,14.3,6.5c2.4,1.5,4.7,3.3,6.7,5.2c3,2.8,5.1,6.4,6.9,10.1
		c2.2,4.6,3.5,9.5,3.8,14.6c0.5,7.6-1.2,14.6-4.4,21.4c-2.2,4.5-4.9,8.7-7.7,12.9c-2,2.9-3.9,5.8-6,8.7c-2.2,3-4.5,6-6.8,8.9
		c-2.2,2.8-4.3,5.5-6.6,8.3c-2.1,2.5-4.2,5-6.3,7.5c-1.1,1.2-2.2,2.5-3.2,3.7c-0.7,0.8-0.4,1.3,0.6,1.4c0.4,0,0.7,0,1.1,0
		c8.3,0,16.6,0,24.9,0c0.1,0,0.1,0,0.2,0c2.1,0,2.1,0,2.1-2.1c0-5.4,0-10.9,0-16.3c0-0.6,0-1.1,0-1.7
		C388.3,91.8,430.1,116,431.3,117.1z M305.6,111.4c0.9,0.1,1.3,0.2,1.7,0.2c11.2,0,22.4,0,33.6,0c1,0,1.8-0.3,2.5-1.1
		c4.8-5.5,9.7-11,14.4-16.6c3.6-4.2,7-8.6,10.4-13c2.9-3.8,5.8-7.8,8.6-11.8c2.9-4.2,5.8-8.6,8-13.2c3.9-7.9,4.8-16,2.2-24.4
		c-1.1-3.6-2.7-7-5.2-9.9c-3.9-4.3-8.5-7.8-13.9-9.9c-3.3-1.3-6.8-2-10.3-2.3c-0.5-0.1-1.1,0-2,0.1c0.5,0.8,0.8,1.2,1.2,1.6
		c0.8,0.9,1.6,1.8,2.3,2.8c5.6,8,7.1,16.6,4.2,26c-1.6,5.4-4.3,10.2-7.7,14.6c-2.3,3-4.7,5.8-7.1,8.7c-3.3,3.9-6.6,7.8-10,11.7
		c-3.1,3.5-6.2,7-9.4,10.5c-5.2,5.8-10.4,11.5-15.6,17.2c-2.2,2.4-4.5,4.8-6.7,7.2C306.3,110.1,306.1,110.6,305.6,111.4z M315,48.5
		c4.2-0.1,7.3-3.3,7.3-7.6c-0.1-4.1-3.4-7.2-7.5-7.2c-4,0-7.3,3.4-7.3,7.4C307.4,45.3,310.9,48.6,315,48.5z M412.6,116.8
		c-2.3-1.8-4.9-3-7.3-4.4c-2.5-1.4-4.8-3.1-7.8-4.3c0,5.6,0,10.9,0,16.2c0,0.4,0.1,0.8,0.2,1.2C399.1,125.2,411.4,118.1,412.6,116.8
		z"/>
	<path class="st3" d="M433.9,90.1c0-0.7-0.1-1.2-0.1-1.7c0-15.2,0-30.5,0-45.7c0-0.3,0-0.6,0-0.9c0-0.6,0.4-0.9,1-0.9
		c0.3,0,0.5,0,0.8,0c5,0,10-0.1,15,0c5.2,0.1,10,1.5,14.4,4.3c4.6,3,7.7,7.2,9.3,12.5c1.8,5.9,1.6,11.8-0.6,17.5
		c-0.8,2.2-2,4.3-3.6,6.1c-5.1,6.1-11.7,8.7-19.5,8.9c-5,0.1-10,0-15,0C435.2,90.1,434.6,90.1,433.9,90.1z M443.9,81.8
		c0.1,0,0.3,0.1,0.4,0.2c3.6,0.1,7.3,0.2,10.8-0.8c4.4-1.2,7.7-3.9,9.3-8.3c1.6-4.2,1.7-8.6,0.6-12.9c-1.5-5.9-5.4-9.3-11.4-10.5
		c-3.1-0.6-6.2-0.4-9.3-0.4c-0.2,0-0.4,0.1-0.5,0.2C443.4,51.4,443.5,80.6,443.9,81.8z"/>
	<path class="st3" d="M568.4,50c-2.5,1.6-4.7,3.4-7.3,4.9c-1.5-2.2-3.3-3.9-5.5-4.9c-5.6-2.5-11.2-2.4-16.5,0.9
		c-4,2.5-6.2,6.3-7.1,10.9c-0.9,4.7-0.3,9.1,2.1,13.3c2.6,4.6,6.6,6.9,11.7,7.6c3.9,0.5,7.7-0.1,11.1-2.2c2.7-1.6,4.6-3.9,5.7-6.7
		c0.2-0.4,0.2-0.9,0.3-1.6c-0.7-0.1-1.2-0.2-1.8-0.2c-3.2,0-6.3,0-9.5,0c-0.6,0-1.1,0-1.8,0c0-2.6,0-5,0-7.5c7.6,0,15,0,22.6,0
		c0.1,0.6,0.3,1.2,0.2,1.7c-0.2,4.8-1.1,9.5-3.6,13.8c-2.2,3.7-5.1,6.5-9,8.3c-7.3,3.4-14.7,3.6-22.3,0.7c-4-1.5-7.4-4-10.1-7.3
		c-3.3-4-5.2-8.7-5.6-14c-0.4-5,0.4-9.7,2.7-14.1c3.6-7,9.5-11.3,17.1-13.1c5.2-1.2,10.4-0.9,15.4,0.7c4.2,1.3,7.4,3.9,10.2,7.2
		C567.9,49,568.1,49.5,568.4,50z"/>
	<path class="st3" d="M0,90c0-16.4,0-32.7,0-49.1c0.5,0,0.9-0.1,1.4-0.1c5.1,0,10.2-0.1,15.4,0c5.6,0.2,10.9,1.7,15.5,5.2
		c4.2,3.2,7,7.5,8.4,12.7c0.6,2.3,0.8,4.6,0.8,6.9c0,3-0.4,6.1-1.5,9c-1.2,3.2-2.9,6.1-5.3,8.5c-3.4,3.3-7.5,5.4-12.1,6.5
		c-2.1,0.5-4.3,0.7-6.4,0.7c-4.7,0-9.4,0-14.1,0C1.3,90.1,0.7,90.1,0,90z M9.4,49.5c0,0.4,0,1,0,1.6c0,9.6,0,19.3,0,28.9
		c0,0.3,0,0.6,0,0.9c0,0.7,0.3,1,1.1,1.1c3.5,0,7,0.1,10.4-0.8c4.8-1.3,8.2-4.2,9.7-9c1.2-3.7,1.2-7.5,0.5-11.2
		c-1.1-5.8-4.6-9.6-10.4-11.1c-3.6-1-7.2-0.8-10.8-0.6C9.8,49.2,9.7,49.3,9.4,49.5z"/>
	<path class="st3" d="M97.3,89.9c-0.7,0.1-1.1,0.2-1.5,0.2c-2.6,0-5.2,0-7.8,0c-0.9,0-1.4-0.3-1.9-1.1c-2.1-3.5-4.4-6.9-6.6-10.4
		c-0.3-0.4-0.9-0.9-1.3-0.9c-2.5,0-5,0-7.4,0.1c-0.1,0-0.2,0.1-0.5,0.3c-0.1,1.8,0,3.8,0,5.8c0,2,0,4,0,6.1c-3.3,0-6.4,0-9.4,0
		c-0.4-1.3-0.4-47.4,0-49.1c0.5,0,1.1-0.1,1.6-0.1c4.6,0,9.2,0,13.8,0c5.4,0.1,10.4,1.4,14.8,4.6c1.5,1.2,2.7,2.6,3.7,4.3
		c2.1,3.7,2.8,7.8,2.3,12c-0.4,3.7-1.8,7-4.4,9.7c-1.1,1.1-2.5,1.9-3.8,2.8c-0.3,0.2-0.6,0.4-1,0.7C90.9,80,94,84.8,97.3,89.9z
		 M70.4,49.3c-0.1,0.1-0.1,0.2-0.1,0.3c0,6.3,0,12.6-0.1,19c0,0.7,0.4,1.1,1.1,1c2.7-0.1,5.4,0,8-0.4c3.6-0.5,6.5-2.4,7.5-6.1
		c0.4-1.5,0.6-3.1,0.5-4.7c-0.2-4.9-2.8-7.8-7.6-8.9c-2.9-0.6-5.9-0.5-8.8-0.4C70.7,49.2,70.5,49.3,70.4,49.3z"/>
	<path class="st3" d="M707.7,90.1c-0.8,0-1.3,0-1.9,0c-2.2,0-4.3,0-6.5,0c-0.8,0-1.4-0.2-1.7-1.1c-0.4-1.1-1-2.2-1.4-3.4
		c-0.3-0.8-0.7-1.1-1.5-1c-6.5,0-13,0-19.5,0c-0.8,0-1.3,0.4-1.5,1.1c-0.4,1.1-0.9,2.2-1.3,3.4c-0.2,0.6-0.5,1-1.2,1
		c-2.5,0-5,0-7.4,0c-0.2,0-0.4-0.1-0.7-0.3c0.2-0.5,0.3-0.9,0.5-1.3c2.7-6.1,5.4-12.2,8.2-18.3c4.1-9.1,8.1-18.3,12.2-27.4
		c0.4-0.9,0.6-1.9,1.5-2.5C686.1,41.2,706.7,87.1,707.7,90.1z M692.6,77.3c-0.4-1-0.6-1.6-0.9-2.3c-1.6-3.9-3.2-7.8-4.7-11.7
		c-0.5-1.3-0.8-2.6-1.3-3.9c-0.1-0.2-0.4-0.6-0.6-0.6c-0.2,0-0.5,0.3-0.7,0.5c-0.2,0.3-0.2,0.6-0.3,0.9c-0.6,1.8-1.2,3.6-1.9,5.3
		c-1.4,3.4-2.8,6.7-4.2,10c-0.2,0.5-0.3,1-0.6,1.7C682.6,77.3,687.4,77.3,692.6,77.3z"/>
	<path class="st3" d="M113.4,90.1c7.5-16.9,14.8-33.4,22.2-49.9c0.2,0,0.3,0,0.5,0c0.2,0.4,0.5,0.8,0.7,1.3
		c2.1,4.6,4.1,9.2,6.2,13.9c1.7,3.8,3.4,7.7,5.1,11.5c3.3,7.4,6.6,14.8,9.9,22.2c0.1,0.2,0.1,0.4,0.3,0.7c-0.4,0.1-0.7,0.2-1,0.2
		c-2.5,0-5,0-7.4,0c-0.8,0-1.3-0.3-1.6-1c-0.3-0.9-0.8-1.9-1.1-2.8c-0.7-1.7-0.7-1.7-2.5-1.7c-4.6,0-9.3,0-13.9,0
		c-1.5,0-3.1,0-4.6,0c-0.9,0-1.4,0.3-1.7,1.1c-0.5,1.2-1,2.3-1.5,3.5c-0.2,0.5-0.4,0.9-1,0.9C119.2,90.1,116.5,90.1,113.4,90.1z
		 M128.1,77.2c0.5,0.1,0.8,0.2,1.1,0.2c4.3,0,8.5,0,12.8,0c0.3,0,0.7-0.2,1-0.3c-0.1-0.3-0.1-0.5-0.2-0.7
		c-2.3-5.8-5.1-11.4-6.6-17.4c-0.1-0.3-0.4-0.5-0.9-0.9C133.7,64.8,130.6,70.8,128.1,77.2z"/>
	<path class="st3" d="M185,65.8c0.6,0,1.2,0.1,1.8,0.1c5.5,0,11.1,0,16.6,0c0.4,0,0.8,0,1.3,0c0.6,0,0.9,0.3,0.9,0.9
		c0,2.4,0,4.7,0,7.3c-0.7,0-1.3,0.1-2,0.1c-5.6,0-11.2,0-16.8,0c-0.6,0-1.2,0-2,0c-0.2,2.7-0.1,5.3-0.1,7.9c0,2.6,0,5.2,0,7.7
		c-1.2,0.4-7.5,0.5-9.2,0.1c-0.3-1.2-0.4-47.4,0-49c10.6,0,21.2,0,32,0c0,2.8,0,5.4,0,8.2c-3.8,0.2-7.5,0.1-11.2,0.1
		c-3.7,0-7.5,0-11.2,0C184.6,50.5,184.6,64.2,185,65.8z"/>
	<path class="st3" d="M641.7,90c-3.3,0-6.4,0-9.6,0c0-0.7-0.1-1.3-0.1-1.9c0-12.2,0-24.5,0-36.7c0-2.6,0.2-2.4-2.4-2.4
		c-3.5,0-7,0-10.5,0c-0.6,0-1.1,0-1.8-0.1c0-2.7,0-5.3,0-8.1c0.6,0,1.1-0.1,1.6-0.1c11.9,0,23.9,0,35.8,0c0.3,0,0.6,0,0.9,0
		c0.6,0,0.9,0.3,0.9,0.9c0,2.4,0,4.7,0,7.3c-2.6,0.1-5,0-7.4,0c-2.4,0-4.8,0-7.4,0c-0.1,3.6,0,6.9-0.1,10.3c0,3.4,0,6.9,0,10.3
		c0,3.4,0,6.8,0,10.1C641.7,83.1,641.7,86.5,641.7,90z"/>
	<path class="st3" d="M248,49.1c0,13.7,0,27.2,0,40.9c-3.2,0.3-6.2,0.1-9.4,0.1c0-0.8-0.1-1.4-0.1-2c0-12.3,0-24.6,0-36.9
		c0-2.3,0.2-2.2-2.3-2.2c-3.5,0-7.1,0-10.6,0c-0.6,0-1.1,0-1.8-0.1c0-2.7,0-5.3,0-7.9c1.2-0.3,36.7-0.4,38.8-0.1
		c0.4,1,0.5,5.3,0.2,8c-0.5,0-1.1,0.1-1.6,0.1c-3.7,0-7.5,0-11.2,0C249.4,49,248.8,49.1,248,49.1z"/>
	<path class="st3" d="M724.6,40.9c3.1,0,6.1,0,9.2,0c0,0.7,0.1,1.4,0.1,2.1c0,12.3,0,24.6,0,36.9c0,0.7,0,1.3,0,2.2
		c0.8,0.1,1.4,0.1,2,0.1c6.2,0,12.3,0,18.5,0c0.6,0,1.2,0.1,1.9,0.1c0,2.7,0,5.2,0,7.7c-1.2,0.4-29.9,0.5-31.7,0.1
		C724.3,88.8,724.2,42.7,724.6,40.9z"/>
	<path class="st3" d="M503.6,90c-3.3,0-6.4,0-9.6,0c0-16.4,0-32.6,0-49c0.3-0.1,0.7-0.2,1-0.2c2.4,0,4.7,0,7.1,0
		c1.3,0,1.4,0.2,1.4,1.5c0,2.6,0,5.2,0,7.7c0,12.6,0,25.3,0,37.9C503.6,88.6,503.6,89.2,503.6,90z"/>
	<path class="st3" d="M599.7,90c-3.1,0-6.2,0-9.4,0c0-0.6-0.1-1.1-0.1-1.7c0-15.2,0-30.5,0-45.7c0-1.9,0-1.9,1.8-1.9
		c2.1,0,4.1,0,6.2,0c0.5,0,0.9,0,1.3,0.1c0.1,0.1,0.1,0.2,0.2,0.2c0,0,0.1,0.1,0.1,0.1c0,0.3,0.1,0.5,0.1,0.8c0,15.8,0,31.6,0,47.4
		C599.8,89.5,599.8,89.7,599.7,90z"/>
</g>
</svg>
