<svg width="131" height="170" viewBox="0 0 131 170" fill="none" xmlns="http://www.w3.org/2000/svg">
<g clip-path="url(#clip0_6357_20)">
<path fill-rule="evenodd" clip-rule="evenodd" d="M127.585 138.268H5.89355V156.65H127.585C124.906 150.545 124.639 144.373 127.585 138.268V138.268Z" fill="#FFFADD"/>
<path fill-rule="evenodd" clip-rule="evenodd" d="M125.575 149.069C125.508 148.264 125.441 147.525 125.508 146.721H20.3597C19.6901 146.721 19.1543 147.258 19.1543 147.861V147.929C19.1543 148.532 19.6901 149.069 20.3597 149.069H125.575ZM125.843 143.635C125.98 142.815 126.182 142.008 126.446 141.219H29.468C29.3094 141.219 29.1523 141.25 29.0057 141.31C28.8591 141.371 28.7259 141.46 28.6138 141.572C28.5018 141.684 28.413 141.818 28.3527 141.965C28.2925 142.111 28.2618 142.269 28.2626 142.427C28.2619 142.586 28.2926 142.743 28.3529 142.89C28.4132 143.037 28.5019 143.17 28.614 143.283C28.7261 143.395 28.8592 143.484 29.0058 143.544C29.1524 143.605 29.3095 143.636 29.468 143.635H125.843Z" fill="#F1EDCC"/>
<path fill-rule="evenodd" clip-rule="evenodd" d="M7.16611 138.268H5.89355V154.704C6.89796 155.509 7.96953 156.18 9.17691 156.65H127.585C126.94 155.101 126.403 153.51 125.978 151.887H15.2049C12.6598 151.887 10.3828 150.813 8.70829 149.136C7.85361 148.283 7.1767 147.268 6.71683 146.151C6.25696 145.034 6.0233 143.836 6.02937 142.628C6.02937 141.085 6.43133 139.541 7.16809 138.268H7.16611Z" fill="#F1EDCC"/>
<path d="M0 15.2962V14.8939C0.0701057 10.9851 1.655 7.25647 4.42009 4.49525C7.23333 1.74472 10.9838 0 15.2029 0H127.986C129.661 0 131 1.40912 131 3.08713V135.249H12.8588L0 147.459V15.2962Z" fill="#FD8688"/>
<path d="M0 15.2962V14.8939C0.0701058 10.9851 1.655 7.25647 4.42009 4.49525C7.23334 1.74472 10.9838 0 15.2029 0V135.249H12.8588L0 147.459V15.2962Z" fill="#E87175"/>
<path d="M127.986 156.65C128.786 156.65 129.553 156.968 130.119 157.534C130.685 158.101 131.002 158.868 131.002 159.669C131.002 160.47 130.685 161.238 130.119 161.804C129.553 162.37 128.786 162.688 127.986 162.688H15.2049C10.9858 162.688 7.23529 161.011 4.42205 158.26C1.67646 155.443 0.00195312 151.688 0.00195312 147.459C0.00195312 143.233 1.67646 139.409 4.42205 136.658C7.23529 133.908 10.9858 132.163 15.2049 132.163H127.988C129.663 132.163 131.002 133.572 131.002 135.25C131.002 136.861 129.663 138.269 127.988 138.269H15.2049C13.9984 138.266 12.8032 138.501 11.688 138.962C10.5728 139.423 9.55968 140.1 8.7069 140.954C7.85411 141.808 7.17852 142.823 6.71901 143.939C6.2595 145.056 6.02513 146.252 6.0294 147.46C6.0252 148.668 6.25961 149.864 6.71916 150.98C7.1787 152.097 7.8543 153.111 8.70707 153.966C9.55985 154.82 10.573 155.497 11.6881 155.957C12.8033 156.418 13.9985 156.654 15.2049 156.65H127.986Z" fill="#D15D60"/>
<path fill-rule="evenodd" clip-rule="evenodd" d="M32.4824 146.721H53.378V170L42.5952 163.694L32.4824 170V146.721Z" fill="#FDA747"/>
<path d="M35.5724 107.968V107.243C36.1422 107.219 36.5633 107.169 36.8358 107.095C37.1207 107.008 37.3064 106.859 37.3931 106.649C37.4922 106.426 37.5418 106.092 37.5418 105.646V97.1365C37.5418 96.6906 37.4922 96.3624 37.3931 96.1518C37.3064 95.9289 37.1207 95.774 36.8358 95.6873C36.5633 95.6006 36.1422 95.5511 35.5724 95.5387V94.8141C36.8977 94.8513 39.0157 94.8699 41.9264 94.8699C42.4714 94.8699 42.9916 94.8699 43.487 94.8699C43.9825 94.8575 44.4469 94.8513 44.8805 94.8513C45.314 94.8389 45.7103 94.8265 46.0695 94.8141C46.0695 95.5697 46.0943 96.3004 46.1438 97.0064C46.2058 97.7001 46.2863 98.3751 46.3854 99.0315H45.6422C45.4564 98.1893 45.2273 97.5205 44.9548 97.025C44.6947 96.5172 44.3602 96.1518 43.9515 95.9289C43.5552 95.7059 43.0597 95.5944 42.4652 95.5944H40.3658V105.646C40.3658 106.092 40.4215 106.426 40.533 106.649C40.6445 106.859 40.8736 107.008 41.2204 107.095C41.5796 107.169 42.1246 107.219 42.8554 107.243V107.968C42.459 107.956 41.9388 107.943 41.2947 107.931C40.6507 107.918 39.8889 107.912 39.0095 107.912C38.3407 107.912 37.709 107.918 37.1145 107.931C36.5323 107.943 36.0183 107.956 35.5724 107.968ZM39.7712 101.856V101.131H43.2827V101.856H39.7712ZM43.5614 104.568C43.4994 103.924 43.3818 103.404 43.2084 103.007C43.0473 102.611 42.8182 102.32 42.5209 102.134C42.2361 101.948 41.8645 101.856 41.4062 101.856V101.131C42.0255 101.131 42.5024 100.933 42.8368 100.536C43.1836 100.14 43.4065 99.5394 43.5056 98.7343H44.2116C44.1621 99.4527 44.1373 100.01 44.1373 100.406C44.1373 100.803 44.1373 101.168 44.1373 101.503C44.1373 101.775 44.1435 102.048 44.1559 102.32C44.1683 102.593 44.1807 102.908 44.193 103.268C44.2178 103.614 44.2426 104.048 44.2674 104.568H43.5614ZM47.649 107.968V107.243C48.3055 107.231 48.7637 107.132 49.0239 106.946C49.284 106.76 49.414 106.414 49.414 105.906V100.722C49.414 100.165 49.284 99.7623 49.0239 99.5146C48.7761 99.2545 48.3179 99.1121 47.649 99.0873V98.3627C47.8967 98.3751 48.1506 98.3875 48.4107 98.3999C48.6709 98.4122 48.931 98.4184 49.1911 98.4184C49.7237 98.4184 50.2191 98.3999 50.6774 98.3627C51.148 98.3132 51.5816 98.245 51.9779 98.1583V105.906C51.9779 106.414 52.108 106.76 52.3681 106.946C52.6282 107.132 53.0865 107.231 53.7429 107.243V107.968C53.5571 107.956 53.297 107.949 52.9626 107.949C52.6406 107.937 52.2814 107.925 51.885 107.912C51.501 107.9 51.1171 107.894 50.7331 107.894C50.151 107.894 49.5626 107.906 48.9681 107.931C48.386 107.943 47.9463 107.956 47.649 107.968ZM50.6216 96.4491C50.2129 96.4491 49.8475 96.319 49.5255 96.0589C49.2158 95.7988 49.061 95.4458 49.061 94.9999C49.061 94.5416 49.2158 94.1824 49.5255 93.9223C49.8475 93.6622 50.2129 93.5322 50.6216 93.5322C51.0304 93.5322 51.3896 93.6622 51.6992 93.9223C52.0213 94.1824 52.1823 94.5354 52.1823 94.9813C52.1823 95.4396 52.0213 95.7988 51.6992 96.0589C51.3896 96.319 51.0304 96.4491 50.6216 96.4491ZM59.5615 108.228C58.6449 108.228 57.8522 108.03 57.1834 107.634C56.5145 107.225 55.9943 106.649 55.6227 105.906C55.2635 105.15 55.0839 104.258 55.0839 103.23C55.0839 102.165 55.2759 101.249 55.6599 100.481C56.0438 99.7128 56.5888 99.1244 57.2948 98.7157C58.0132 98.307 58.8616 98.1026 59.8401 98.1026C60.5461 98.1026 61.1716 98.2141 61.7166 98.437C62.2616 98.6476 62.6889 98.9448 62.9986 99.3288C63.3082 99.7004 63.463 100.14 63.463 100.648C63.463 101.119 63.3144 101.509 63.0171 101.818C62.7323 102.128 62.3483 102.283 61.8652 102.283C61.5061 102.283 61.215 102.19 60.992 102.004C60.7691 101.818 60.6576 101.577 60.6576 101.28C60.6576 101.007 60.7319 100.772 60.8806 100.574C61.0292 100.375 61.1716 100.196 61.3079 100.035C61.4565 99.8614 61.5308 99.6756 61.5308 99.4774C61.5308 99.2916 61.4255 99.1492 61.215 99.0501C61.0168 98.9386 60.7567 98.8829 60.4347 98.8829C59.5924 98.8829 58.9422 99.2421 58.4839 99.9605C58.0256 100.666 57.7965 101.657 57.7965 102.933C57.7965 104.209 58.0194 105.194 58.4653 105.887C58.9236 106.568 59.5862 106.909 60.4532 106.909C61.023 106.909 61.5184 106.754 61.9396 106.445C62.3607 106.135 62.7137 105.67 62.9986 105.051L63.6488 105.423C63.3144 106.327 62.7942 107.02 62.0882 107.504C61.3822 107.987 60.5399 108.228 59.5615 108.228ZM69.356 108.228C68.3899 108.228 67.6654 107.962 67.1823 107.429C66.6993 106.884 66.4577 106.079 66.4577 105.014V99.0873H64.4326V98.3627H66.4577V95.6688C66.9408 95.6688 67.3929 95.6378 67.814 95.5759C68.2351 95.5139 68.6377 95.4272 69.0216 95.3158V98.3627H71.8085V99.0873H69.0216V105.627C69.0216 106.098 69.1145 106.451 69.3003 106.686C69.4985 106.909 69.7896 107.02 70.1735 107.02C70.5327 107.02 70.8362 106.909 71.0839 106.686C71.3316 106.451 71.536 106.11 71.697 105.664L72.2729 105.906C72.0128 106.711 71.6536 107.299 71.1954 107.671C70.7371 108.042 70.124 108.228 69.356 108.228ZM73.0492 107.968V107.243C73.7056 107.231 74.1639 107.132 74.424 106.946C74.6841 106.76 74.8142 106.414 74.8142 105.906V100.722C74.8142 100.165 74.6841 99.7623 74.424 99.5146C74.1763 99.2545 73.718 99.1121 73.0492 99.0873V98.3627C73.2969 98.3751 73.5508 98.3875 73.8109 98.3999C74.071 98.4122 74.3311 98.4184 74.5912 98.4184C75.1238 98.4184 75.6193 98.3999 76.0776 98.3627C76.5482 98.3132 76.9817 98.245 77.3781 98.1583V105.906C77.3781 106.414 77.5081 106.76 77.7682 106.946C78.0283 107.132 78.4866 107.231 79.1431 107.243V107.968C78.9573 107.956 78.6972 107.949 78.3628 107.949C78.0407 107.937 77.6815 107.925 77.2852 107.912C76.9012 107.9 76.5173 107.894 76.1333 107.894C75.5512 107.894 74.9628 107.906 74.3683 107.931C73.7862 107.943 73.3465 107.956 73.0492 107.968ZM76.0218 96.4491C75.6131 96.4491 75.2477 96.319 74.9257 96.0589C74.616 95.7988 74.4612 95.4458 74.4612 94.9999C74.4612 94.5416 74.616 94.1824 74.9257 93.9223C75.2477 93.6622 75.6131 93.5322 76.0218 93.5322C76.4306 93.5322 76.7898 93.6622 77.0994 93.9223C77.4214 94.1824 77.5825 94.5354 77.5825 94.9813C77.5825 95.4396 77.4214 95.7988 77.0994 96.0589C76.7898 96.319 76.4306 96.4491 76.0218 96.4491ZM85.2589 108.228C84.33 108.228 83.5063 108.049 82.7879 107.689C82.0695 107.318 81.506 106.76 81.0972 106.017C80.6885 105.262 80.4841 104.314 80.4841 103.175C80.4841 102.035 80.6885 101.088 81.0972 100.332C81.506 99.5765 82.0695 99.0192 82.7879 98.66C83.5063 98.2884 84.33 98.1026 85.2589 98.1026C86.2002 98.1026 87.0239 98.2884 87.7299 98.66C88.4359 99.0192 88.9933 99.5765 89.402 100.332C89.8107 101.088 90.0151 102.035 90.0151 103.175C90.0151 104.314 89.8107 105.262 89.402 106.017C88.9933 106.76 88.4359 107.318 87.7299 107.689C87.0239 108.049 86.2002 108.228 85.2589 108.228ZM85.2589 107.504C85.8534 107.504 86.3427 107.163 86.7266 106.482C87.123 105.788 87.3212 104.686 87.3212 103.175C87.3212 101.639 87.123 100.53 86.7266 99.849C86.3427 99.1554 85.8534 98.8086 85.2589 98.8086C84.652 98.8086 84.1565 99.1554 83.7726 99.849C83.3886 100.53 83.1966 101.639 83.1966 103.175C83.1966 104.686 83.3886 105.788 83.7726 106.482C84.1565 107.163 84.652 107.504 85.2589 107.504ZM98.2163 107.968V107.243C98.6745 107.231 98.9842 107.132 99.1452 106.946C99.3186 106.748 99.4053 106.401 99.4053 105.906V101.298C99.4053 100.629 99.2691 100.128 98.9966 99.7933C98.7365 99.4589 98.3463 99.2916 97.8261 99.2916C97.4174 99.2916 97.0396 99.4093 96.6928 99.6446C96.346 99.88 96.0487 100.221 95.801 100.666V99.849C96.1106 99.2916 96.5318 98.8643 97.0644 98.5671C97.6093 98.2574 98.2286 98.1026 98.9223 98.1026C99.9131 98.1026 100.669 98.3999 101.189 98.9944C101.709 99.5765 101.969 100.419 101.969 101.521V105.906C101.969 106.401 102.099 106.748 102.359 106.946C102.619 107.132 103.078 107.231 103.734 107.243V107.968C103.548 107.956 103.288 107.949 102.954 107.949C102.632 107.937 102.273 107.925 101.876 107.912C101.492 107.9 101.115 107.894 100.743 107.894C100.26 107.894 99.7769 107.906 99.2938 107.931C98.8108 107.943 98.4516 107.956 98.2163 107.968ZM91.565 107.968V107.243C92.2338 107.231 92.6921 107.132 92.9398 106.946C93.1999 106.748 93.33 106.401 93.33 105.906V100.722C93.33 100.14 93.1938 99.7314 92.9213 99.496C92.6612 99.2483 92.2091 99.1121 91.565 99.0873V98.3627C91.8251 98.3751 92.0852 98.3875 92.3453 98.3999C92.6054 98.4122 92.8717 98.4184 93.1442 98.4184C93.6768 98.4184 94.1722 98.3999 94.6305 98.3627C95.0888 98.3132 95.5099 98.245 95.8939 98.1583V105.906C95.8939 106.401 95.9806 106.748 96.154 106.946C96.3274 107.132 96.6371 107.231 97.0829 107.243V107.968C96.8228 107.956 96.4698 107.943 96.0239 107.931C95.5781 107.906 95.1136 107.894 94.6305 107.894C94.0855 107.894 93.522 107.906 92.9398 107.931C92.3701 107.943 91.9118 107.956 91.565 107.968Z" fill="#F7FCDB"/>
<path d="M70.5 38C56.9711 38 46 48.9711 46 62.5C46 76.0289 56.9711 87 70.5 87C84.0289 87 95 76.0289 95 62.5C95 48.9711 84.0289 38 70.5 38ZM85.4606 68.3073C85.0584 68.7416 83.5785 68.9025 83.2406 68.5486C81.1011 66.3447 78.3181 66.6504 75.696 66.2804C74.1999 66.0712 73.106 65.1865 72.2052 64.0443C71.7065 63.4169 71.3687 62.4357 70.323 62.8378C69.2613 63.2561 69.2774 64.3017 69.4061 65.2026C70.1139 70.7042 73.1704 75.0476 79.6051 75.0154C80.6507 75.0154 81.7124 74.9993 82.758 75.0476C83.5946 75.0798 83.9002 75.498 83.2406 76.1737C80.8759 78.651 78.0286 80.324 74.6986 81.0801C74.0069 81.241 72.913 80.8066 72.3661 80.2758C70.6287 78.6188 69.0522 76.7689 67.4274 75.0154C67.1057 74.6776 66.8001 74.3398 66.4783 74.002C66.3014 74.0985 66.1405 74.195 65.9796 74.2915C66.3496 76.9137 68.0387 78.9728 69.76 81.4662C68.6822 81.3053 68.0066 81.241 67.3309 81.1123C61.4754 79.9058 57.0194 76.7689 54.6707 71.219C52.3703 65.7978 52.499 60.4892 55.7807 55.2771C58.1454 51.5128 61.2984 49.0033 65.4166 47.652C66.6231 47.2498 66.6875 46.3972 66.8001 45.432C66.8483 45.0942 67.0414 44.7886 67.154 44.4668C67.5079 44.6116 67.9744 44.6599 68.2157 44.9334C69.4705 46.3007 70.693 47.7163 71.8835 49.132C72.8165 50.242 73.5404 50.3867 74.6986 49.5502C77.0955 47.7968 79.4442 46.0112 81.825 44.2416C82.1628 43.9842 82.5328 43.7912 82.9028 43.5499C83.0315 43.6625 83.1441 43.7912 83.2728 43.9038C82.2272 45.239 81.1815 46.5581 80.1359 47.8933C79.1868 49.1159 78.2216 50.3224 77.3047 51.5772C76.7416 52.3332 76.8221 53.0893 77.4816 53.8132C79.6855 56.194 81.825 58.6392 84.1093 60.9557C84.8654 61.7278 86.0558 62.0817 86.8923 62.8056C87.391 63.24 88.0345 64.2052 87.8736 64.5913C87.2623 65.9104 86.458 67.2295 85.4606 68.3073ZM72.9773 54.0062C72.9773 54.698 72.4304 55.2449 71.7387 55.2449C71.0469 55.2449 70.5 54.698 70.5 54.0062C70.5 53.3145 71.0469 52.7676 71.7387 52.7676C72.4143 52.7676 72.9773 53.3306 72.9773 54.0062Z" fill="#FFF7DE"/>
</g>
<defs>
<clipPath id="clip0_6357_20">
<rect width="131" height="170" fill="white"/>
</clipPath>
</defs>
</svg>
