<svg width="90" height="90" viewBox="0 0 90 90" fill="none" xmlns="http://www.w3.org/2000/svg">
<circle cx="45" cy="45" r="45" fill="white"/>
<path d="M45.1194 21C31.2687 21 21 26.4925 21 32.9403V34.6119C21 36.2836 22.4328 37.4776 24.1045 37.7164H30.3134C32.4627 37.7164 33.6567 35.0896 32.9403 32.9403C31.7463 31.2687 32.9403 28.8806 34.8507 28.403C41.5373 26.9701 48.2239 26.9701 55.1493 28.403C57.2985 28.8806 58.2537 31.0299 57.0597 32.9403C56.3433 35.0896 57.5373 37.4776 59.6866 37.7164H65.8955C67.5672 37.7164 69 36.2836 69 34.6119V32.9403C68.7612 26.2537 58.2537 21 45.1194 21Z" fill="#333333"/>
<path d="M57.5374 38.9105C57.0598 38.194 56.3434 37.7164 55.3882 37.7164H52.0449V34.1343C52.0449 33.4179 51.5673 32.9403 50.8509 32.9403H48.4628C47.7464 32.9403 47.2688 33.4179 47.2688 34.1343V37.7164H42.4927V34.1343C42.4927 33.4179 42.0151 32.9403 41.2986 32.9403H38.9106C38.1942 32.9403 37.7165 33.4179 37.7165 34.1343V37.7164H34.3733C33.418 37.7164 32.7016 38.194 32.224 38.9105C28.6419 45.1194 23.3882 53 23.3882 66.3731C23.3882 67.5672 24.3434 68.7612 25.7762 68.7612H63.9852C65.418 68.7612 66.3733 67.5672 66.3733 66.3731C66.3733 53 60.8807 44.6418 57.5374 38.9105ZM44.8807 63.9851C39.627 63.9851 35.3285 59.6866 35.3285 54.4328C35.3285 49.1791 39.627 44.8806 44.8807 44.8806C50.1345 44.8806 54.433 49.1791 54.433 54.4328C54.433 59.6866 50.1345 63.9851 44.8807 63.9851Z" fill="#333333"/>
<path d="M44.8806 59.209C47.5184 59.209 49.6567 57.0706 49.6567 54.4329C49.6567 51.7951 47.5184 49.6567 44.8806 49.6567C42.2428 49.6567 40.1045 51.7951 40.1045 54.4329C40.1045 57.0706 42.2428 59.209 44.8806 59.209Z" fill="#333333"/>
</svg>
