<svg width="90" height="90" viewBox="0 0 90 90" fill="none" xmlns="http://www.w3.org/2000/svg">
<circle cx="45" cy="45" r="45" fill="white"/>
<path d="M63.1969 55.3108L53.167 51.3114L50.8179 49.3327C50.1974 48.8083 49.2812 48.8469 48.7063 49.4194L45.4409 52.6664L42.1661 49.4178C41.5903 48.8469 40.6754 48.8099 40.0555 49.3327L37.7069 51.3114L27.6762 55.3115C24.4465 56.5976 24.4492 68.0355 24.1719 69.0853H66.7062C66.4295 68.0379 66.428 56.5957 63.1969 55.3108Z" fill="#333333"/>
<path d="M33.9531 39.0249L35.8367 39.0201C37.0003 45.0993 41.1294 48.5578 45.4389 48.5578C49.7484 48.5578 52.2523 46.5098 53.9129 42.7338C52.6449 43.7282 50.8028 44.6378 48.2254 44.8255C47.9886 45.1784 47.5861 45.4107 47.1297 45.4107H45.9253C45.1967 45.4107 44.6059 44.82 44.6059 44.0911C44.6059 43.3624 45.1967 42.7717 45.9253 42.7717H47.1297C47.5565 42.7717 47.9347 42.9751 48.176 43.2895C52.3193 42.9569 54.2677 40.4442 55.0446 39.0255L56.9251 39.0249C58.0765 39.0249 59.0097 38.0909 59.0097 36.9399V32.2141C59.0097 31.4762 58.6248 30.829 58.0467 30.4584C57.35 24.6414 51.9622 20.1003 45.4392 20.1003C38.9162 20.1003 33.5284 24.6414 32.8319 30.4584C32.2531 30.829 31.8687 31.4761 31.8687 32.2141V36.9397C31.8681 38.0909 32.8016 39.0249 33.9531 39.0249ZM45.4387 22.4635C50.5727 22.4635 54.8426 25.8493 55.6299 30.2663C55.3841 30.3598 55.1607 30.4977 54.9696 30.6713C53.74 26.7896 50.1876 24.4821 45.439 24.4821C40.6903 24.4821 37.1357 26.788 35.9048 30.6682C35.7143 30.4961 35.4924 30.3591 35.248 30.2663C36.0349 25.8493 40.3048 22.4635 45.4387 22.4635Z" fill="#333333"/>
<path d="M78.0342 56.6722L71.5752 54.097L70.0626 52.8228C69.6633 52.4853 69.0733 52.5102 68.7028 52.8785L66.6002 54.9691L64.4916 52.8776C64.1208 52.5102 63.5316 52.4861 63.1326 52.8228L62.4121 53.4298L63.736 53.9576C66.5888 55.0919 67.4331 60.2994 67.8667 65.5421H80.2939C80.116 64.868 80.1149 57.4998 78.0342 56.6722Z" fill="#333333"/>
<path d="M57.8613 41.7998V44.8429C57.8613 45.5843 58.4623 46.1856 59.2041 46.1856L60.4167 46.1826C61.1661 50.097 63.8248 52.3242 66.5998 52.3242C69.3751 52.3242 70.9871 51.0052 72.0565 48.5741C71.2404 49.2143 70.0536 49.8001 68.3944 49.9209C68.2419 50.1484 67.9829 50.2978 67.6885 50.2978H66.9134C66.4441 50.2978 66.0637 49.9176 66.0637 49.4482C66.0637 48.9789 66.4441 48.5986 66.9134 48.5986H67.6885C67.9635 48.5986 68.2071 48.7295 68.3624 48.932C71.0299 48.7177 72.285 47.0996 72.7852 46.1862L73.9957 46.1858C74.7373 46.1858 75.3383 45.5845 75.3383 44.8431V41.8001C75.3383 41.3249 75.0909 40.9082 74.7179 40.6696C74.2695 36.9238 70.8003 33.9996 66.5997 33.9996C62.3994 33.9996 58.93 36.9238 58.4814 40.6696C58.1089 40.908 57.8613 41.3248 57.8613 41.7998ZM66.5998 35.5212C69.9056 35.5212 72.6553 37.7014 73.1623 40.5456C73.004 40.6059 72.8602 40.6948 72.737 40.8066C71.9451 38.307 69.6575 36.8211 66.5997 36.8211C63.5418 36.8211 61.2529 38.306 60.4607 40.8046C60.3376 40.6937 60.1951 40.6055 60.0378 40.5458C60.5443 37.7013 63.2938 35.5212 66.5998 35.5212Z" fill="#333333"/>
<path d="M27.137 53.9582L28.4621 53.4299L27.7417 52.823C27.3423 52.4854 26.7524 52.5102 26.3819 52.8786L24.2793 54.9693L22.1705 52.8779C21.7997 52.5103 21.2105 52.4865 20.8115 52.8232L19.299 54.0973L12.8401 56.6731C10.7604 57.5011 10.7619 64.8664 10.5835 65.5422H23.0099C23.4425 60.3009 24.2847 55.094 27.137 53.9582Z" fill="#333333"/>
<path d="M16.8831 46.1855L18.0959 46.1824C18.8453 50.0971 21.5041 52.3243 24.2791 52.3243C27.0542 52.3243 28.6664 51.0053 29.7357 48.574C28.9193 49.2142 27.7328 49.7999 26.0735 49.9211C25.921 50.1484 25.6619 50.2977 25.3677 50.2977H24.5924C24.1232 50.2977 23.7429 49.9176 23.7429 49.4481C23.7429 48.979 24.1232 48.5984 24.5924 48.5984H25.3677C25.6426 48.5984 25.8862 48.7295 26.0414 48.9321C28.7094 48.7179 29.9642 47.0998 30.4644 46.1863L31.6752 46.1859C32.4166 46.1859 33.0176 45.5846 33.0176 44.8433V41.8002C33.0176 41.325 32.7701 40.9084 32.3974 40.6697C31.9488 36.9239 28.4795 33.9998 24.2791 33.9998C20.0787 33.9998 16.6093 36.9239 16.1609 40.6697C15.7881 40.9084 15.5405 41.325 15.5405 41.8002V44.8432C15.5405 45.5843 16.1415 46.1855 16.8831 46.1855ZM24.2791 35.5212C27.585 35.5212 30.3345 37.7014 30.8415 40.5456C30.683 40.6059 30.5394 40.6947 30.4162 40.8066C29.6244 38.307 27.337 36.8211 24.2791 36.8211C21.2212 36.8211 18.9324 38.3059 18.1398 40.8045C18.0171 40.6937 17.8743 40.6055 17.717 40.5457C18.2236 37.7013 20.9733 35.5212 24.2791 35.5212Z" fill="#333333"/>
</svg>
