<?xml version="1.0" encoding="utf-8"?>
<!-- Generator: Adobe Illustrator 25.4.1, SVG Export Plug-In . SVG Version: 6.00 Build 0)  -->
<svg version="1.1" id="Layer_1" xmlns="http://www.w3.org/2000/svg" xmlns:xlink="http://www.w3.org/1999/xlink" x="0px" y="0px"
	 viewBox="0 0 393.2 143" style="enable-background:new 0 0 393.2 143;" xml:space="preserve">
<style type="text/css">
	.st0{fill:#264F9B;enable-background:new    ;}
	.st1{fill:#FF9900;enable-background:new    ;}
	.st2{fill:#EF4823;enable-background:new    ;}
	.st3{fill:#151D47;enable-background:new    ;}
</style>
<g>
	<path class="st0" d="M77.1,143.2c-0.4-0.2-0.8-0.4-1.2-0.5c-3.8-0.5-7-2.2-9.6-5c-3.2-3.5-4.5-7.7-3.6-12.4
		c1.1-5.8,4.7-9.5,10-11.5c5-1.8,10.1-1.4,14.7,1.3c3.4,1.9,5.7,4.8,6.8,8.6c2.2,7.7-1.8,15.1-8.9,17.9c-1.3,0.5-2.6,0.7-4,1.1
		c-0.4,0.1-0.8,0.3-1.1,0.5C79.2,143.2,78.2,143.2,77.1,143.2z M78.7,121.7c-3.5-0.1-6.3,2.8-6.3,6.2c0,3.5,2.9,6.3,6.3,6.3
		c3.1,0,6.3-2.7,6.3-6.3C84.9,124.3,81.9,121.6,78.7,121.7z"/>
	<path class="st0" d="M321.1,143.2c-0.4-0.2-0.7-0.4-1.1-0.5c-3.3-0.4-6.1-1.8-8.6-4c-2.1-1.9-3.6-4.2-4.3-7
		c-1.5-6.1,0.2-11.3,5-15.3c2.2-1.8,4.7-2.8,7.5-3.3c3-0.6,6-0.3,8.9,0.7c4.6,1.6,8,4.5,9.6,9.1c2,5.6,0.9,10.6-3.1,15
		c-2.4,2.6-5.5,4.1-9,4.8c-0.6,0.1-1.2,0.3-1.8,0.5C323.1,143.2,322.1,143.2,321.1,143.2z M322.7,134.1c3.4,0.2,6.3-3.1,6.3-6.2
		c0-3.5-2.8-6.2-6.2-6.3c-3.2-0.1-6.4,2.6-6.3,6.3C316.4,131.6,319.6,134.3,322.7,134.1z"/>
	<path class="st0" d="M42.8,143.2c-0.5-0.2-1-0.4-1.5-0.5c-3.4-0.5-6.3-2-8.7-4.4c-3.5-3.4-4.8-7.6-4.2-12.5
		c0.6-4.7,3.2-8.3,7.3-10.7c4-2.3,8.3-2.9,12.8-1.9c5.2,1.2,9.1,4.2,11.1,9.2c2.5,6.3,0.4,13.2-4.9,17.2c-2.2,1.6-4.6,2.6-7.3,3
		c-0.4,0.1-0.9,0.3-1.3,0.5C45,143.2,43.9,143.2,42.8,143.2z M44.4,134.1c3.5,0.2,6.3-2.9,6.3-6.2c0-3.3-2.8-6.1-6.1-6.2
		c-3.4-0.1-6.5,2.6-6.5,6.2C38.1,131.5,41.2,134.2,44.4,134.1z"/>
	<path class="st0" d="M0.1,49.3c0-16,0-32.1,0-48.1c0-0.8,0.2-1,1-1c18.2,0,36.4,0,54.6,0.1c4.6,0,9.1,0.6,13.6,2
		C74.2,3.7,78.6,6,82,10c2.1,2.4,3.5,5.2,4.5,8.3c1.2,4,1.4,8.2,0.8,12.2C86.2,37.4,83,43,76.6,46.3c-1.6,0.8-3.4,1.4-5,2.1
		c-0.3,0.1-0.5,0.4-0.8,0.6c0.2,0.2,0.5,0.5,0.7,0.6c3.7,1.3,7.2,2.8,10.1,5.5c3,2.8,5.3,6.1,6.7,10c1.4,3.9,1.7,7.9,1.3,12
		c-0.8,7.7-4.5,13.4-11.5,17c-3.4,1.7-7,2.7-10.7,3.4c-4.3,0.8-8.6,1-13,1c-17.7,0-35.4,0-53.2,0c-1.2,0-1.2,0-1.2-1.3
		C0.1,81.3,0.1,65.3,0.1,49.3z M33.1,69.3c0,2.4,0,4.8,0,7.3c0,0.7,0.2,1.1,1,1.1c4.8-0.1,9.6,0.3,14.4-0.4c2-0.3,3.7-1.1,4.8-2.9
		c1.2-1.9,1.4-4,1.2-6.2c-0.3-3.1-1.9-5.3-4.9-6.3c-1.8-0.6-3.6-0.8-5.4-0.8c-3.3,0-6.6,0-9.9,0c-1,0-1.2,0.1-1.2,1.2
		C33.1,64.6,33.1,67,33.1,69.3z M33.1,29.5c0,2.3,0,4.7,0,7c0,1.1,0.2,1.3,1.3,1.3c1.5,0,3,0,4.4,0c2.6-0.1,5.3-0.1,7.9-0.4
		c2.6-0.3,4.7-1.5,5.7-4c0.8-1.9,0.9-4,0.5-6c-0.6-2.7-2.1-4.6-4.8-5.3c-1.6-0.4-3.4-0.7-5.1-0.8c-2.9-0.1-5.9,0-8.8,0
		c-1,0-1.2,0.2-1.2,1.2C33.1,24.9,33.1,27.2,33.1,29.5z"/>
	<path class="st0" d="M312.6,98.5c-4.9,0-9.8,0-14.7,0c-1.2,0-1.2,0-1.3-1.1c-0.3-4.9-0.5-9.7-0.8-14.6c-0.3-6.1-0.6-12.2-1-18.2
		c0-0.2-0.2-0.7-0.3-0.7c-0.3,0-0.6,0.1-0.9,0.3c-2.9,2.3-5.8,4.6-8.7,6.8c-3.4,2.7-6.7,5.3-10.1,8c-0.5,0.4-0.9,0.4-1.5,0
		c-4.5-3.4-9-6.9-13.5-10.3c-2.4-1.8-4.8-3.7-7.2-5.5c-0.6-0.5-1-0.3-1.1,0.5c-0.1,1.9-0.2,3.7-0.2,5.6c-0.3,8.3-0.6,16.6-0.9,24.9
		c0,1.1,0,2.2-0.1,3.2c0,1.1,0,1.1-1.1,1.1c-5.9,0-11.8,0-17.7,0c-3.2,0-6.4,0-9.6,0c-1,0-1.1,0-1-1c0.3-8,0.7-15.9,1-23.9
		c0.2-4.5,0.4-9,0.5-13.6c0.3-6.5,0.6-13.1,0.9-19.6c0.2-5,0.4-9.9,0.6-14.9c0.3-6.2,0.6-12.4,0.9-18.7c0.1-1.3,0.1-2.6,0.1-3.9
		c0-0.6,0.2-0.8,0.8-0.8c1.2-0.1,2.1,0.3,3,1c9.5,7.8,19.1,15.5,28.6,23.2c5.4,4.4,10.8,8.7,16.1,13.1c0.7,0.5,1.1,0.2,1.5-0.1
		c2.6-2,5.1-4,7.7-5.9c7.2-5.5,14.3-11.1,21.5-16.6c6.1-4.7,12.2-9.4,18.3-14.1c0.8-0.6,1.7-0.6,2.5-0.5c0.2,0,0.5,0.6,0.5,0.9
		c0.1,2.6,0.1,5.1,0.2,7.7c0.3,8,0.5,16.1,0.8,24.1c0.1,4.3,0.2,8.7,0.4,13c0.3,9.9,0.6,19.8,0.9,29.7c0.2,6.7,0.5,13.5,0.7,20.2
		c0,0.8-0.4,0.8-1,0.8C322.6,98.5,317.6,98.5,312.6,98.5z"/>
	<path class="st0" d="M212.9,99.2c-0.5,0-0.8,0-1.1,0c-11.4,0-22.9,0-34.3,0c-0.8,0-1.2-0.3-1.5-1c-1.5-3.2-3-6.4-4.5-9.7
		c-0.4-0.9-0.9-1.2-1.9-1.2c-8.1,0-16.3,0-24.4,0c-3.2,0-6.3,0-9.5,0c-0.8,0-1.3,0.3-1.6,1c-1.5,3.3-3,6.5-4.5,9.8
		c-0.3,0.7-0.7,1-1.6,1c-11.4,0-22.8,0-34.2,0c-0.3,0-0.7,0-1.2,0c0.2-0.4,0.2-0.7,0.4-0.9c4.7-7.8,9.4-15.5,14.1-23.3
		c5.5-9.2,11-18.3,16.5-27.5c6.6-10.9,13.1-21.8,19.7-32.6c2.5-4.2,5-8.3,7.5-12.5c0.3-0.5,0.6-0.7,1.2-0.7c2.3,0,2.2,0,3.4,2
		c3.3,5.5,6.6,10.9,9.8,16.3c3.3,5.5,6.6,11,10,16.5c3.3,5.5,6.6,11,9.9,16.5c3.5,5.9,7,11.7,10.6,17.6c3.1,5.2,6.3,10.4,9.5,15.6
		c2.5,4.1,4.9,8.2,7.4,12.2C212.7,98.5,212.8,98.8,212.9,99.2z M152.8,67.4c2.6,0,5.2,0,7.8,0c0.8,0,1-0.3,0.7-1.1
		c-2.6-5.6-5.3-11.2-7.9-16.8c-0.1-0.2-0.3-0.4-0.5-0.6c-0.2,0.2-0.5,0.4-0.7,0.6c-1,2.2-2.1,4.4-3.1,6.7c-1.5,3.3-3,6.6-4.6,9.9
		c-0.5,1-0.3,1.3,0.8,1.3C147.7,67.4,150.3,67.4,152.8,67.4z"/>
	<path class="st0" d="M353.8,0c5.7,0,11.5,0,17.2,0c1.2,0,1.2,0,1,1.2c-0.6,3.6-1.2,7.3-1.8,10.9c-0.6,3.4-1.1,6.8-1.7,10.2
		c-0.4,2.3-0.8,4.6-1.2,6.9c-0.4,2.4-0.8,4.9-1.2,7.3c-0.4,2.2-0.8,4.5-1.2,6.7c-0.4,2.4-0.8,4.9-1.2,7.3c-0.4,2.3-0.8,4.6-1.2,6.9
		c-0.4,2.5-0.8,5-1.3,7.6c-0.4,2.3-0.8,4.7-1.2,7c-0.1,0.6-0.2,1.1-0.2,1.7c0,0.5-0.3,0.8-0.8,0.8c-3.6,0-7.3,0-10.9,0
		c-0.6,0-0.8-0.3-0.9-0.8c-0.2-1.2-0.4-2.4-0.6-3.6c-0.4-2.5-0.7-5-1.1-7.4c-0.4-2.6-0.9-5.1-1.3-7.6c-0.4-2.4-0.7-4.8-1.1-7.3
		c-0.4-2.6-0.9-5.3-1.3-7.9c-0.4-2.4-0.7-4.7-1.1-7.1c-0.4-2.6-0.8-5.2-1.2-7.7c-0.2-1.5-0.5-3.1-0.7-4.6c-0.4-2.5-0.8-5-1.2-7.6
		c-0.4-2.5-0.8-5.1-1.2-7.7c-0.2-1.4-0.4-2.8-0.6-4.1c-0.2-1-0.1-1,0.8-1C342.2,0,348,0,353.8,0z"/>
	<path class="st0" d="M0,127.5c0-4.5,0-9.1,0-13.6c0-0.5,0.2-0.6,0.7-0.6c1.2,0,2.4,0,3.6,0c4.2,0,8.5,0,12.7,0.1
		c2.3,0.1,4.5,0.4,6.4,1.8c1.8,1.3,2.7,3,2.8,5.2c0,1.3-0.1,2.5-0.6,3.7c-0.7,1.5-1.9,2.4-3.4,2.9c-0.3,0.1-0.5,0.3-0.8,0.5
		c0.3,0.2,0.5,0.6,0.8,0.7c1.6,0.6,2.8,1.5,3.7,3c1.9,3.3,1.4,8.7-4,10.1c-2.1,0.6-4.3,0.7-6.5,0.7c-4.8,0-9.6,0-14.4,0
		c-1,0-1-0.1-1-1.1C0,136.4,0,131.9,0,127.5C0,127.5,0,127.5,0,127.5z M12.3,130.8c0,0,0,0.1,0,0.1c-0.6,0-1.2,0-1.9,0
		c-0.5,0-0.8,0.3-0.8,0.8c0,1.2,0,2.4,0,3.5c0,0.5,0.3,0.8,0.8,0.8c1.3,0,2.5,0,3.8-0.1c1.2-0.1,2-0.9,2.1-2
		c0.2-1.2-0.3-2.2-1.4-2.6C14.2,131,13.2,130.9,12.3,130.8z M12.1,119.1c0,0.1,0,0.1,0,0.2c-0.6,0-1.1-0.1-1.7,0
		c-0.3,0.1-0.7,0.4-0.7,0.7c-0.1,1.2,0,2.4,0,3.6c0,0.5,0.2,0.8,0.7,0.8c1.2,0,2.4,0,3.6-0.1c1.1-0.1,1.9-1,2-2.1
		c0.1-1-0.4-2.1-1.4-2.5C13.9,119.3,13,119.3,12.1,119.1z"/>
	<path class="st0" d="M371.7,128c0,4.6,0,9.1,0,13.7c0,0.3-0.2,0.6-0.2,0.9c-0.3-0.1-0.6-0.1-0.9-0.3c-5.7-3.5-11.5-6.9-17.2-10.4
		c-0.3-0.2-0.6-0.4-0.9-0.5c-0.7-0.3-0.9-0.2-0.9,0.5c0,1.3,0,2.7,0,4c0,1.7,0,3.5,0,5.2c0,0.6-0.2,0.9-0.9,0.9c-2.6,0-5.3,0-7.9,0
		c-0.7,0-0.9-0.2-0.9-0.9c0-9,0-18.1,0-27.1c0-1,0.4-1.2,1.4-0.6c1.9,1.2,3.9,2.4,5.8,3.6c4,2.5,8,4.9,12,7.3c0.7,0.4,1,0.2,1-0.7
		c0-3.1,0-6.3,0-9.4c0-0.7,0.2-0.9,0.9-0.9c2.6,0,5.3,0,7.9,0c0.7,0,1,0.3,1,1C371.7,118.8,371.7,123.4,371.7,128z"/>
	<path class="st0" d="M233.4,127.5c0.1,4.5,0.2,9.1,0.4,13.6c0,0.6-0.2,0.8-0.7,0.8c-2.6,0-5.2,0-7.9,0c-0.7,0-0.8-0.5-0.8-1
		c-0.1-2.4-0.2-4.7-0.4-7.1c0-0.5,0-0.9-0.1-1.4c0-0.3-0.1-0.7-0.3-0.7c-0.2-0.1-0.6,0.1-0.8,0.2c-1.6,1.2-3.1,2.4-4.6,3.7
		c-0.5,0.4-0.9,0.4-1.4,0c-1.7-1.4-3.5-2.7-5.2-4c-0.6-0.5-1-0.3-1.1,0.5c-0.1,2.7-0.2,5.5-0.3,8.2c0,1.6,0,1.6-1.6,1.6
		c-2.1,0-4.1,0-6.2,0c-0.8,0-1-0.3-0.9-1c0.3-6.5,0.5-13,0.8-19.5c0.1-2.4,0.3-4.9,0.4-7.3c0-0.3,0.1-0.7,0.2-1
		c0.3,0.1,0.7,0.2,1,0.4c2,1.6,4,3.2,6,4.8c2.3,1.9,4.7,3.7,7,5.7c0.7,0.6,1.1,0.2,1.5-0.2c2.6-2,5.2-4,7.7-6c1.9-1.5,3.8-3,5.8-4.4
		c0.2-0.2,0.6-0.2,0.9-0.3c0.1,0.3,0.2,0.6,0.2,0.8C233.1,118.4,233.2,123,233.4,127.5C233.3,127.5,233.3,127.5,233.4,127.5z"/>
	<path class="st0" d="M125.6,113.3c-0.9,1.3-1.7,2.5-2.4,3.7c-2,3-4,5.9-5.9,8.9c-0.2,0.3-0.1,0.8,0.1,1.1c3,4.7,6,9.3,9,14
		c0.1,0.2,0.2,0.5,0.3,0.7c-0.2,0.1-0.5,0.2-0.7,0.2c-3.3,0-6.5,0-9.8,0c-0.6,0-1-0.2-1.3-0.7c-2.2-3.5-4.5-7-6.8-10.4
		c0-0.1-0.1-0.2-0.1-0.2c-0.3-0.2-0.5-0.4-0.8-0.6c-0.1,0.3-0.2,0.6-0.2,0.9c0,3.4,0,6.7,0,10.1c0,0.7-0.2,0.9-0.9,0.9
		c-2.6,0-5.2,0-7.8,0c-0.7,0-0.9-0.3-0.9-0.9c0-9,0-17.9,0-26.9c0-0.5,0.2-0.8,0.7-0.8c2.7,0,5.4,0,8.2,0c0.6,0,0.8,0.2,0.8,0.8
		c0,3.3,0,6.5,0,9.8c0,0.3,0.1,0.7,0.2,1c0.3-0.2,0.7-0.4,0.9-0.7c2.1-3.3,4.2-6.5,6.3-9.8c0.5-0.9,1.1-1.2,2.1-1.2
		c2.7,0.1,5.4,0,8.2,0C124.8,113.3,125.1,113.3,125.6,113.3z"/>
	<path class="st0" d="M138.7,112.7c3,0,5.6,0.4,8,1.9c1.4,0.9,2.2,2.3,2.7,3.8c0.1,0.2-0.2,0.6-0.4,0.7c-1.8,0.7-3.6,1.4-5.4,2.1
		c-0.5,0.2-0.8-0.1-1-0.5c-0.9-2.3-4-2.4-5.5-1.6c-1,0.5-1.4,1.2-1.2,2.1c0.1,0.8,0.9,1.6,1.9,1.8c1,0.2,2.1,0.3,3.1,0.4
		c2.3,0.2,4.6,0.6,6.5,2c2,1.5,2.9,3.5,3.1,5.9c0.4,5.7-3.5,9.7-8.4,11c-3.9,1-7.6,0.7-11.3-1.1c-2-0.9-3.3-2.4-4.1-4.4
		c-0.1-0.2,0.1-0.6,0.3-0.6c2-0.8,4-1.5,6-2.3c0.2-0.1,0.5,0.2,0.7,0.3c0.5,0.5,0.9,1.1,1.5,1.6c1.4,1.1,3.4,1.2,4.9,0.3
		c0.7-0.4,1.1-1,1-1.8c0-0.8-0.4-1.5-1.2-1.7c-0.9-0.3-1.9-0.5-2.8-0.5c-2.4-0.2-4.6-0.6-6.7-1.9c-2.1-1.4-3.2-3.4-3.5-5.8
		c-0.4-3.7,0.8-6.8,3.8-9.1c1.7-1.4,3.8-1.9,5.9-2.2C137.4,112.7,138.2,112.7,138.7,112.7z"/>
	<path class="st0" d="M194,142.1c-0.6,0-1,0-1.4,0c-2.8,0-5.7,0-8.5,0c-0.7,0-1.1-0.2-1.4-0.9c-0.3-0.7-0.6-1.4-1-2
		c-0.2-0.3-0.6-0.6-1-0.6c-3.3,0-6.5-0.1-9.8,0c-0.4,0-0.9,0.4-1.1,0.8c-0.4,0.7-0.7,1.5-1.1,2.2c-0.1,0.3-0.5,0.5-0.8,0.6
		c-3.2,0-6.5,0-9.7,0c-0.1,0-0.2,0-0.4-0.1c0.1-0.2,0.2-0.4,0.3-0.6c5.6-9.3,11.2-18.6,16.8-27.9c0.6-1,1.1-1,1.7,0
		c5.5,9.1,11,18.3,16.5,27.4C193.5,141.2,193.7,141.6,194,142.1z M175.9,132.7C175.9,132.7,175.9,132.7,175.9,132.7
		c0.6,0,1.1,0,1.7,0c1,0,1.2-0.3,0.7-1.2c-0.6-1.2-1.2-2.5-1.8-3.7c-0.1-0.2-0.3-0.4-0.5-0.7c-0.2,0.2-0.6,0.4-0.7,0.6
		c-0.7,1.3-1.3,2.7-1.9,4.1c-0.2,0.5-0.1,0.9,0.5,0.9C174.6,132.7,175.3,132.7,175.9,132.7z"/>
	<path class="st0" d="M251.3,127.6c0-4.4,0-8.9,0-13.3c0-0.8,0.2-1,1-1c2.6,0,5.2,0,7.8,0c0.7,0,1,0.2,1,1c0,6.7,0,13.4,0,20.1
		c0,1.2,0.1,1.3,1.3,1.3c2.2,0,4.5,0,6.7,0c0.7,0,0.9,0.2,0.9,0.9c-0.1,1.5,0,3,0,4.5c0,0.7-0.2,0.9-0.9,0.9c-5.6,0-11.2,0-16.8,0
		c-0.8,0-0.9-0.3-0.9-1C251.3,136.5,251.3,132,251.3,127.6z"/>
	<path class="st0" d="M272.3,127.6c0-4.4,0-8.9,0-13.3c0-0.7,0.2-1,1-1c2.6,0,5.2,0,7.8,0c0.7,0,1,0.2,1,1c0,6.7,0,13.4,0,20.1
		c0,1.3,0,1.3,1.3,1.3c2.2,0,4.4,0,6.6,0c0.7,0,0.9,0.2,0.9,0.9c0,1.5,0,3,0,4.5c0,0.6-0.2,0.9-0.9,0.9c-5.6,0-11.2,0-16.8,0
		c-0.8,0-0.9-0.4-0.9-1.1C272.4,136.4,272.3,132,272.3,127.6z"/>
	<path class="st0" d="M353.9,102c-5.5,0.1-10-4.5-10-10.1c0-5.6,4.5-10.1,10.2-10.1c5.7,0,10.2,4.6,10,10.4
		C364,97.5,359.7,102.1,353.9,102z"/>
	<path class="st0" d="M237.7,127.4c0-4.5,0-9,0-13.4c0-0.6,0.2-0.7,0.8-0.7c2.7,0,5.4,0,8.1,0c0.6,0,0.9,0.2,0.9,0.9
		c0,8.9,0,17.8,0,26.8c0,0.7-0.3,1-1,1c-2.6,0-5.1,0-7.7,0c-1,0-1.1,0-1.1-1C237.7,136.4,237.7,131.9,237.7,127.4
		C237.7,127.4,237.7,127.4,237.7,127.4z"/>
	<path class="st0" d="M303.5,127.6c0,4.4,0,8.8,0,13.3c0,1,0,1-1,1c-2.5,0-5.1,0-7.6,0c-1,0-1.1-0.1-1.1-1c0-8.9,0-17.7,0-26.6
		c0-0.7,0.2-1,1-1c2.6,0,5.3,0,7.9,0c0.7,0,0.9,0.2,0.9,0.9C303.5,118.6,303.5,123.1,303.5,127.6z"/>
	<path class="st0" d="M195.7,132.4c-2.4,0-4.1-1.9-4.1-4.3c0-2.3,1.9-4.1,4.3-4c2.3,0,4.2,1.9,4.1,4.2
		C199.9,130.6,197.9,132.6,195.7,132.4z"/>
	<path class="st0" d="M156.7,132.4c-2.4,0-4.2-1.8-4.2-4.1c0-2.3,1.8-4.1,4.2-4.1c2.4,0,4.1,1.7,4.2,4.1
		C160.8,130.6,159,132.4,156.7,132.4z"/>
	<path class="st0" d="M383.5,0.7c2.3,0,4.2,1.8,4.2,4.1c0,2.3-1.9,4.2-4.2,4.2c-2.3,0-4.1-1.8-4.1-4.2
		C379.4,2.6,381.2,0.7,383.5,0.7z M379.8,4.9c0,2,1.7,3.8,3.6,3.8c2.1,0,3.8-1.7,3.8-3.8c0-2-1.7-3.7-3.7-3.7
		C381.5,1.1,379.8,2.8,379.8,4.9z"/>
</g>
<path class="st0" d="M384.9,7.7c-0.5-0.7-0.9-1.4-1.4-2.2c0.3-0.1,0.6-0.2,0.8-0.3c0.2-0.2,0.6-0.6,0.5-0.8c0-0.3-0.4-0.7-0.6-0.8
	c-0.5-0.1-1.2-0.1-1.5,0.2c-0.2,0.2-0.1,0.9-0.1,1.4c0,0.1,0.1,0.3,0.1,0.4c-0.1,0.7-0.3,1.4-0.5,2.3c-0.1-0.3-0.2-0.5-0.2-0.7
	c0-1.1,0-2.2,0-3.2c0-0.5,0.2-0.7,0.7-0.7c0.5,0,1.1-0.1,1.5,0.1c0.4,0.2,0.9,0.6,1,0.9c0.1,0.3-0.2,0.9-0.5,1.1
	c-0.6,0.4-0.6,0.8-0.2,1.3c0.2,0.3,0.4,0.6,0.6,0.9C385.1,7.6,385,7.6,384.9,7.7z"/>
</svg>
