<?xml version="1.0" encoding="utf-8"?>
<!-- Generator: Adobe Illustrator 25.4.1, SVG Export Plug-In . SVG Version: 6.00 Build 0)  -->
<svg version="1.1" id="Layer_1" xmlns="http://www.w3.org/2000/svg" xmlns:xlink="http://www.w3.org/1999/xlink" x="0px" y="0px"
	 viewBox="0 0 477.7 143.3" style="enable-background:new 0 0 477.7 143.3;" xml:space="preserve">
<style type="text/css">
	.st0{fill:#264F9B;enable-background:new    ;}
	.st1{fill:#FF9900;enable-background:new    ;}
	.st2{fill:#EF4823;enable-background:new    ;}
	.st3{fill:#151D47;enable-background:new    ;}
</style>
<g>
	<path d="M101.1,14.5c0.2-0.4,0.4-0.8,0.5-1.1c1.1-2.6,2.5-4.9,4.5-7c3.2-3.3,7.1-5,11.7-5.5c3.3-0.3,6.5-0.2,9.6,0.9
		c4.2,1.4,7.2,4.3,9.6,8c0.8,1.2,1.4,2.5,2.1,3.8c0.2,0.3,0.3,0.5,0.6,1c0.2-0.4,0.4-0.7,0.5-1c3.1-7.1,8.5-11.3,16.2-12.5
		c6.2-1,12,0.3,17.1,4.1c3.7,2.8,5.9,6.5,6.7,11c0.4,2.4,0.7,4.9,0.7,7.4c0,18.8,0,37.7,0,56.5c0,2.2-1.1,3.3-3.2,3.3
		c-4.6,0-9.2,0-13.8,0c-2.1,0-3.2-1.1-3.2-3.1c0-4.3,0-8.5,0-12.8c0-11.1,0.1-22.1,0-33.2c0-2.3-0.1-4.6-0.3-6.8
		c-0.1-1-0.4-2-0.7-2.9c-1-2.6-3-4.1-5.7-4.6c-3.9-0.7-7.1,0.4-9.7,3.4c-1.6,1.9-2.3,4.2-2.5,6.6c-0.3,2.7-0.4,5.5-0.4,8.2
		c0,13.8-0.1,27.5,0,41.3c0,3.2-1.6,4-4,3.9c-4.2-0.1-8.5,0-12.7,0c-0.6,0-1.2,0-1.7-0.2c-1.1-0.3-1.7-1.1-1.8-2.3c0-0.5,0-1,0-1.5
		c0-14.9,0-29.8,0-44.7c0-2.5-0.1-5.1-0.7-7.5c-0.2-1-0.6-2.1-1-3.1c-1.3-2.8-3.5-4.3-6.6-4.5c-1.2-0.1-2.5,0-3.7,0.3
		c-2.3,0.5-4,1.9-5.2,4c-1.1,2-1.7,4.2-1.9,6.5c-0.2,2.7-0.4,5.5-0.4,8.2c0,13.6-0.1,27.3,0,40.9c0,3.1-1.5,3.9-3.9,3.9
		c-4.3-0.1-8.6,0-12.8,0c-0.6,0-1.3-0.1-1.8-0.3c-1-0.3-1.5-1.1-1.6-2.1c0-0.4,0-0.8,0-1.2c0-24.5,0-49,0-73.5
		c0-2.7,1.1-3.8,3.8-3.8c4,0.1,8.1,0,12.1,0c0.6,0,1.2,0,1.7,0.2c1.2,0.5,1.6,1.4,1.6,2.7c0,2.6,0,5.2,0,7.8c0,0.4,0,0.9,0.1,1.3
		C100.9,14.4,101,14.4,101.1,14.5z"/>
	<path d="M46.5,73.6c-0.5,0.5-0.8,0.8-1.2,1.1c-2.1,2-4.2,3.9-6.6,5.4c-3,1.9-6.3,3.2-9.8,3.7c-4,0.6-8,0.8-12,0
		C8.7,82.1,3.3,77.3,1.1,69.2c-1.6-5.6-1.4-11.3,0.4-16.9c2-6.1,6-10.5,11.5-13.7c3.3-1.9,6.8-3,10.5-3.8c6.2-1.4,12.5-1.9,18.7-2.6
		c1.4-0.2,1.4-0.1,1.4-1.6c0-2,0-4-0.1-6c-0.1-0.9-0.2-1.9-0.5-2.8c-1-3.3-3.3-5.2-6.6-6c-3.7-0.8-7.2-0.3-10.4,1.8
		c-2.2,1.4-3.6,3.5-4.3,6.1c-0.1,0.5-0.3,1.1-0.5,1.5c-0.5,1.3-1.4,1.9-2.7,1.7c-4.5-0.4-8.9-0.9-13.4-1.4c-0.2,0-0.3-0.1-0.5-0.1
		C3,25.2,2.3,24,2.6,22.4C4.4,13.1,9.7,6.7,18.4,3.2C26.5-0.2,35-0.7,43.6,0.8c4,0.7,7.9,2,11.3,4.3c4.8,3.1,7.8,7.6,8.7,13.2
		c0.5,2.9,0.7,5.8,0.7,8.7c0.1,9.5,0,18.9,0,28.4c0,1.8,0.1,3.6,0.6,5.4c0.6,2.2,1.7,4.2,3,6.1c0.6,0.8,1.1,1.5,1.7,2.3
		c0.3,0.4,0.5,0.8,0.7,1.2c0.6,1.3,0.4,2.2-0.6,3.1c-0.9,0.8-1.8,1.6-2.7,2.4c-2.4,2.1-4.8,4.2-7.2,6.3c-0.4,0.3-0.7,0.7-1.2,0.9
		c-1.5,1.1-2.8,1-4.3-0.2c-2.6-2.2-4.8-4.8-6.7-7.7C47.3,74.7,47,74.2,46.5,73.6z M43.6,49.6c0-1.5,0-3.1,0-4.6c0-1-0.1-1.1-1.1-1.1
		c-4.1,0.1-8.1,0.4-12,1.8c-2.9,1.1-5.5,2.7-7.1,5.5c-2.4,4.3-2.6,8.9-0.6,13.4c1.1,2.6,3.1,4.1,5.9,4.7c3,0.6,5.8-0.2,8.2-2
		c3.1-2.3,4.8-5.5,5.8-9.1C43.5,55.4,43.6,52.5,43.6,49.6z"/>
	<path d="M240.3,73.6c-0.6,0.6-1,0.9-1.3,1.3c-2.5,2.4-5.2,4.7-8.3,6.3c-2.8,1.5-5.7,2.4-8.9,2.7c-3.8,0.4-7.5,0.6-11.3-0.2
		c-7.4-1.6-12.7-5.7-15.1-12.9c-2.3-6.8-2.2-13.6,0.6-20.3c2.4-5.8,6.6-9.8,12.2-12.6c4-2,8.2-3.1,12.6-3.8
		c5.2-0.8,10.4-1.3,15.6-1.9c0.6-0.1,1.1-0.1,1.1-0.9c-0.1-2.7,0-5.4-0.3-8.1c-0.5-4-2.9-6.4-6.8-7.4c-3.5-0.8-6.9-0.4-10.1,1.5
		c-2.3,1.4-3.8,3.5-4.6,6.1c-0.2,0.7-0.4,1.4-0.7,2.1c-0.5,1-1.4,1.5-2.5,1.4c-4.5-0.5-8.9-1-13.4-1.4c-2.1-0.2-3-1.8-2.5-3.7
		c0.9-3.6,2.2-7,4.4-10.1c2.7-3.8,6.4-6.5,10.6-8.4c4.8-2.1,9.9-3.1,15.1-3.4c5.7-0.3,11.4,0.3,16.8,2.3c4.7,1.7,8.6,4.4,11.4,8.7
		c2.1,3.3,3,7,3.2,10.8c0.2,2.7,0.2,5.4,0.2,8.1c0,8.4,0,16.8,0,25.2c0,2.9,0.3,5.7,1.7,8.3c0.9,1.7,2.1,3.3,3.2,5
		c0.3,0.5,0.7,0.9,1,1.4c0.8,1.4,0.6,2.5-0.6,3.6c-3.5,3.1-7.1,6.1-10.6,9.2c-0.5,0.4-1.1,0.8-1.7,1c-1,0.3-1.9,0-2.8-0.7
		c-2.4-2-4.6-4.3-6.3-7C241.5,75.2,240.9,74.5,240.3,73.6z M237.3,44c-0.2,0-0.4-0.1-0.6-0.1c-3.8,0-7.5,0.3-11.2,1.5
		c-2.7,0.8-5.1,2.1-7.1,4.2c-3.8,4.1-3.9,11.6-1.6,15.7c1.3,2.2,3.1,3.6,5.6,4.1c3.6,0.7,6.6-0.5,9.2-2.9c3-2.8,4.6-6.4,5.2-10.5
		c0.6-3.8,0.3-7.6,0.4-11.4C237.4,44.4,237.3,44.2,237.3,44z"/>
	<path d="M436.5,15.8c0.2-0.4,0.4-0.7,0.5-1.1c1.2-2.7,2.6-5.4,4.6-7.7c3.1-3.7,7.2-5.7,12-6.2c3.2-0.3,6.4-0.2,9.5,0.7
		c6.3,1.9,10.5,6,12.6,12.2c1.6,4.6,1.9,9.4,1.9,14.2c0.1,14.7,0,29.4,0.1,44c0,2.7-0.1,5.4,0,8.1c0.1,2.1-1.5,3.2-3.1,3.2
		c-2.5,0-5,0-7.5,0c-2.1,0-4.2,0-6.4,0c-0.6,0-1.2-0.1-1.7-0.3c-0.9-0.4-1.5-1.2-1.5-2.2c0-0.4,0-0.8,0-1.2c0-15.1,0-30.3,0-45.4
		c0-2.9-0.2-5.8-1.1-8.6c-0.1-0.3-0.2-0.5-0.3-0.8c-2.2-6.3-9.6-6.5-13.4-3.4c-2,1.7-3.1,3.8-3.9,6.2c-1,3-1.5,6.1-1.5,9.3
		c0,10.7,0,21.4,0,32.1c0,3.6-0.1,7.3,0,10.9c0,1.9-1,3.5-3.5,3.5c-4.5,0-9,0-13.4,0c-0.5,0-1.1-0.1-1.6-0.3c-1-0.4-1.6-1.1-1.7-2.2
		c0-0.5,0-0.9,0-1.4c0-24.5,0-49,0-73.5c0-0.3,0-0.7,0-1c0.1-1.4,1-2.4,2.4-2.5c0.3,0,0.6,0,0.9,0c4.2,0,8.4,0,12.6,0
		c0.2,0,0.5,0,0.7,0c1.2,0,2.5,1.3,2.5,2.6c-0.1,3.1,0,6.3,0,9.5c0,0.4,0,0.8,0,1.2C436.3,15.7,436.4,15.7,436.5,15.8z"/>
	<path d="M338.9,42.4c-0.1-6.4,0.9-12.9,3.1-19.2c2.1-5.8,5.2-11,9.8-15.2c4.9-4.4,10.7-6.7,17.2-7.2c4.4-0.4,8.8,0,13,1.3
		c7,2.2,12.4,6.6,16.3,12.7c2.9,4.4,4.7,9.2,5.9,14.3c1.6,7.1,2,14.3,1.1,21.5c-0.9,7.1-3,13.8-7.1,19.8
		c-4.9,7.3-11.6,12.2-20.4,13.7c-9.4,1.6-18.1-0.2-25.6-6.5c-4.7-3.9-7.8-9-10-14.7C339.9,56.6,338.9,49.7,338.9,42.4z M384.2,41.7
		c-0.1-1.8-0.2-5-0.4-8.2c-0.1-1.7-0.4-3.5-0.7-5.2c-0.4-2.2-0.9-4.5-1.8-6.6c-0.9-2.1-2.3-3.9-4.5-4.8c-4.5-1.8-10.3-1.2-13.2,4.7
		c-1.5,3-2.1,6.2-2.5,9.6c-0.5,4.3-0.4,8.6-0.4,12.9c0,4.9,0.3,9.8,1.5,14.6c0.7,2.6,1.5,5.2,3.3,7.3c2.4,3,5.5,3.8,9.1,3
		c3.2-0.7,5.2-2.9,6.6-5.7c1.2-2.5,1.9-5.2,2.3-8C384.1,51.3,384.2,47.3,384.2,41.7z"/>
	<path class="st1" d="M215.8,141.8c-0.2,0-0.4-0.1-0.6,0c-1.6,0.6-3.3,0.5-5,0.7c-0.6,0-1.2,0-1.7,0c-0.2,0-0.5-0.1-0.7,0
		c-2.9,0.8-5.9,0.6-8.9,0.6c-0.4,0-0.7,0-1.1-0.1c-0.9-0.2-1.7-0.1-2.6,0.1c-0.8,0.2-1.7,0.1-2.6,0c-1,0-2-0.2-3-0.2
		c-2.6,0-5.1,0-7.7-0.1c-1.1,0-2.2-0.4-3.3-0.5c-1.3-0.1-2.6,0-3.8-0.1c-1.2-0.1-2.3-0.3-3.4-0.5c-1-0.1-2.1-0.2-3.1-0.3
		c-0.4,0-0.7,0-1.1-0.1c-1.1-0.2-2.1-0.3-3.2-0.5c-2.4-0.4-4.9-0.9-7.3-1.4c-2.7-0.5-5.4-1.1-8-1.7c-4.9-1.1-9.7-2.5-14.5-4.1
		c-5.8-1.9-11.6-4.1-17.2-6.6c-7.9-3.5-15.5-7.6-22.8-12.2c-5.8-3.6-11.3-7.5-16.6-11.8c-2.9-2.4-5.8-4.9-8.6-7.3
		c-0.7-0.6-1.2-1.2-1.2-2.2c0-0.9,0.5-1.4,1.3-1.5c0.8-0.1,1.5,0.1,2.3,0.5c3,1.7,6.1,3.4,9.2,5c5.1,2.5,10.1,5,15.3,7.2
		c4.7,2,9.4,3.9,14.2,5.7c4.9,1.8,9.8,3.3,14.8,4.8c4.3,1.3,8.6,2.4,13,3.5c1.9,0.5,3.8,1,5.8,1.4c1.9,0.4,3.8,0.6,5.7,1
		c2,0.4,4,0.8,6,1.2c0.5,0.1,1.1,0.1,1.6,0.2c1.1,0.2,2.3,0.5,3.4,0.7c0.9,0.1,1.9,0.1,2.8,0.2c0.4,0,0.8,0,1.1,0.1
		c1.7,0.5,3.5,0.5,5.3,0.6c0.4,0,0.8,0,1.1,0.1c2.2,0.5,4.5,0.5,6.8,0.6c1.7,0.1,3.4,0.4,5.2,0.6c0.6,0.1,1.2,0,1.9,0
		c0.8,0,1.6,0.1,2.3,0.1c0.2,0,0.5,0.1,0.7,0.1c5.5,0,11-0.1,16.6-0.1c0.8,0,1.6,0.1,2.4-0.2c0.1-0.1,0.3-0.1,0.5,0
		c3.2,0.4,6.2-0.6,9.4-0.6c1.8,0,3.6-0.2,5.4-0.5c1.3-0.3,2.6-0.2,4-0.3c0.2,0,0.5,0,0.7-0.1c1.6-0.2,3.2-0.4,4.8-0.7
		c0.3,0,0.6-0.1,0.8-0.2c0.7-0.1,1.5-0.3,2.2-0.4c2.2-0.3,4.3-0.6,6.5-1c2-0.4,4-0.9,6.1-1.3c3.9-0.7,7.7-1.7,11.4-2.7
		c5.4-1.5,10.7-3,16-4.7c5.1-1.7,10.1-3.7,15.2-5.6c1-0.4,1.9-0.8,2.9-1.1c0.9-0.3,1.9-0.4,2.8-0.4c1.3,0,2.3,0.7,2.8,2
		c0.5,1.2,0.2,2.3-0.7,3.2c-0.9,0.9-1.9,1.6-2.9,2.4c-6.6,4.7-13.7,8.7-21,12.1c-5,2.4-10.1,4.6-15.4,6.3c-4.4,1.5-8.8,2.9-13.3,4.2
		c-2.5,0.8-5.1,1.4-7.7,1.9c-2.5,0.6-4.9,1-7.4,1.5c-2.4,0.5-4.8,0.9-7.2,1.3c-1.9,0.3-3.8,0.6-5.6,0.8
		C216.3,141.9,216.1,141.8,215.8,141.8z"/>
	<path d="M304,18.3c-0.5,0-1,0-1.5,0c-7.5,0-14.9,0-22.4,0c-0.4,0-0.7,0-1.1,0c-1.8-0.1-2.8-1.1-2.8-2.8c0-3.5,0-7,0-10.6
		c0-1.7,1-2.7,2.8-2.8c0.3,0,0.7,0,1,0c15.4,0,30.8,0,46.2,0c0.3,0,0.6,0,0.9,0c2.2,0,3.2,1,3.2,3.2c0,1.9,0,3.9,0,5.8
		c0,4.3-0.1,4.6-2.6,8.2c-8.3,11.8-16.6,23.6-24.9,35.4c-0.4,0.6-0.8,1.1-1.3,1.9c0.5,0.1,0.8,0.1,1.1,0.2c2.9,0.1,5.7,0.2,8.6,0.4
		c6.1,0.6,12,2.3,17.4,5.2c2.1,1.1,3.1,2.8,3.1,5.2c0,3.4,0,6.8,0,10.2c0,0.4,0,0.8-0.1,1.1c-0.4,1.8-1.9,2.6-3.7,1.9
		c-2.6-1.1-5.2-2.4-7.9-3.3c-7-2.3-14.2-3.2-21.6-2.6c-7.5,0.6-14.5,2.5-21.2,5.9c-1.7,0.9-3.4,0.1-3.7-1.9c-0.1-0.3-0.1-0.7-0.1-1
		c0-3.6,0-7.3,0-10.9c0-1.1,0.1-2.2,0.3-3.3c0.3-1.5,1-2.9,1.9-4.2c9.2-13.2,18.4-26.4,27.6-39.6c0.3-0.4,0.6-0.9,0.9-1.3
		C304.1,18.6,304.1,18.5,304,18.3z"/>
	<path class="st1" d="M301,132.7c-0.3-0.7-0.2-1.4,0.1-2.1c1.6-4.3,3.4-8.5,4.8-12.8c1.2-3.6,2.1-7.4,3-11.1c0.4-1.9,0.5-4,0.1-5.9
		c-0.3-1.2-0.8-2.4-2.2-2.8c-1.1-0.4-2.1-0.7-3.2-1.1c-2.9-0.9-5.8-0.7-8.7-0.7c-1.5,0-3.1-0.2-4.6,0.2c-0.1,0-0.3,0-0.4,0
		c-1.7-0.4-3.3,0.3-4.9,0.4c-1.6,0.1-3.1,0.1-4.7,0.3c-0.8,0.1-1.5,0.3-2.3,0.4c-1.1,0.1-2.2,0.2-3.3,0.2c-1.1,0-1.5-0.9-0.8-1.8
		c0.4-0.5,0.9-1,1.4-1.4c2.7-1.9,5.6-3.4,8.8-4.4c2.9-0.9,5.8-1.6,8.8-2.2c1.2-0.3,2.5-0.1,3.7-0.3c0.6,0,1.1-0.3,1.7-0.3
		c3.1-0.3,6.2-0.4,9.3,0c2.6,0.4,5.2,0.4,7.7,1.2c0.9,0.3,1.8,0.6,2.7,0.9c1.1,0.5,1.7,1.3,2,2.5c0.3,1.4,0.2,2.9,0.4,4.3
		c0,0.1,0,0.2,0,0.4c-0.3,2.1-0.8,4.2-1,6.3c-0.3,2.4-1,4.6-1.7,6.9c-1.9,6-4.6,11.7-8.5,16.8c-1.5,2-3.2,3.8-5.2,5.4
		C302.8,132.9,302.8,132.9,301,132.7z"/>
</g>
</svg>
