<svg width="132" height="169" viewBox="0 0 132 169" fill="none" xmlns="http://www.w3.org/2000/svg">
<g clip-path="url(#clip0_6357_4)">
<path fill-rule="evenodd" clip-rule="evenodd" d="M128.134 137.454H6.44189V155.729H128.134C125.455 149.66 125.187 143.524 128.134 137.455V137.454Z" fill="#FFFADD"/>
<path fill-rule="evenodd" clip-rule="evenodd" d="M126.124 148.192C126.057 147.391 125.989 146.657 126.057 145.858H20.908C20.2384 145.858 19.7026 146.392 19.7026 146.992V147.058C19.7026 147.658 20.2384 148.192 20.908 148.192H126.124ZM126.391 142.79C126.529 141.975 126.73 141.172 126.994 140.389H30.0164C29.8578 140.388 29.7006 140.419 29.554 140.479C29.4074 140.539 29.2742 140.628 29.1622 140.739C29.0501 140.851 28.9614 140.984 28.9011 141.13C28.8408 141.275 28.8102 141.432 28.811 141.59C28.8102 141.747 28.8409 141.904 28.9012 142.05C28.9615 142.196 29.0503 142.328 29.1623 142.44C29.2744 142.551 29.4076 142.64 29.5541 142.7C29.7007 142.76 29.8578 142.791 30.0164 142.79H126.391Z" fill="#F1EDCC"/>
<path fill-rule="evenodd" clip-rule="evenodd" d="M7.71445 137.454H6.44189V153.794C7.4463 154.595 8.51787 155.261 9.72525 155.728H128.134C127.488 154.189 126.951 152.606 126.526 150.993H15.7532C13.2081 150.993 10.9311 149.926 9.25663 148.259C8.40195 147.41 7.72504 146.402 7.26517 145.291C6.8053 144.181 6.57164 142.99 6.57771 141.789C6.57771 140.255 6.97967 138.72 7.71643 137.454H7.71445Z" fill="#F1EDCC"/>
<path d="M0.54834 15.2062V14.8063C0.618446 10.9205 2.20334 7.21379 4.96843 4.46881C7.78167 1.73446 11.5322 0 15.7513 0H128.535C130.209 0 131.548 1.40083 131.548 3.06897V134.453H13.4072L0.54834 146.591V15.2062Z" fill="#FFA646"/>
<path d="M0.54834 15.2062V14.8063C0.618446 10.9205 2.20334 7.21379 4.96843 4.46881C7.78167 1.73446 11.5322 0 15.7513 0V134.453H13.4072L0.54834 146.591V15.2062Z" fill="#EE9535"/>
<path d="M128.535 155.729C129.335 155.729 130.102 156.045 130.667 156.608C131.233 157.171 131.551 157.934 131.551 158.73C131.551 159.526 131.233 160.289 130.667 160.852C130.102 161.415 129.335 161.731 128.535 161.731H15.7532C11.5341 161.731 7.78363 160.064 4.97039 157.33C2.2248 154.528 0.550293 150.796 0.550293 146.592C0.550293 142.39 2.2248 138.589 4.97039 135.854C7.78363 133.12 11.5341 131.386 15.7532 131.386H128.537C130.211 131.386 131.55 132.787 131.55 134.455C131.55 136.056 130.211 137.456 128.537 137.456H15.7532C14.5468 137.453 13.3515 137.687 12.2363 138.145C11.1212 138.603 10.108 139.276 9.25524 140.125C8.40245 140.974 7.72686 141.983 7.26735 143.093C6.80784 144.203 6.57347 145.392 6.57774 146.593C6.57354 147.793 6.80795 148.982 7.2675 150.092C7.72704 151.202 8.40264 152.211 9.25541 153.06C10.1082 153.909 11.1213 154.582 12.2365 155.04C13.3516 155.498 14.5468 155.732 15.7532 155.729H128.535Z" fill="#DD8424"/>
<path fill-rule="evenodd" clip-rule="evenodd" d="M33.0308 145.858H53.9263V169L43.1435 162.731L33.0308 169V145.858Z" fill="#BB3D41"/>
<path fill-rule="evenodd" clip-rule="evenodd" d="M52.9887 64.6923H61.0921V67.6939H52.9887C52.7852 67.6974 52.5831 67.6601 52.3944 67.5842C52.2057 67.5084 52.0343 67.3955 51.8904 67.2523C51.7465 67.1091 51.633 66.9385 51.5567 66.7508C51.4805 66.563 51.443 66.3619 51.4465 66.1595C51.4465 65.3595 52.1161 64.6923 52.9887 64.6923ZM64.9779 64.6923H67.6568V67.6939H64.9779V64.6923ZM71.6083 64.6923H74.2872V67.6939H71.6083V64.6923ZM78.1715 64.6923H80.8504V67.6939H78.1715V64.6923ZM84.8019 64.6923H92.9058C93.2956 64.6959 93.6684 64.8517 93.9439 65.1261C94.2194 65.4005 94.3756 65.7716 94.3789 66.1595C94.3789 67.0267 93.7098 67.6939 92.9058 67.6939H84.8034L84.8019 64.6923ZM50.7794 107.576C42.0058 96.8387 50.0431 80.8321 53.4588 68.8943H57.2088C53.3245 83.6996 55.9367 93.9707 61.0931 99.7062V110.91C61.0931 111.423 61.2977 111.915 61.662 112.277C62.0263 112.639 62.5203 112.843 63.0355 112.843C63.5507 112.843 64.0447 112.639 64.409 112.277C64.7732 111.915 64.9779 111.423 64.9779 110.91V102.974C65.8485 103.508 66.7191 103.975 67.6568 104.311V110.913C67.657 111.425 67.8613 111.917 68.225 112.279C68.5887 112.642 69.0821 112.846 69.597 112.847C70.7357 112.847 71.6063 111.98 71.6063 110.913V105.175C72.498 105.242 73.3935 105.242 74.2852 105.175V110.91C74.2852 111.423 74.4898 111.914 74.8541 112.277C75.2183 112.639 75.7123 112.843 76.2274 112.843C76.7425 112.843 77.2365 112.639 77.6007 112.277C77.9649 111.914 78.1695 111.423 78.1695 110.91V104.308C79.1131 103.971 80.0125 103.522 80.8485 102.972V110.908C80.8485 111.975 81.7862 112.842 82.8578 112.842C83.3727 112.841 83.8661 112.637 84.2298 112.274C84.5935 111.912 84.7978 111.42 84.7979 110.908V99.7062C89.8881 93.9707 92.4999 83.6996 88.6156 68.8943H92.3661C95.9156 81.1657 104.355 97.7055 94.3062 108.51C82.72 120.848 61.4896 120.648 50.7734 107.576H50.7794ZM54.6637 63.4919C54.999 61.358 54.9318 59.4904 54.396 57.8896C54.3937 57.766 54.3461 57.6476 54.2622 57.5565C53.7264 58.6232 52.6549 59.3567 51.3823 59.3567C50.5119 59.3556 49.6774 59.011 49.0619 58.3986C48.4464 57.7862 48.1001 56.9559 48.0989 56.0898C48.1014 55.7519 48.1462 55.4157 48.2323 55.0889C48.3666 54.5558 48.7686 53.8217 49.5053 53.0881C52.5857 50.087 57.3411 50.6874 59.2161 54.8206C60.3548 57.2882 59.7519 60.4893 58.8813 63.4905L54.6637 63.4919ZM87.0122 63.4919C86.1416 60.4908 85.5387 57.2897 86.6103 54.8221C88.4857 50.6869 93.3078 50.0865 96.3215 53.0896C97.125 53.8232 97.5269 54.5573 97.5941 55.0904C97.7279 55.3577 97.7279 55.6913 97.7279 56.0913C97.7279 57.8916 96.3215 59.3582 94.5132 59.3582C93.9029 59.3575 93.3048 59.1889 92.7847 58.8712C92.2647 58.5535 91.843 58.0991 91.5661 57.5579C91.4995 57.6243 91.4995 57.7559 91.4323 57.8911C90.8965 59.4919 90.8965 61.3595 91.1647 63.4934L87.0122 63.4919ZM70.4029 62.6915V110.91C70.4029 111.311 70.0676 111.644 69.599 111.644C69.4042 111.642 69.218 111.564 69.0804 111.427C68.9427 111.29 68.8644 111.104 68.8622 110.91V62.6915C68.8645 62.4978 68.9429 62.3126 69.0805 62.1755C69.2182 62.0385 69.4043 61.9604 69.599 61.9579C70.0676 61.9579 70.4029 62.2916 70.4029 62.6915ZM63.7725 62.6915V110.91C63.7703 111.104 63.692 111.29 63.5543 111.427C63.4167 111.564 63.2305 111.642 63.0357 111.644C62.8409 111.642 62.6548 111.564 62.5171 111.427C62.3795 111.29 62.3012 111.104 62.299 110.91V62.6915C62.3013 62.4978 62.3797 62.3126 62.5173 62.1755C62.655 62.0385 62.841 61.9604 63.0357 61.9579C63.2305 61.9604 63.4165 62.0385 63.5542 62.1755C63.6918 62.3126 63.7702 62.4978 63.7725 62.6915ZM76.9661 62.6915V110.91C76.9639 111.104 76.8856 111.29 76.748 111.427C76.6103 111.564 76.4242 111.642 76.2294 111.644C76.0345 111.642 75.8484 111.564 75.7108 111.427C75.5731 111.29 75.4948 111.104 75.4926 110.91V62.6915C75.4949 62.4978 75.5733 62.3126 75.7109 62.1755C75.8486 62.0385 76.0346 61.9604 76.2294 61.9579C76.4241 61.9604 76.6101 62.0385 76.7478 62.1755C76.8855 62.3126 76.9638 62.4978 76.9661 62.6915ZM83.5965 62.6915V110.91C83.5943 111.104 83.516 111.29 83.3784 111.427C83.2407 111.564 83.0546 111.642 82.8598 111.644C82.6649 111.642 82.4788 111.564 82.3412 111.427C82.2035 111.29 82.1252 111.104 82.123 110.91V62.6915C82.1253 62.4978 82.2037 62.3126 82.3413 62.1755C82.479 62.0385 82.665 61.9604 82.8598 61.9579C83.0545 61.9604 83.2405 62.0385 83.3782 62.1755C83.5159 62.3126 83.5942 62.4978 83.5965 62.6915Z" fill="#FFFADD"/>
<path d="M33.15 41.9946L26.3606 32.2369H26.1238V39.4051C26.1238 39.8788 26.1659 40.2472 26.2501 40.5104C26.3343 40.763 26.508 40.9472 26.7712 41.063C27.0448 41.1683 27.4554 41.2367 28.0027 41.2683V41.884C27.7922 41.863 27.4922 41.8525 27.1027 41.8525C26.7238 41.8419 26.3185 41.8367 25.887 41.8367C25.4449 41.8367 25.0449 41.8419 24.687 41.8525C24.3291 41.8525 24.0396 41.863 23.8186 41.884V41.2683C24.2923 41.2367 24.6501 41.1683 24.8922 41.063C25.1343 40.9472 25.2922 40.7683 25.3659 40.5262C25.4501 40.2735 25.4922 39.9262 25.4922 39.4841V32.679C25.4922 32.2895 25.4554 32.0053 25.3817 31.8264C25.308 31.6474 25.1501 31.5211 24.908 31.4474C24.6659 31.3737 24.3028 31.3316 23.8186 31.3211V30.7053C24.0502 30.7158 24.3607 30.7264 24.7501 30.7369C25.1396 30.7474 25.5659 30.7527 26.0291 30.7527C26.4606 30.7527 26.8554 30.7474 27.2133 30.7369C27.5817 30.7264 27.908 30.7158 28.1922 30.7053L33.0079 37.6999H33.2289V33.1842C33.2289 32.7105 33.1868 32.3474 33.1026 32.0948C33.0184 31.8316 32.8447 31.6421 32.5816 31.5264C32.3184 31.4106 31.9079 31.3422 31.35 31.3211V30.7053C31.5711 30.7158 31.871 30.7264 32.25 30.7369C32.6395 30.7474 33.05 30.7527 33.4815 30.7527C33.9131 30.7527 34.3078 30.7474 34.6657 30.7369C35.0341 30.7264 35.3289 30.7158 35.5499 30.7053V31.3211C35.0762 31.3422 34.7184 31.4106 34.4763 31.5264C34.2342 31.6421 34.071 31.8264 33.9868 32.079C33.9026 32.3211 33.8605 32.6632 33.8605 33.1053V41.9946H33.15ZM40.4812 42.1051C39.6917 42.1051 38.9917 41.9525 38.3812 41.6472C37.7707 41.3314 37.2918 40.8577 36.9444 40.2262C36.5971 39.5841 36.4234 38.7788 36.4234 37.8104C36.4234 36.842 36.5971 36.0368 36.9444 35.3947C37.2918 34.7526 37.7707 34.2789 38.3812 33.9737C38.9917 33.6579 39.6917 33.5 40.4812 33.5C41.2812 33.5 41.9812 33.6579 42.5811 33.9737C43.1811 34.2789 43.6548 34.7526 44.0022 35.3947C44.3495 36.0368 44.5232 36.842 44.5232 37.8104C44.5232 38.7788 44.3495 39.5841 44.0022 40.2262C43.6548 40.8577 43.1811 41.3314 42.5811 41.6472C41.9812 41.9525 41.2812 42.1051 40.4812 42.1051ZM40.4812 41.4893C40.9864 41.4893 41.4022 41.1998 41.7285 40.6209C42.0654 40.0314 42.2338 39.0946 42.2338 37.8104C42.2338 36.5052 42.0654 35.5631 41.7285 34.9842C41.4022 34.3947 40.9864 34.1 40.4812 34.1C39.9654 34.1 39.5444 34.3947 39.2181 34.9842C38.8917 35.5631 38.7286 36.5052 38.7286 37.8104C38.7286 39.0946 38.8917 40.0314 39.2181 40.6209C39.5444 41.1998 39.9654 41.4893 40.4812 41.4893ZM51.4929 41.884V41.2683C51.8823 41.2577 52.1455 41.1735 52.2823 41.0156C52.4297 40.8472 52.5034 40.5525 52.5034 40.1314V36.2157C52.5034 35.6473 52.3876 35.221 52.156 34.9368C51.935 34.6526 51.6034 34.5105 51.1613 34.5105C50.8139 34.5105 50.4929 34.6105 50.1982 34.8105C49.9034 35.0105 49.6508 35.3 49.4403 35.6789V34.9842C49.7034 34.5105 50.0613 34.1474 50.5139 33.8947C50.9771 33.6316 51.5034 33.5 52.0929 33.5C52.9349 33.5 53.577 33.7526 54.0191 34.2579C54.4612 34.7526 54.6823 35.4684 54.6823 36.4052V40.1314C54.6823 40.5525 54.7928 40.8472 55.0139 41.0156C55.2349 41.1735 55.6244 41.2577 56.1822 41.2683V41.884C56.0244 41.8735 55.8033 41.8682 55.5191 41.8682C55.2454 41.8577 54.9402 41.8472 54.6033 41.8367C54.277 41.8261 53.956 41.8209 53.6402 41.8209C53.2297 41.8209 52.8192 41.8314 52.4086 41.8525C51.9981 41.863 51.6929 41.8735 51.4929 41.884ZM45.8404 41.884V41.2683C46.4088 41.2577 46.7982 41.1735 47.0088 41.0156C47.2298 40.8472 47.3403 40.5525 47.3403 40.1314V35.7263C47.3403 35.2315 47.2245 34.8842 46.993 34.6842C46.7719 34.4737 46.3877 34.3579 45.8404 34.3368V33.721C46.0614 33.7316 46.2825 33.7421 46.5035 33.7526C46.7246 33.7632 46.9509 33.7684 47.1824 33.7684C47.6351 33.7684 48.0561 33.7526 48.4456 33.721C48.835 33.6789 49.1929 33.6211 49.5192 33.5474V40.1314C49.5192 40.5525 49.5929 40.8472 49.7403 41.0156C49.8876 41.1735 50.1508 41.2577 50.5297 41.2683V41.884C50.3087 41.8735 50.0087 41.863 49.6298 41.8525C49.2508 41.8314 48.8561 41.8209 48.4456 41.8209C47.9824 41.8209 47.5035 41.8314 47.0088 41.8525C46.5246 41.863 46.1351 41.8735 45.8404 41.884ZM57.4217 38.0789V36.8315H63.5005V38.0789H57.4217ZM65.0215 41.884V41.2683C65.5057 41.2472 65.8635 41.2051 66.0951 41.1419C66.3372 41.0683 66.4951 40.9419 66.5688 40.763C66.653 40.5735 66.6951 40.2893 66.6951 39.9104V32.679C66.6951 32.3 66.653 32.0211 66.5688 31.8421C66.4951 31.6527 66.3372 31.5211 66.0951 31.4474C65.8635 31.3737 65.5057 31.3316 65.0215 31.3211V30.7053C66.1477 30.7369 67.9477 30.7527 70.4213 30.7527C70.8845 30.7527 71.3266 30.7527 71.7476 30.7527C72.1687 30.7422 72.5634 30.7369 72.9318 30.7369C73.3002 30.7264 73.6371 30.7158 73.9423 30.7053C73.9423 31.3474 73.9634 31.9685 74.0055 32.5684C74.0581 33.1579 74.1265 33.7316 74.2107 34.2895H73.5792C73.4213 33.5737 73.2265 33.0053 72.995 32.5842C72.7739 32.1527 72.4897 31.8421 72.1424 31.6527C71.8055 31.4632 71.3845 31.3685 70.8792 31.3685H69.095V39.9104C69.095 40.2893 69.1424 40.5735 69.2372 40.763C69.3319 40.9419 69.5266 41.0683 69.8213 41.1419C70.1266 41.2051 70.5898 41.2472 71.2108 41.2683V41.884C70.874 41.8735 70.4319 41.863 69.8845 41.8525C69.3371 41.8419 68.6898 41.8367 67.9424 41.8367C67.374 41.8367 66.8372 41.8419 66.3319 41.8525C65.8372 41.863 65.4004 41.8735 65.0215 41.884ZM68.5898 36.6894V36.0736H71.5739V36.6894H68.5898ZM71.8108 38.9946C71.7581 38.4473 71.6582 38.0052 71.5108 37.6683C71.3739 37.3315 71.1792 37.0841 70.9266 36.9262C70.6845 36.7684 70.3687 36.6894 69.9792 36.6894V36.0736C70.5055 36.0736 70.9108 35.9052 71.195 35.5684C71.4897 35.2315 71.6792 34.721 71.7634 34.0368H72.3634C72.3213 34.6473 72.3002 35.121 72.3002 35.4579C72.3002 35.7947 72.3002 36.1052 72.3002 36.3894C72.3002 36.621 72.3055 36.8526 72.316 37.0841C72.3266 37.3157 72.3371 37.5841 72.3476 37.8894C72.3687 38.1841 72.3897 38.5525 72.4108 38.9946H71.8108ZM75.2846 41.884V41.2683C75.8425 41.2577 76.232 41.1735 76.453 41.0156C76.6741 40.8577 76.7846 40.563 76.7846 40.1314V35.7263C76.7846 35.2526 76.6741 34.9105 76.453 34.7C76.2425 34.4789 75.853 34.3579 75.2846 34.3368V33.721C75.4952 33.7316 75.7109 33.7421 75.932 33.7526C76.153 33.7632 76.3741 33.7684 76.5951 33.7684C77.0478 33.7684 77.4688 33.7526 77.8583 33.721C78.2583 33.6789 78.6267 33.6211 78.9635 33.5474V40.1314C78.9635 40.563 79.074 40.8577 79.2951 41.0156C79.5161 41.1735 79.9056 41.2577 80.4635 41.2683V41.884C80.3056 41.8735 80.0845 41.8682 79.8003 41.8682C79.5267 41.8577 79.2214 41.8472 78.8846 41.8367C78.5583 41.8261 78.2319 41.8209 77.9056 41.8209C77.4109 41.8209 76.9109 41.8314 76.4057 41.8525C75.9109 41.863 75.5373 41.8735 75.2846 41.884ZM77.8109 32.0948C77.4635 32.0948 77.153 31.9842 76.8793 31.7632C76.6162 31.5421 76.4846 31.2422 76.4846 30.8632C76.4846 30.4737 76.6162 30.1685 76.8793 29.9474C77.153 29.7264 77.4635 29.6159 77.8109 29.6159C78.1583 29.6159 78.4635 29.7264 78.7267 29.9474C79.0004 30.1685 79.1372 30.4685 79.1372 30.8474C79.1372 31.2369 79.0004 31.5421 78.7267 31.7632C78.4635 31.9842 78.1583 32.0948 77.8109 32.0948ZM85.4083 42.1051C84.6294 42.1051 83.9557 41.9367 83.3873 41.5998C82.8189 41.2525 82.3768 40.763 82.061 40.1314C81.7558 39.4893 81.6031 38.7315 81.6031 37.8578C81.6031 36.9526 81.7663 36.1736 82.0926 35.521C82.4189 34.8684 82.8821 34.3684 83.482 34.021C84.0926 33.6737 84.8136 33.5 85.6452 33.5C86.2451 33.5 86.7767 33.5947 87.2399 33.7842C87.703 33.9631 88.0662 34.2158 88.3293 34.5421C88.5925 34.8579 88.724 35.2315 88.724 35.6631C88.724 36.0631 88.5977 36.3947 88.3451 36.6578C88.103 36.921 87.7767 37.0526 87.3662 37.0526C87.0609 37.0526 86.8135 36.9736 86.6241 36.8157C86.4346 36.6578 86.3399 36.4526 86.3399 36.1999C86.3399 35.9684 86.403 35.7684 86.5293 35.6C86.6557 35.4315 86.7767 35.2789 86.8925 35.1421C87.0188 34.9947 87.082 34.8368 87.082 34.6684C87.082 34.5105 86.9925 34.3895 86.8135 34.3052C86.6451 34.2105 86.4241 34.1631 86.1504 34.1631C85.4346 34.1631 84.882 34.4684 84.4925 35.0789C84.1031 35.6789 83.9083 36.521 83.9083 37.6052C83.9083 38.6894 84.0978 39.5262 84.4768 40.1156C84.8662 40.6946 85.4294 40.9841 86.1662 40.9841C86.6504 40.9841 87.0714 40.8525 87.4293 40.5893C87.7872 40.3262 88.0872 39.9314 88.3293 39.4051L88.8819 39.7209C88.5977 40.4893 88.1556 41.0788 87.5556 41.4893C86.9557 41.8998 86.2399 42.1051 85.4083 42.1051ZM93.7322 42.1051C92.9111 42.1051 92.2953 41.8788 91.8848 41.4261C91.4743 40.963 91.269 40.2788 91.269 39.3736V34.3368H89.548V33.721H91.269V31.4316C91.6796 31.4316 92.0638 31.4053 92.4217 31.3527C92.7795 31.3 93.1216 31.2264 93.4479 31.1316V33.721H95.8163V34.3368H93.4479V39.8946C93.4479 40.2946 93.5269 40.5946 93.6848 40.7946C93.8532 40.9841 94.1006 41.0788 94.4269 41.0788C94.7321 41.0788 94.99 40.9841 95.2005 40.7946C95.4111 40.5946 95.5847 40.3051 95.7216 39.9262L96.211 40.1314C95.99 40.8156 95.6847 41.3156 95.2953 41.6314C94.9058 41.9472 94.3848 42.1051 93.7322 42.1051ZM96.8707 41.884V41.2683C97.4286 41.2577 97.8181 41.1735 98.0391 41.0156C98.2602 40.8577 98.3707 40.563 98.3707 40.1314V35.7263C98.3707 35.2526 98.2602 34.9105 98.0391 34.7C97.8286 34.4789 97.4391 34.3579 96.8707 34.3368V33.721C97.0813 33.7316 97.297 33.7421 97.5181 33.7526C97.7391 33.7632 97.9602 33.7684 98.1812 33.7684C98.6339 33.7684 99.0549 33.7526 99.4444 33.721C99.8444 33.6789 100.213 33.6211 100.55 33.5474V40.1314C100.55 40.563 100.66 40.8577 100.881 41.0156C101.102 41.1735 101.492 41.2577 102.05 41.2683V41.884C101.892 41.8735 101.671 41.8682 101.386 41.8682C101.113 41.8577 100.807 41.8472 100.471 41.8367C100.144 41.8261 99.818 41.8209 99.4917 41.8209C98.997 41.8209 98.497 41.8314 97.9918 41.8525C97.497 41.863 97.1234 41.8735 96.8707 41.884ZM99.397 32.0948C99.0496 32.0948 98.7391 31.9842 98.4654 31.7632C98.2023 31.5421 98.0707 31.2422 98.0707 30.8632C98.0707 30.4737 98.2023 30.1685 98.4654 29.9474C98.7391 29.7264 99.0496 29.6159 99.397 29.6159C99.7444 29.6159 100.05 29.7264 100.313 29.9474C100.586 30.1685 100.723 30.4685 100.723 30.8474C100.723 31.2369 100.586 31.5421 100.313 31.7632C100.05 31.9842 99.7444 32.0948 99.397 32.0948ZM107.247 42.1051C106.458 42.1051 105.758 41.9525 105.147 41.6472C104.537 41.3314 104.058 40.8577 103.71 40.2262C103.363 39.5841 103.189 38.7788 103.189 37.8104C103.189 36.842 103.363 36.0368 103.71 35.3947C104.058 34.7526 104.537 34.2789 105.147 33.9737C105.758 33.6579 106.458 33.5 107.247 33.5C108.047 33.5 108.747 33.6579 109.347 33.9737C109.947 34.2789 110.421 34.7526 110.768 35.3947C111.115 36.0368 111.289 36.842 111.289 37.8104C111.289 38.7788 111.115 39.5841 110.768 40.2262C110.421 40.8577 109.947 41.3314 109.347 41.6472C108.747 41.9525 108.047 42.1051 107.247 42.1051ZM107.247 41.4893C107.752 41.4893 108.168 41.1998 108.494 40.6209C108.831 40.0314 109 39.0946 109 37.8104C109 36.5052 108.831 35.5631 108.494 34.9842C108.168 34.3947 107.752 34.1 107.247 34.1C106.731 34.1 106.31 34.3947 105.984 34.9842C105.658 35.5631 105.494 36.5052 105.494 37.8104C105.494 39.0946 105.658 40.0314 105.984 40.6209C106.31 41.1998 106.731 41.4893 107.247 41.4893ZM118.259 41.884V41.2683C118.648 41.2577 118.911 41.1735 119.048 41.0156C119.196 40.8472 119.269 40.5525 119.269 40.1314V36.2157C119.269 35.6473 119.153 35.221 118.922 34.9368C118.701 34.6526 118.369 34.5105 117.927 34.5105C117.58 34.5105 117.259 34.6105 116.964 34.8105C116.669 35.0105 116.417 35.3 116.206 35.6789V34.9842C116.469 34.5105 116.827 34.1474 117.28 33.8947C117.743 33.6316 118.269 33.5 118.859 33.5C119.701 33.5 120.343 33.7526 120.785 34.2579C121.227 34.7526 121.448 35.4684 121.448 36.4052V40.1314C121.448 40.5525 121.559 40.8472 121.78 41.0156C122.001 41.1735 122.39 41.2577 122.948 41.2683V41.884C122.79 41.8735 122.569 41.8682 122.285 41.8682C122.011 41.8577 121.706 41.8472 121.369 41.8367C121.043 41.8261 120.722 41.8209 120.406 41.8209C119.996 41.8209 119.585 41.8314 119.174 41.8525C118.764 41.863 118.459 41.8735 118.259 41.884ZM112.606 41.884V41.2683C113.175 41.2577 113.564 41.1735 113.775 41.0156C113.996 40.8472 114.106 40.5525 114.106 40.1314V35.7263C114.106 35.2315 113.99 34.8842 113.759 34.6842C113.538 34.4737 113.154 34.3579 112.606 34.3368V33.721C112.827 33.7316 113.048 33.7421 113.269 33.7526C113.49 33.7632 113.717 33.7684 113.948 33.7684C114.401 33.7684 114.822 33.7526 115.211 33.721C115.601 33.6789 115.959 33.6211 116.285 33.5474V40.1314C116.285 40.5525 116.359 40.8472 116.506 41.0156C116.653 41.1735 116.917 41.2577 117.296 41.2683V41.884C117.075 41.8735 116.775 41.863 116.396 41.8525C116.017 41.8314 115.622 41.8209 115.211 41.8209C114.748 41.8209 114.269 41.8314 113.775 41.8525C113.29 41.863 112.901 41.8735 112.606 41.884Z" fill="#F7FCDB"/>
</g>
<defs>
<clipPath id="clip0_6357_4">
<rect width="131" height="169" fill="white" transform="translate(0.54834)"/>
</clipPath>
</defs>
</svg>
