<svg width="133" height="170" viewBox="0 0 133 170" fill="none" xmlns="http://www.w3.org/2000/svg">
<g clip-path="url(#clip0_6359_16)">
<path fill-rule="evenodd" clip-rule="evenodd" d="M128.726 138.268H6.10498V156.65H128.726C126.026 150.545 125.757 144.373 128.726 138.268V138.268Z" fill="#FFFADD"/>
<path fill-rule="evenodd" clip-rule="evenodd" d="M126.701 149.069C126.633 148.264 126.565 147.525 126.633 146.721H20.6819C20.0072 146.721 19.4673 147.258 19.4673 147.861V147.929C19.4673 148.532 20.0072 149.069 20.6819 149.069H126.701ZM126.97 143.635C127.109 142.815 127.312 142.008 127.578 141.219H29.8597C29.6999 141.219 29.5416 141.25 29.3939 141.31C29.2461 141.371 29.1119 141.46 28.999 141.572C28.8861 141.684 28.7967 141.818 28.736 141.965C28.6752 142.111 28.6443 142.269 28.6451 142.427C28.6444 142.586 28.6753 142.743 28.7361 142.89C28.7969 143.037 28.8863 143.17 28.9992 143.283C29.1121 143.395 29.2463 143.484 29.394 143.544C29.5417 143.605 29.7 143.636 29.8597 143.635H126.97Z" fill="#F1EDCC"/>
<path fill-rule="evenodd" clip-rule="evenodd" d="M7.38725 138.268H6.10498V154.704C7.11706 155.509 8.19681 156.18 9.4134 156.65H128.726C128.076 155.101 127.534 153.51 127.106 151.887H15.4874C12.9228 151.887 10.6285 150.813 8.9412 149.136C8.08 148.283 7.39792 147.268 6.93454 146.151C6.47116 145.034 6.23571 143.836 6.24183 142.628C6.24183 141.085 6.64686 139.541 7.38925 138.268H7.38725Z" fill="#F1EDCC"/>
<path d="M0.166504 15.2962V14.8939C0.237145 10.9851 1.83414 7.25647 4.62034 4.49525C7.45506 1.74472 11.2342 0 15.4855 0H129.13C130.817 0 132.166 1.40912 132.166 3.08713V135.249H13.1235L0.166504 147.459V15.2962Z" fill="#CE5356"/>
<path d="M0.166504 15.2962V14.8939C0.237145 10.9851 1.83414 7.25647 4.62034 4.49525C7.45506 1.74472 11.2342 0 15.4855 0V135.249H13.1235L0.166504 147.459V15.2962Z" fill="#BB3D41"/>
<path d="M129.13 156.65C129.936 156.65 130.709 156.968 131.279 157.534C131.849 158.101 132.169 158.868 132.169 159.669C132.169 160.47 131.849 161.238 131.279 161.804C130.709 162.37 129.936 162.688 129.13 162.688H15.4874C11.2361 162.688 7.45701 161.011 4.62229 158.26C1.85575 155.443 0.168457 151.688 0.168457 147.459C0.168457 143.233 1.85575 139.409 4.62229 136.658C7.45701 133.908 11.2361 132.163 15.4874 132.163H129.132C130.819 132.163 132.168 133.572 132.168 135.25C132.168 136.861 130.819 138.269 129.132 138.269H15.4874C14.2718 138.266 13.0674 138.501 11.9437 138.962C10.82 139.423 9.79914 140.1 8.93985 140.954C8.08056 141.808 7.39981 142.823 6.93679 143.939C6.47377 145.056 6.23762 146.252 6.24192 147.46C6.23768 148.668 6.47389 149.864 6.93694 150.98C7.39999 152.097 8.08074 153.111 8.94003 153.966C9.79931 154.82 10.8202 155.497 11.9438 155.957C13.0675 156.418 14.2718 156.654 15.4874 156.65H129.13Z" fill="#A8292C"/>
<path fill-rule="evenodd" clip-rule="evenodd" d="M32.897 146.721H53.9521V170L43.0869 163.694L32.897 170V146.721Z" fill="#FFA645"/>
<path d="M22.9649 96.7292V95.9066C23.6117 95.8785 24.0898 95.8223 24.3992 95.7379C24.7226 95.6395 24.9335 95.4707 25.032 95.2317C25.1445 94.9786 25.2007 94.5989 25.2007 94.0927V84.4322C25.2007 83.926 25.1445 83.5533 25.032 83.3143C24.9335 83.0612 24.7226 82.8854 24.3992 82.787C24.0898 82.6885 23.6117 82.6323 22.9649 82.6182V81.7956C23.218 81.8097 23.6399 81.8237 24.2305 81.8378C24.8351 81.8378 25.5663 81.8378 26.4241 81.8378C26.9163 81.8378 27.3522 81.8378 27.7318 81.8378C28.1115 81.8378 28.449 81.8378 28.7443 81.8378C29.0537 81.8237 29.3279 81.8167 29.5669 81.8167C29.82 81.8026 30.038 81.7956 30.2208 81.7956C32.1754 81.7956 33.6519 82.112 34.6503 82.7448C35.6486 83.3776 36.1478 84.3056 36.1478 85.529C36.1478 86.3727 35.8947 87.0969 35.3885 87.7016C34.8823 88.3062 34.1511 88.7703 33.1949 89.0937C32.2527 89.4171 31.0997 89.5788 29.7357 89.5788H26.9725V89.0304H29.7567C30.8536 89.0304 31.6692 88.7632 32.2035 88.2289C32.7379 87.6805 33.005 86.8508 33.005 85.7399C33.005 84.6853 32.7519 83.9049 32.2457 83.3987C31.7535 82.8784 30.9872 82.6182 29.9466 82.6182H28.4068V94.0927C28.4068 94.5848 28.456 94.9575 28.5545 95.2106C28.667 95.4637 28.8849 95.6395 29.2083 95.7379C29.5318 95.8223 30.0099 95.8785 30.6426 95.9066V96.7292C29.9396 96.6871 28.667 96.666 26.8249 96.666C24.9546 96.666 23.668 96.6871 22.9649 96.7292ZM35.726 97.0245C34.826 97.0245 34.144 96.8206 33.68 96.4129C33.23 95.991 32.9066 95.2879 32.7097 94.3036L32.2668 92.0678C32.1402 91.4912 31.9785 91.0483 31.7816 90.7389C31.5988 90.4155 31.3457 90.1835 31.0223 90.0429C30.713 89.9022 30.2911 89.8319 29.7567 89.8319H27.1202V89.2835H29.5669C30.9309 89.2835 32.0207 89.389 32.8363 89.5999C33.6519 89.8108 34.2776 90.1694 34.7135 90.6756C35.1495 91.1819 35.4799 91.892 35.7049 92.806L36.0213 94.1348C36.1478 94.6692 36.3025 95.0489 36.4853 95.2739C36.6681 95.4988 36.9142 95.6043 37.2236 95.5902C37.3923 95.5902 37.54 95.5621 37.6665 95.5059C37.8071 95.4356 37.9478 95.3301 38.0884 95.1895L38.4891 95.8012C38.1235 96.223 37.7228 96.5324 37.2868 96.7292C36.8509 96.9261 36.3306 97.0245 35.726 97.0245ZM44.6625 97.0245C43.6079 97.0245 42.6728 96.8206 41.8572 96.4129C41.0416 95.991 40.4018 95.3582 39.9378 94.5145C39.4737 93.6567 39.2417 92.581 39.2417 91.2873C39.2417 89.9936 39.4737 88.9179 39.9378 88.0601C40.4018 87.2024 41.0416 86.5696 41.8572 86.1618C42.6728 85.7399 43.6079 85.529 44.6625 85.529C45.7312 85.529 46.6663 85.7399 47.4679 86.1618C48.2694 86.5696 48.9022 87.2024 49.3662 88.0601C49.8303 88.9179 50.0623 89.9936 50.0623 91.2873C50.0623 92.581 49.8303 93.6567 49.3662 94.5145C48.9022 95.3582 48.2694 95.991 47.4679 96.4129C46.6663 96.8206 45.7312 97.0245 44.6625 97.0245ZM44.6625 96.2019C45.3375 96.2019 45.8929 95.8152 46.3289 95.0418C46.7788 94.2544 47.0038 93.0029 47.0038 91.2873C47.0038 89.5437 46.7788 88.2851 46.3289 87.5117C45.8929 86.7243 45.3375 86.3305 44.6625 86.3305C43.9735 86.3305 43.411 86.7243 42.9751 87.5117C42.5392 88.2851 42.3212 89.5437 42.3212 91.2873C42.3212 93.0029 42.5392 94.2544 42.9751 95.0418C43.411 95.8152 43.9735 96.2019 44.6625 96.2019ZM65.9329 96.7292V95.9066C66.411 95.8926 66.7344 95.7801 66.9032 95.5691C67.086 95.3442 67.1774 94.9504 67.1774 94.388V89.1148C67.1774 88.3836 67.0367 87.8281 66.7555 87.4485C66.4883 87.0688 66.0876 86.879 65.5532 86.879C65.0892 86.879 64.6462 87.0266 64.2244 87.3219C63.8166 87.6172 63.458 88.0883 63.1487 88.7351L63.0221 87.9758C63.4158 87.1321 63.9431 86.5133 64.6041 86.1196C65.265 85.7259 65.9891 85.529 66.7766 85.529C67.8453 85.529 68.6609 85.8665 69.2234 86.5415C69.7999 87.2024 70.0882 88.1586 70.0882 89.4101V94.388C70.0882 94.9504 70.2358 95.3442 70.5311 95.5691C70.8264 95.7801 71.3467 95.8926 72.092 95.9066V96.7292C71.881 96.7152 71.5857 96.7082 71.2061 96.7082C70.8264 96.6941 70.4186 96.68 69.9827 96.666C69.5468 96.6519 69.1179 96.6449 68.696 96.6449C68.1617 96.6449 67.6344 96.6589 67.1141 96.6871C66.5938 96.7011 66.2001 96.7152 65.9329 96.7292ZM51.8219 96.7292V95.9066C52.5812 95.8926 53.1015 95.7801 53.3827 95.5691C53.678 95.3442 53.8257 94.9504 53.8257 94.388V88.5031C53.8257 87.8422 53.671 87.3781 53.3616 87.111C53.0663 86.8297 52.5531 86.6751 51.8219 86.6469V85.8243C52.1312 85.8384 52.4336 85.8524 52.7289 85.8665C53.0242 85.8806 53.3195 85.8876 53.6147 85.8876C54.2194 85.8876 54.7748 85.8665 55.2811 85.8243C55.8014 85.7681 56.2865 85.6907 56.7365 85.5923V94.388C56.7365 94.9504 56.8208 95.3442 56.9896 95.5691C57.1724 95.7801 57.4958 95.8926 57.9598 95.9066V96.7292C57.6786 96.7152 57.2919 96.7011 56.7997 96.6871C56.3216 96.6589 55.8225 96.6449 55.3022 96.6449C54.6834 96.6449 54.0436 96.6589 53.3827 96.6871C52.7359 96.7011 52.2156 96.7152 51.8219 96.7292ZM59.2676 96.7292V95.9066C59.7316 95.8926 60.048 95.7801 60.2168 95.5691C60.3996 95.3442 60.491 94.9504 60.491 94.388V89.1148C60.491 88.3836 60.3504 87.8281 60.0691 87.4485C59.8019 87.0688 59.4012 86.879 58.8668 86.879C58.4169 86.879 58.002 87.0125 57.6224 87.2797C57.2427 87.5328 56.9122 87.9195 56.631 88.4398V87.5117C56.9826 86.879 57.4536 86.3938 58.0442 86.0563C58.6489 85.7048 59.3379 85.529 60.1113 85.529C61.18 85.529 61.9956 85.8595 62.5581 86.5204C63.1205 87.1672 63.4018 88.1094 63.4018 89.3468V94.388C63.4018 94.9504 63.4932 95.3442 63.676 95.5691C63.8588 95.7801 64.1892 95.8926 64.6673 95.9066V96.7292C64.4142 96.7152 64.0345 96.7011 63.5283 96.6871C63.0221 96.6589 62.5159 96.6449 62.0096 96.6449C61.4894 96.6449 60.9691 96.6589 60.4488 96.6871C59.9285 96.7011 59.5348 96.7152 59.2676 96.7292ZM76.5053 97.0245C75.5772 97.0245 74.839 96.7855 74.2906 96.3074C73.7421 95.8152 73.4679 95.1543 73.4679 94.3247C73.4679 93.6778 73.6156 93.1575 73.9109 92.7638C74.2202 92.356 74.614 92.0256 75.0921 91.7725C75.5702 91.5193 76.0764 91.3155 76.6107 91.1608C77.1592 90.992 77.6724 90.8374 78.1505 90.6967C78.6286 90.5421 79.0153 90.3663 79.3106 90.1694C79.62 89.9585 79.7747 89.6843 79.7747 89.3468V88.3343C79.7747 87.7016 79.6059 87.2164 79.2684 86.879C78.9309 86.5415 78.4318 86.3727 77.7708 86.3727C77.2927 86.3727 76.899 86.443 76.5897 86.5837C76.2803 86.7243 76.1256 86.9071 76.1256 87.1321C76.1256 87.3008 76.1819 87.4695 76.2944 87.6383C76.4069 87.807 76.5123 87.9898 76.6107 88.1867C76.7232 88.3695 76.7795 88.5734 76.7795 88.7984C76.7795 89.1077 76.6529 89.3609 76.3998 89.5577C76.1608 89.7405 75.8373 89.8319 75.4296 89.8319C74.9655 89.8319 74.5929 89.6983 74.3116 89.4312C74.0445 89.1499 73.9109 88.7843 73.9109 88.3343C73.9109 87.7719 74.1077 87.2867 74.5015 86.879C74.9093 86.4571 75.4717 86.1266 76.1889 85.8876C76.906 85.6485 77.7287 85.529 78.6567 85.529C79.6129 85.529 80.3863 85.6626 80.9769 85.9298C81.5675 86.1829 81.9964 86.6047 82.2636 87.1953C82.5448 87.7719 82.6855 88.5453 82.6855 89.5155V94.9575C82.6855 95.2809 82.7347 95.5129 82.8331 95.6535C82.9315 95.7941 83.0932 95.8644 83.3182 95.8644C83.501 95.8644 83.6909 95.8223 83.8877 95.7379C84.0846 95.6535 84.2815 95.541 84.4783 95.4004L84.8158 96.0754C84.4502 96.3847 84.0354 96.6168 83.5713 96.7714C83.1073 96.9402 82.587 97.0245 82.0105 97.0245C80.5481 97.0245 79.8098 96.448 79.7957 95.2949C79.388 95.8715 78.9099 96.3074 78.3614 96.6027C77.813 96.8839 77.1943 97.0245 76.5053 97.0245ZM77.8552 95.4637C78.2349 95.4637 78.5864 95.3793 78.9099 95.2106C79.2333 95.0278 79.5215 94.7676 79.7747 94.4301V90.5069C79.6481 90.7178 79.4512 90.9077 79.1841 91.0764C78.9309 91.2311 78.6427 91.3858 78.3193 91.5404C77.9958 91.6951 77.6865 91.8709 77.3912 92.0678C77.0959 92.2646 76.8498 92.5107 76.6529 92.806C76.4561 93.0872 76.3576 93.4458 76.3576 93.8817C76.3576 94.3739 76.4912 94.7606 76.7584 95.0418C77.0256 95.3231 77.3912 95.4637 77.8552 95.4637ZM93.1906 96.7292V95.9066C93.7109 95.8926 94.0624 95.7801 94.2452 95.5691C94.4421 95.3442 94.5405 94.9504 94.5405 94.388V89.157C94.5405 88.3976 94.3859 87.8281 94.0765 87.4485C93.7812 87.0688 93.3383 86.879 92.7477 86.879C92.2836 86.879 91.8547 87.0125 91.461 87.2797C91.0673 87.5469 90.7298 87.9336 90.4486 88.4398V87.5117C90.8001 86.879 91.2782 86.3938 91.8829 86.0563C92.5016 85.7048 93.2047 85.529 93.9921 85.529C95.1171 85.529 95.9748 85.8665 96.5654 86.5415C97.156 87.2024 97.4513 88.1586 97.4513 89.4101V94.388C97.4513 94.9504 97.599 95.3442 97.8943 95.5691C98.1896 95.7801 98.7099 95.8926 99.4551 95.9066V96.7292C99.2442 96.7152 98.9489 96.7082 98.5693 96.7082C98.2036 96.6941 97.7959 96.68 97.3459 96.666C96.91 96.6519 96.4811 96.6449 96.0592 96.6449C95.5108 96.6449 94.9624 96.6589 94.414 96.6871C93.8656 96.7011 93.4578 96.7152 93.1906 96.7292ZM85.6394 96.7292V95.9066C86.3988 95.8926 86.919 95.7801 87.2003 95.5691C87.4956 95.3442 87.6432 94.9504 87.6432 94.388V88.5031C87.6432 87.8422 87.4885 87.3781 87.1792 87.111C86.8839 86.8297 86.3706 86.6751 85.6394 86.6469V85.8243C85.9347 85.8384 86.23 85.8524 86.5253 85.8665C86.8206 85.8806 87.1229 85.8876 87.4323 85.8876C88.037 85.8876 88.5994 85.8665 89.1197 85.8243C89.64 85.7681 90.1181 85.6907 90.554 85.5923V94.388C90.554 94.9504 90.6525 95.3442 90.8493 95.5691C91.0462 95.7801 91.3977 95.8926 91.904 95.9066V96.7292C91.6087 96.7152 91.2079 96.7011 90.7017 96.6871C90.1954 96.6589 89.6681 96.6449 89.1197 96.6449C88.501 96.6449 87.8612 96.6589 87.2003 96.6871C86.5534 96.7011 86.0331 96.7152 85.6394 96.7292ZM106.009 97.0245C104.968 97.0245 104.068 96.7996 103.309 96.3496C102.55 95.8855 101.959 95.2317 101.537 94.388C101.129 93.5302 100.926 92.5177 100.926 91.3506C100.926 90.1413 101.143 89.1007 101.579 88.2289C102.015 87.3571 102.634 86.6891 103.436 86.2251C104.251 85.761 105.214 85.529 106.325 85.529C107.127 85.529 107.837 85.6556 108.456 85.9087C109.074 86.1477 109.559 86.4852 109.911 86.9211C110.263 87.343 110.438 87.8422 110.438 88.4187C110.438 88.9531 110.27 89.396 109.932 89.7476C109.609 90.0991 109.173 90.2749 108.624 90.2749C108.217 90.2749 107.886 90.1694 107.633 89.9585C107.38 89.7476 107.253 89.4734 107.253 89.1359C107.253 88.8265 107.338 88.5593 107.506 88.3343C107.675 88.1094 107.837 87.9055 107.992 87.7227C108.16 87.5258 108.245 87.3149 108.245 87.0899C108.245 86.879 108.125 86.7172 107.886 86.6047C107.661 86.4782 107.366 86.4149 107 86.4149C106.044 86.4149 105.306 86.8227 104.786 87.6383C104.265 88.4398 104.005 89.5648 104.005 91.0131C104.005 92.4615 104.258 93.5794 104.764 94.3669C105.285 95.1403 106.037 95.527 107.021 95.527C107.668 95.527 108.231 95.3512 108.709 94.9996C109.187 94.6481 109.588 94.1208 109.911 93.4177L110.649 93.8395C110.27 94.8661 109.679 95.6535 108.877 96.2019C108.076 96.7503 107.12 97.0245 106.009 97.0245ZM117.787 97.0245C116.732 97.0245 115.811 96.7996 115.024 96.3496C114.25 95.8855 113.653 95.2246 113.231 94.3669C112.809 93.5091 112.598 92.4896 112.598 91.3084C112.598 90.071 112.823 89.0234 113.273 88.1656C113.723 87.3078 114.356 86.654 115.172 86.204C115.987 85.754 116.943 85.529 118.04 85.529C119.024 85.529 119.861 85.7118 120.55 86.0774C121.239 86.429 121.759 86.9844 122.111 87.7438C122.463 88.5031 122.624 89.4874 122.596 90.6967H114.686L114.665 89.8952H119.96C119.974 89.2062 119.91 88.6015 119.77 88.0812C119.643 87.5469 119.432 87.125 119.137 86.8157C118.842 86.5063 118.455 86.3516 117.977 86.3516C117.372 86.3516 116.852 86.6469 116.416 87.2375C115.994 87.8281 115.741 88.7632 115.657 90.0429L115.699 90.1272C115.685 90.2538 115.678 90.3944 115.678 90.5491C115.678 90.7038 115.678 90.8795 115.678 91.0764C115.678 92.4685 115.938 93.5583 116.458 94.3458C116.993 95.1332 117.766 95.527 118.778 95.527C119.467 95.527 120.065 95.3582 120.571 95.0207C121.092 94.6692 121.527 94.1348 121.879 93.4177L122.638 93.8395C122.231 94.8661 121.612 95.6535 120.782 96.2019C119.953 96.7503 118.954 97.0245 117.787 97.0245Z" fill="white"/>
<path d="M69.4342 78C64.7067 77.8974 60.2029 77.0184 56.0571 74.7474C52.1797 72.623 49.197 69.6487 47.1539 65.7515C46.9004 65.268 46.9601 64.9896 47.3329 64.594C50.2409 61.5319 53.2236 58.5137 55.9825 55.3197C57.5782 53.4883 59.4722 52.3894 61.8583 52.0818C63.3347 51.8913 64.7962 52.0378 66.2278 52.4773C66.7796 52.6385 67.3612 52.7411 67.913 52.9022C68.9868 53.2099 70.0456 53.1953 71.1193 52.9169C72.2527 52.6092 73.3861 52.2576 74.5494 52.1404C77.7855 51.7887 80.6339 52.492 82.856 55.0999C84.8842 57.4881 87.0764 59.7298 89.209 62.0154C90.0441 62.9091 90.8942 63.7735 91.7591 64.638C92.0126 64.9017 92.0723 65.1068 91.9082 65.4584C90.4915 68.3741 88.4335 70.8062 85.8684 72.7988C82.6024 75.3335 78.8593 76.8425 74.7731 77.4579C72.9984 77.7216 71.2088 77.8242 69.4342 78ZM48.7944 64.1545C48.8093 64.2131 48.8242 64.257 48.8242 64.3156C48.9733 64.2863 49.1225 64.2424 49.2716 64.2131C51.1059 63.7296 52.97 63.4512 54.864 63.334C57.2799 63.1875 59.681 63.3047 62.0521 63.6856C63.5285 63.9201 65.0497 64.0959 66.3322 65.0043C66.5559 65.1654 66.8393 65.2387 67.1077 65.2973C68.3753 65.6196 69.6728 65.6929 70.9702 65.4731C71.5966 65.3705 72.1931 65.1068 72.7896 64.8724C73.2668 64.6819 73.6844 64.3303 74.1765 64.1838C76.1451 63.5538 78.1882 63.3486 80.2462 63.2607C83.706 63.1142 87.1211 63.378 90.4318 64.4622C90.5511 64.5061 90.6705 64.5061 90.7898 64.5208C90.7152 64.4035 90.6257 64.3449 90.5362 64.3156C89.03 63.7735 87.5536 63.2021 86.0325 62.7186C82.2594 61.5465 78.382 60.8286 74.445 60.5063C73.5949 60.433 72.7449 60.3305 71.9246 60.77C70.4482 61.5758 68.8973 61.6491 67.3612 61.0191C66.2726 60.5649 65.1988 60.4477 64.0356 60.5502C60.0836 60.9165 56.2211 61.6784 52.463 62.8798C51.2252 63.2607 50.0172 63.7296 48.7944 64.1545Z" fill="white"/>
</g>
<defs>
<clipPath id="clip0_6359_16">
<rect width="132" height="170" fill="white" transform="translate(0.166504)"/>
</clipPath>
</defs>
</svg>
