<?xml version="1.0" encoding="utf-8"?>
<!-- Generator: Adobe Illustrator 25.4.1, SVG Export Plug-In . SVG Version: 6.00 Build 0)  -->
<svg version="1.1" id="Layer_1" xmlns="http://www.w3.org/2000/svg" xmlns:xlink="http://www.w3.org/1999/xlink" x="0px" y="0px"
	 viewBox="0 0 756.3 187.3" style="enable-background:new 0 0 756.3 187.3;" xml:space="preserve">
<style type="text/css">
	.st0{fill:#264F9B;enable-background:new    ;}
	.st1{fill:#FF9900;enable-background:new    ;}
	.st2{fill:#EF4823;enable-background:new    ;}
	.st3{fill:#151D47;enable-background:new    ;}
	.st4{fill:#FFF7DE;}
	.st5{fill:#143017;}
	.st6{fill:#BE680B;}
	.st7{fill:#505353;}
	.st8{fill:#00BEDF;}
	.st9{fill:#4281C4;}
	.st10{fill:#FFFFFF;}
</style>
<g>
	<path d="M99.4,180.7c0.4-5.3,0.8-10.4,1.1-15.4c0.1-1.2-0.4-2.4-0.6-3.6c-0.3-0.1-0.6-0.1-0.9-0.2c3.7-4.1,7.1-8.5,11.1-12.1
		c4.2-3.7,5.9-8.3,6.3-13.4c0.8-10,1.3-20,1.7-30c0-0.8-0.9-1.6-1.4-2.4c-0.7,0.7-1.5,1.4-2.2,2.2c-0.3,0.3-0.1,1-0.2,1.5
		c-0.8,6.2-1.5,12.3-2.3,18.5c-0.1,0.6-0.1,1.3-0.4,1.7c-0.5,0.5-1.3,1-2,1.1c-0.3,0-1-1.1-1-1.7c0.1-3.8,0.5-7.6,0.6-11.4
		c0.1-6.4,0.1-12.8,0-19.2c0-1.3,0.4-3-1.7-3.2c-2-0.2-3.5,0.4-4,2.3c-0.4,1.7-0.4,3.6-0.4,5.3c0.1,8.1,0.2,16.2,0.2,24.3
		c0,1.2-0.2,2.4-0.3,3.8c-1.1,0.1-2,0.1-3.2,0.2c0-3.1,0.1-6,0-8.9c-0.4-9.3-1-18.6-1.5-27.8c-0.1-1.4,0.1-3.2-2.3-3.1
		c-2.2,0.1-4.1,0.8-4.3,3.3c-0.2,2.9-0.1,5.8,0.1,8.7c0.5,8.5,1.1,17,1.6,25.5c0.1,2-0.4,3.4-3,2.6c-0.5-6.2-0.9-12.3-1.6-18.5
		c-0.5-4.5-1.3-8.9-2.2-13.3c-0.2-1-1.5-2.8-1.8-2.7c-1.7,0.6-3.5,1.3-4.6,2.6c-0.7,0.8-0.4,2.7-0.2,4c1.3,10.6,1.8,21.1,0.3,31.8
		c-0.7,4.7-2.9,8-6.9,10.2c-0.6,0.3-1.9,0.6-2.1,0.3c-2.9-4.3-6.9-0.9-10.9-2.1c2,5,4,9.1,7.7,12c2,1.6,4.1,3.3,6.1,4.9
		c2.7,2.1,4.4,4.7,4.2,8.2c-0.3,4.6-0.5,9.1-0.8,14.2c-2.2-0.5-4.1-1-6.3-1.5c0.7-3.3,1.2-6.3,1.9-9.3c0.9-3.6,0.3-6.4-3-8.6
		c-6.9-4.4-11.5-10.7-14.7-18.2c-0.3-0.7-1.6-1.6-2.4-1.6c-4.9,0-9.8,0.3-14.7,0.4c-3.1,0-6.2,0.1-9.3-0.4c-4.6-0.8-6.7-3.5-7.1-8.1
		c-1.9-21.9-3.7-43.7-5.5-65.6c-0.4-5.1-0.1-5.5,5.1-5.7c0.5,0,1-0.1,1.5-0.2c0.1-1,0.2-1.9,0.3-2.9c4,0,7.9,0,11.9,0
		c1.3,0,2.6,0,3.9,0.2c1.7,0.2,2.8-0.4,4-1.8c1.1-1.3,3.4-2.2,5.2-2.2c19.9,0,39.7,0.1,59.6,0.2c12.1,0.1,24.3,0.2,36.4,0.3
		c4.5,0,5.8,1.3,5.5,5.7c-1.4,22.9-2.7,45.8-4.1,68.7c-0.4,6.9-3.6,9.8-10.6,9.8c-4.2,0-8.4,0.1-12.6,0.3c-0.8,0-2.3,0.7-2.4,1.1
		c-0.6,6-5,9.6-8.9,13.1c-5.7,5.2-6.9,11.4-6.1,18.5c0.1,0.5,0.1,1,0.1,1.5C105.7,179.9,105.7,180,99.4,180.7z M31.2,136.2
		c-2.4-1.1-3-3.3-3.2-5.7c-0.3-3.3-0.5-6.6-0.7-9.9c-1.1-16.4-2.1-32.8-3.2-49.1c-0.1-1.1-0.5-2.2-0.7-3.3c-0.4,0-0.7,0.1-1.1,0.1
		c0,1.9-0.1,3.8,0,5.7c0.9,11,1.9,21.9,2.9,32.9c0.8,8.8,1.5,17.5,2.3,26.3C27.7,135.3,28.6,136.8,31.2,136.2
		c1.6,0.2,3.1,0.8,4.7,0.8c4.5-0.1,9-0.5,13.5-0.6c7.6-0.2,15.3-0.1,22.9-0.3c1.2,0,3.1-0.7,3.5-1.5c0.8-1.8,0.7-4,1.1-6.3
		c-4.4,0-8.3,0-12.2,0c-6.3,0.1-12.6,0.2-18.9,0.3c-0.7,0-1.4-0.7-2.1-1.1c0.6-0.3,1.2-1,1.8-1c9.3-0.4,18.6-0.9,27.9-1
		c2.9-0.1,4.2-0.8,4-3.9c-0.6-7-1-14-1.3-21c-0.3-6.5,1.1-8.1,7.3-9.6c2.5-0.6,4.9-1.2,6.9-3.5c3.6-4.2,10.5-2.9,12.5,2.1
		c0.6-0.1,1.3-0.3,2-0.4c6.3-1.3,8.5,0.4,8.6,6.6c0,0.2,0,0.4,0,0.6c-0.3,2.4,0.5,3.4,3.2,3.2c4.2-0.3,5.9,1.6,5.8,5.7
		c-0.1,4.6-0.3,9.2-0.4,13.8c0,1.4,0.2,2.9,0.3,4.1c5.2,0,10,0.1,14.8,0c4-0.1,4.6-0.9,4.8-4.8c0.4-9.1,0.9-18.2,1.4-27.3
		c0.5-8.3,1.1-16.6,1.6-24.9c0.3-4.4,0-4.8-4.1-4.8c-3.8,0-7.6-0.1-11.4-0.1c-8.1-0.1-16.2-0.3-24.4-0.4
		c-18.1-0.1-36.1-0.1-54.2-0.2c-2,0-3.1,0.6-3.3,2.8c-0.6,8-1.5,15.9-2.1,23.9c-1.1,13.8-2.2,27.5-3,41.3c-0.2,3.6-2,5.6-5,6.7
		C35.2,136,33.1,135.9,31.2,136.2z M38.1,96.8c-0.1,0-0.3-0.1-0.4-0.1c0-0.7-0.1-1.4-0.1-2.1c-0.3-8.9-0.5-17.8-0.9-26.7
		c-0.1-1.4,1-3.7-2-3.8c-3.1,0-1.9,2.2-1.9,3.7c-0.1,3.5,0,7,0.1,10.5c0,9.6,0,19.1,0,29.6c-0.4-4-0.7-7.1-1.1-10.2
		c-0.9-9.3-1.8-18.5-2.8-27.8c-0.1-1-0.7-1.9-1.1-2.8c-0.4,0.1-0.7,0.2-1.1,0.4c0,1-0.1,2,0,2.9c1.3,19.2,2.6,38.4,3.9,57.6
		c0.2,3.4,1.8,4.5,5.1,3.6c2.1-0.6,3.3-1.8,3.4-4.3c1.2-16.4,2.6-32.7,3.9-49.1c0.4-4.4,0.7-8.9,1-13.5c-1.4,0-2.3,0-3.4,0
		C39.9,75.5,39,86.1,38.1,96.8z M130,135.1c0,0,0-0.1,0-0.1c1.9,0,3.8,0,5.7,0c3.6-0.1,5.7-2.5,4.9-6c-0.1-0.6-1-1.4-1.5-1.4
		c-5.3-0.1-10.6-0.3-15.9,0.2c-3.2,0.3-2.1,3.3-2.3,5.3c-0.2,2.1,1.3,2.1,2.8,2.1C125.8,135.1,127.9,135.1,130,135.1z"/>
	<path d="M194.1,112.8c0-3.4,0.1-6.8,0-10.2c-0.1-2.7,1.3-4.1,3.7-4.7c2.2-0.5,4.5,1.2,5.2,3.6c0.3,1.2,0.6,2.4,0.6,3.5
		c0.1,8.3,6.5,11.7,13.3,12.3c2.8,0.3,5.8-0.1,8.6-0.7c6.7-1.3,10.4-7,8.7-13.6c-1-3.7-3.9-6.1-7.7-6.9c-3.4-0.7-7-0.8-10.4-1
		c-5.6-0.4-10.8-2-15.6-4.9c-11.6-6.9-8.5-23.9-0.2-29.1c1.5-1,3.1-1.9,4.6-2.8c7.4-4.5,14.3-1.7,21,1.8c2.5,1.3,4,1.8,5-1.6
		c0.5-1.8,2.1-3.7,4.3-2.8c1.4,0.6,3.3,2.3,3.4,3.6c0.4,6.6,0.5,13.2,0.2,19.8c0,1.1-2.1,2.8-3.4,2.9c-1.3,0.2-3.2-1-4-2.1
		c-1-1.6-1.1-3.8-1.7-5.7c-0.3-1.1-0.6-2.4-1.4-3.3c-4-5-15.6-6.6-21.2-3.1c-4.3,2.7-6,6.3-5,10.6c1,4.1,4.1,6.3,9.1,6.9
		c5.8,0.6,11.6,1.1,17.3,1.9c7.8,1.1,15.1,9.1,15.5,16.9c0.3,6.4-0.8,12.8-6,17c-4.2,3.5-9,6.4-15.1,6.1c-5.1-0.2-10.2,0.1-14.8-2.8
		c-2.4-1.5-4.5-1.3-6.3,1.6c-0.7,1.1-2.9,1.9-4.2,1.7c-1.9-0.3-3.7-1.7-3.7-4.1C194.1,120,194.1,116.4,194.1,112.8z"/>
	<path d="M260.3,74c8.9-7.2,10.2-7.1,20.9,1.3c1.1-1,2.3-2,3.4-3c3.3-3.1,7.2-4,11.4-2.7c3.9,1.3,7,6.1,7,10.2
		c-0.1,9.3-0.1,18.6-0.3,27.9c0,2.1,0.5,3.7,2.2,4.9c1.7,1.1,2.5,2.6,1.5,4.6c-1,2-2.2,4-4.9,3.6c-4.2-0.7-8.4-1.7-12.7-2.4
		c-1.3-0.2-2.9-0.3-3.9,0.4c-4.1,2.8-8.3,2-12.5,0.6c-1.1-0.4-2.2-1.2-3.3-1.4c-1.3-0.2-3-0.3-4,0.4c-5.6,3.5-11.3,2.7-17,0.8
		c-1.5-0.5-3.1-2.9-3.2-4.4c0-1.2,2.2-2.9,3.7-3.5c2-0.7,3.3-1.5,3.4-3.8c0.2-9,0.3-18,0.4-27c0-0.7-1.3-1.7-2.1-1.9
		c-2.4-0.8-4.2-1.9-3.9-4.8c0.2-2.9,2.3-3.4,4.6-3.9C254.8,69.1,258.1,70,260.3,74z M266.7,114.1c0.9-0.6,1.9-1.4,2.9-2
		c2.8-1.5,3.7-3.6,3.6-6.8c-0.2-8.1,0-16.2-0.1-24.3c0-1-0.5-2.6-1-2.7c-1.1-0.3-2.9-0.2-3.5,0.5c-2.5,2.6-5.4,5.3-6.8,8.5
		c-3.1,7.2-1.1,15-1.4,22.6c0,0.5,0.9,1.2,1.5,1.6C263.4,112.4,264.9,113.1,266.7,114.1z M293.8,94.8
		C293.8,94.8,293.8,94.8,293.8,94.8c0-4.7,0.1-9.4,0-14.1c0-2.7-1.8-3.7-4.1-2.3c-0.8,0.5-1.5,1-2.1,1.7c-6.3,8.5-7.3,18.1-6.2,28.2
		c0.4,3.5,3.6,5,7,4.1c0.9-0.2,1.7-0.5,2.6-0.7c2-0.3,2.9-1.3,2.8-3.5C293.7,103.8,293.8,99.3,293.8,94.8z"/>
	<path d="M455,113.6c0.2-3.2,0.4-6.3,0.4-9.4c0.2-5.4,0.3-10.8,0.3-16.2c0-4.5-1.9-6.1-6.4-5.9c-5,0.3-8.3,3.3-11.2,6.8
		c-3.8,4.6-5.6,10.1-5.8,16.1c0,0.9,0,1.8,0,2.7c0,5.3,0,5.3,5,6.7c3.2,0.9,4.4,2.6,4.1,5.7c-0.3,2.9-2.7,3.2-4.8,3.6
		c-1.9,0.3-3.8,0.1-5.7,0.1c-3.1,0.1-6.2,0.1-9.2,0.5c-2.9,0.3-5.6,0.5-7.9-1.7c-2.1-2-2.3-4.2-1-6.5c1.2-2.2,3.2-1.5,5-0.9
		c3.4,1.1,4.8-0.1,5-3.6c0.4-9.6,1-19.2,1.2-28.9c0.1-4.9-0.4-9.8-0.9-14.6c-0.1-0.9-1.4-1.9-2.4-2.3c-0.9-0.4-2.2-0.1-3.3-0.1
		c-3.2-0.1-5.3-2.1-5.4-5.4c0-2.3,1.8-3.8,5-4.1c2.6-0.2,5.2-0.4,7.8-0.4c5.1,0,7.1,2.1,7.2,7.2c0,6.3,0,12.6,0,18.9
		c0.2,0.2,0.5,0.4,0.7,0.6c0.8-0.6,1.7-1.2,2.3-1.9c5.1-6.8,14.4-9.4,22-6c5.7,2.5,7.6,7.4,7.7,13.2c0.1,7.6,0.1,15.2,0,22.8
		c0,2.3,0.5,3.6,3.1,3.6c1.2,0,2.6,0.5,3.7,1.1c2.8,1.6,3,5.4,0.3,7.2c-1,0.6-2.2,1.2-3.3,1.2c-5.9,0.1-11.8,0.2-17.7-0.1
		c-4.2-0.3-6.1-3-4.4-5.9c0.9-1.5,2.9-2.5,4.6-3.4C452.3,113.8,453.6,113.8,455,113.6z"/>
	<path d="M512,102.3c1.4-4.9,2.7-9.1,3.8-13.5c0.7-2.9,1.1-5.9,1.6-8.8c0.3-1.9-0.4-3.1-2.3-3.9c-2.9-1.2-3.1-3.3-0.7-5.5
		c3-2.6,12.5-2.4,15.3,0.3c1.6,1.6,1.8,3.2,0.2,5.2c-1.7,2-3.3,4.4-4,6.9c-2.6,8.9-4.7,18-7.1,27c-0.6,2.1-1.3,4.2-2,6.3
		c-0.9,2.5-2.6,3.9-5.4,3.9c-3.2,0-4.6-1.9-5.2-4.5c-1.2-5.8-2.1-11.6-3.2-17.4c-0.6-3.4-1.3-6.7-1.9-10.1c-0.4,0-0.8,0-1.3,0
		c-0.4,1.2-0.9,2.5-1.1,3.7c-1.6,8-3.1,16.1-4.6,24.1c-0.5,2.8-2.2,4.5-5.1,4.5c-2.9,0-4.7-1.4-5.5-4.2c-2.6-9.7-5.1-19.3-7.8-29
		c-1.1-4-1.8-8.1-5.5-11c-2.4-1.8-1.2-5.8,2-6.7c4.2-1.1,8.6-1.3,12.6,0.7c1.1,0.5,2.2,2.3,2.2,3.4c0,1.2-1.2,2.9-2.3,3.3
		c-2.6,1-2.6,2.4-2,4.7c1.3,4.3,2.3,8.7,3.4,13.1c0.5,1.8,1.1,3.6,1.7,5.9c0.7-0.7,1.2-1.1,1.3-1.5c1.4-6.3,2.9-12.7,4.2-19
		c0.4-1.7-0.2-3.1-1.9-4.2c-0.9-0.6-1.6-2.4-1.5-3.5c0.1-0.9,1.5-2,2.5-2.4c4.9-1.8,9.9-1.5,14.8,0c1.5,0.5,3.1,2,3.7,3.4
		c0.3,0.8-1.3,2.7-2.5,3.5c-1.9,1.2-1.7,2.9-1.5,4.5c1.2,6.5,2.5,12.9,3.8,19.4C511,101.1,511.4,101.4,512,102.3z"/>
	<path d="M673,73.9c0.3,12.4,0.7,24.8,0.9,37.1c0,1.8,0.7,2.4,2.5,2.5c2.7,0.1,5.5,0.1,7.9,0.8c2.9,0.9,3,4.6,0.5,6.4
		c-4,2.8-14.6,2.8-18.4-0.4c-1.8-1.5-2.7-1.3-4.6-0.1c-7.1,4.8-16,4-23.1-1.8c-6.1-4.9-9.4-10.9-9.5-19.1c-0.1-6.2,0.9-12.2,4-16.9
		c3.5-5.2,7.8-11,15.8-10.6c4.3,0.2,8.6,0.1,12.3,3c1.7,1.3,3.2,0.8,3.5-1.3c0.3-3,0.3-6,0.1-9c0-0.6-1.4-1.3-2.2-1.5
		c-1.7-0.4-3.6-0.3-5.4-0.7c-1.4-0.3-3.1-0.7-4.1-1.6c-0.9-0.9-1.5-2.6-1.3-3.9c0.1-0.9,1.7-2.1,2.8-2.1c4.5-0.2,9-0.3,13.5-0.1
		c2.6,0.1,4.5,2.4,4.5,5.4C673.1,64.7,673,69.3,673,73.9z M665.9,97.7c-0.6-4.4-2.6-10.1-5.1-13.1c-5.3-6.3-13.5-6.3-18.6,0.1
		c-5.1,6.3-4.3,20,1.4,25.8c6.1,6.1,14.6,5.1,18.6-2.5C663.8,104.7,664.6,101.1,665.9,97.7z"/>
	<path d="M333.2,72.7c1.4,0,2.8,0.2,4.2,0c8.6-1.5,16.2,8.3,15.9,15.8c-0.3,7.5-0.3,15-0.2,22.5c0,1.2,1.2,2.3,1.9,3.5
		c1-0.9,2-1.8,2.8-2.9c0.4-0.5,0.5-1.3,0.6-2c0.4-2.2,1.2-3.9,3.8-3.8c2.5,0.1,3.7,2,4.1,4.1c1.1,4.8-1.9,10.6-6.4,12.8
		c-4.1,2-9.6,0.7-13-3.3c-1.3-1.5-2.5-1.9-4.2-0.9c-1.4,0.8-2.8,1.6-4.1,2.5c-5.6,3.8-12,2.9-18.1,2.3c-5.6-0.5-10.6-7.5-11-13.6
		c-0.5-7.8,2.6-13.5,9.3-15.4c5.4-1.5,11.2-1.7,16.9-2.5c2.1-0.3,4.3-0.4,6.1-1.3c1.2-0.5,2.8-2.2,2.7-3.3c0-1.5-1-3.7-2.2-4.5
		c-4.2-2.7-9.1-1.7-13.7-1.5c-0.5,0-1.1,1-1.3,1.7c-0.4,1-0.4,2.2-0.8,3.2c-0.8,2.7-1.8,5.2-5.2,5.5c-3.4,0.3-6.4-0.4-8.3-3.6
		c-1.5-2.5-1.1-5.8,1.1-8.3C319.2,74.2,325.4,71.3,333.2,72.7z M343.9,98.9c-7.1,0.9-14,1.7-20.9,2.7c-2.3,0.3-4.3,3.9-4.1,6.6
		c0.3,3.2,2.2,5.4,5.2,5.4c2.9,0.1,5.8,0.4,8.7-0.1C339,112.8,345.9,107.6,343.9,98.9z"/>
	<path d="M377,113.4c-0.6,1.3-0.9,2.3-1.3,3.1c-0.9,1.9-2.5,3-4.4,2.3c-1.4-0.5-2.6-1.9-3.4-3.1c-0.5-0.8-0.3-2.1-0.3-3.2
		c0.2-4.1,0.6-8.2,0.6-12.2c0-2.3,0.6-3.9,3.1-4.4c2.4-0.4,3.5,0.8,4.5,2.9c4.9,10.2,14.5,13.1,24,7.6c2.6-1.5,3.1-4,2.8-6.8
		c-0.3-2.5-2.4-2.9-4.2-3.2c-6.5-1.1-13.1-1.8-19.6-3c-9.7-1.8-14.4-12.7-8.5-20.6c4-5.4,10.1-7.4,16.9-6.2c3.6,0.7,7.1,2.1,10.6,3
		c0.9,0.2,2.4-0.1,2.9-0.7c1.4-1.7,2.9-2.4,5-1.7c2,0.8,2.4,2.4,2.4,4.4c0,3.3,0.2,6.6,0.2,9.9c0,2.5-0.7,4.9-3.5,5.6
		c-2.7,0.7-4.1-1.3-5-3.4c-4.3-9.9-8.7-8.6-18.3-8.4c-2.9,0.1-5.6,3.7-5.4,6.3c0.3,2.7,2.7,4.1,6.2,4.5c5.9,0.5,11.8,0.9,17.5,2.3
		c11.5,3,14.6,15.3,6.6,24.1c-6.8,7.5-20.6,8.1-26.9,2.4C379,114.6,378.1,114.2,377,113.4z"/>
	<path d="M696.5,113.4c-0.6,1.4-0.9,2.2-1.3,3c-0.9,2.1-2.7,2.5-4.8,2.3c-2.1-0.2-3-1.7-3-3.5c0.1-5.7,0.2-11.4,0.7-17
		c0.1-1,2-2.5,3.1-2.5c1.3,0,2.8,1.2,3.7,2.2c2.3,2.6,4,6,6.7,8.2c5.4,4.5,11.5,3.5,17.2,0.3c1.6-0.9,2.8-3.3,3.4-5.2
		c0.7-2.3-0.6-4.2-3-4.7c-4-0.7-8.1-1.2-12.2-1.8c-3.6-0.6-7.1-1.1-10.6-2c-4.7-1.2-7.7-4.2-8.4-9.1c-0.7-5.2-0.4-10.1,4.5-13.7
		c8.1-5.9,16.1-3.9,24.2-0.4c1.7,0.7,2.7,0.9,3.7-0.7c1.1-1.6,2.6-2.6,4.6-1.8c2.1,0.8,2.7,2.4,2.6,4.5c-0.1,3.3,0.1,6.6,0.1,9.9
		c0,2.5-0.7,5-3.5,5.7c-2.8,0.7-4.3-1.4-5.2-3.6c-4-9.4-8.4-8.6-18.1-8.3c-3,0.1-5.6,3.6-5.4,6.2c0.2,2.9,2.2,4.1,6,4.5
		c5.9,0.6,11.7,1.2,17.5,2.2c8.5,1.5,15.2,12.9,8.1,22.5c-6.2,8.5-19.9,10.6-28.2,4.2C698.5,114.6,697.6,114.1,696.5,113.4z"/>
	<path d="M552.8,71.3c11.6,0.1,18.2,6.2,22.5,16c2.2,5,2.8,9.8,1.2,15.1c-1.8,6.1-3.3,12.3-8.4,16.5c-4.1,3.4-8.4,7.5-14,6.3
		c-6.7-1.3-14.1-2-19-7.7c-5.4-6.4-7.6-14-6.5-22.4c1-7.4,3.1-14.2,9.5-19.1C542.6,72.5,547.7,71.4,552.8,71.3z M552.4,114.8
		c0.1-0.3,0.1-0.6,0.2-0.9c4.1,0.6,7.8-0.2,10.7-3.5c4.3-4.9,4.8-10.6,4.1-16.6c-0.7-7-4.2-11.6-11.3-12.8c-2.8-0.5-6.3-0.8-8.7,0.4
		c-11.8,5.6-13.8,22.1-3.7,30.4C545.9,113.5,549.4,113.8,552.4,114.8z"/>
	<path d="M613.8,74.2c-1.3,0.2-2.5,0.1-3.1,0.6c-3.3,3-6.8,6-9.5,9.5c-3.2,4.1-1.4,9.3-1.5,14c-0.1,2.1,0.5,4.2,0.5,6.3
		c0,2.4,1.2,3.2,3.4,3.2c2.1-0.1,4.2-0.5,6.3-0.2c2.4,0.3,5,1.1,5,4.2c0.1,3-2,4.4-4.7,5c-1.5,0.3-3,0.5-4.5,0.5
		c-7.3,0-14.6,0-21.9,0c-0.8,0-1.6-0.1-2.4-0.2c-2.9-0.5-5-2.8-4.8-5.3c0.1-2.6,2.2-4.2,5.5-4.3c1.8,0,3.6,0.1,5.4,0.3
		c2.7,0.4,3.6-0.9,3.5-3.4c-0.3-7.1-0.5-14.2-0.8-21.2c0-0.7-0.2-1.4-0.2-2.1c-0.2-6.3-0.2-5-5.9-5.5c-1.5-0.1-3,0-4.5-0.1
		c-3-0.4-4.9-2.6-4.6-5.3c0.3-2.9,2.3-4.3,5.5-4.2c4.3,0.2,8.6,0.4,12.9,0.6c2.5,0.1,4.4,1.3,5.2,3.8c0.7,2,1.7,1.9,3.4,1
		c3.1-1.8,6.2-3.7,9.6-4.8c6.2-2.1,12.8,0.5,16.1,5.8c1.9,3.1,1.8,6.4,0.3,9.5c-1.4,2.8-4,4-7.3,3.9c-3.1-0.1-5.2-2.3-6.1-6.4
		C614.3,77.7,614.1,76.2,613.8,74.2z"/>
	<path d="M0,34.6c1.7-2.1,2.7-4,4.2-5.2C6,28,7.9,29,9.3,30.4c2,1.8,3.8,3.9,5.7,5.7c1.8,1.7,3.8,3.2,5.5,5c0.7,0.8,0.8,2.2,1.2,3.3
		c-1.1,0.3-2.4,1.2-3.3,0.9c-4.6-1.7-9.1-3.4-13.5-5.6C3.1,38.7,1.9,36.6,0,34.6z"/>
	<path d="M113.7,3.5c-0.6,1.4-1.5,3.3-2,5.3c-1,3.6-1.7,7.2-2.5,10.8c-0.4,1.7-0.8,3.6-3.1,3.1c-2.3-0.4-1.9-2.2-1.7-4
		c0.5-4.2,0.6-8.3,1-12.5c0.3-3.5,2.1-5.6,5.1-6.1C112.6-0.3,113.6,0.7,113.7,3.5z"/>
	<path d="M56.8,19.7c-0.9,1.2-1.7,3.1-2.9,3.5c-0.8,0.3-2.8-1.1-3.5-2.3c-2.3-4-4.4-8.1-6.4-12.2c-0.8-1.7-1.5-3.6,0.5-4.9
		c2.1-1.4,4.3-0.4,5.3,1.3c2.4,4.1,4.3,8.6,6.4,13c0.2,0.3,0.1,0.8,0.1,1.2C56.5,19.4,56.7,19.5,56.8,19.7z"/>
	<path d="M139.8,43.9c5.2-6.2,10.3-11.1,16.6-14.7c1-0.6,3.2-0.4,3.9,0.3c1.4,1.4,0.8,3.2-0.8,4.4c-5.4,3.8-10.4,8.4-17.1,10.1
		C141.9,44,141.3,43.9,139.8,43.9z"/>
	<path d="M743.7,54.8c5.2-1.5,3.7,3.3,5.4,5.3c0.3-0.7,0.6-1.3,0.9-2c0.3-0.7,0.3-1.5,0.7-1.9c0.7-0.7,1.7-1.4,2.6-1.6
		c0.3-0.1,1.3,1.2,1.4,2c0.3,2,0.5,4,0.5,6c0,0.6-0.8,1.3-1.2,1.9c-0.5-0.6-1.3-1.1-1.4-1.7c-0.2-1.5-0.1-3-0.6-4.6
		c-0.6,1.6-1.2,3.1-1.9,4.6c-0.2,0.5-0.9,1.3-1.3,1.2c-0.5,0-1.1-0.7-1.4-1.2c-0.5-1.2-0.9-2.4-1.8-3.6c-0.1,1.2-0.2,2.4-0.4,3.6
		c-0.1,0.6-0.8,1.1-1.2,1.6c-0.3-0.5-0.8-1.1-0.8-1.6C743.3,60.1,743.5,57.5,743.7,54.8z"/>
	<path d="M737.1,56.6c-1.2-0.3-2-0.5-2.7-0.6c0-0.3-0.1-0.7-0.1-1c2.6-1,5.4-0.2,8-0.4c0.1,0.3,0.2,0.5,0.3,0.8
		c-0.9,0.5-1.7,1-2.9,1.6c0,1.8,0.1,3.9-0.1,6c0,0.6-0.8,1.1-1.2,1.6c-0.5-0.5-1.3-1-1.4-1.5C737.1,60.9,737.1,58.8,737.1,56.6z"/>
	<path class="st9" d="M31.2,136.2c2-0.2,4-0.2,5.9-0.8c3-1,4.8-3.1,5-6.7c0.9-13.8,2-27.6,3-41.3c0.6-8,1.5-15.9,2.1-23.9
		c0.2-2.2,1.3-2.8,3.3-2.8c18.1,0.1,36.1,0.1,54.2,0.2c8.1,0,16.2,0.2,24.4,0.4c3.8,0.1,7.6,0.1,11.4,0.1c4.1,0,4.4,0.4,4.1,4.8
		c-0.6,8.3-1.2,16.6-1.6,24.9c-0.5,9.1-0.9,18.2-1.4,27.3c-0.2,3.9-0.8,4.7-4.8,4.8c-4.8,0.1-9.6,0-14.8,0c-0.1-1.2-0.3-2.6-0.3-4.1
		c0.1-4.6,0.3-9.2,0.4-13.8c0.1-4.2-1.6-6-5.8-5.7c-2.7,0.2-3.4-0.8-3.2-3.2c0-0.2,0-0.4,0-0.6c-0.1-6.2-2.3-7.9-8.6-6.6
		c-0.7,0.1-1.3,0.3-2,0.4c-2-4.9-8.8-6.3-12.5-2.1c-2,2.3-4.3,2.9-6.9,3.5c-6.2,1.5-7.6,3.1-7.3,9.6c0.3,7,0.7,14,1.3,21
		c0.2,3.1-1,3.9-4,3.9c-9.3,0.2-18.6,0.6-27.9,1c-0.6,0-1.2,0.7-1.8,1c0.7,0.4,1.4,1.1,2.1,1.1c6.3,0,12.6-0.2,18.9-0.3
		c3.9,0,7.8,0,12.2,0c-0.3,2.3-0.3,4.5-1.1,6.3c-0.4,0.9-2.3,1.5-3.5,1.5c-7.6,0.2-15.2,0.2-22.9,0.3c-4.5,0.1-9,0.5-13.5,0.6
		C34.3,137,32.8,136.4,31.2,136.2L31.2,136.2z"/>
	<path class="st10" d="M38.1,96.8c0.9-10.7,1.8-21.3,2.7-32.2c1,0,2,0,3.4,0c-0.4,4.6-0.7,9-1,13.5c-1.3,16.4-2.7,32.7-3.9,49.1
		c-0.2,2.4-1.3,3.7-3.4,4.3c-3.3,0.9-4.9-0.2-5.1-3.6c-1.3-19.2-2.6-38.4-3.9-57.6c-0.1-1,0-2,0-2.9c0.4-0.1,0.7-0.2,1.1-0.4
		c0.4,0.9,1,1.8,1.1,2.8c1,9.3,1.9,18.5,2.8,27.8c0.3,3.1,0.7,6.3,1.1,10.2c0-10.4,0-20,0-29.6c0-3.5-0.1-7-0.1-10.5
		c0-1.4-1.2-3.7,1.9-3.7c3,0,1.9,2.4,2,3.8c0.4,8.9,0.6,17.8,0.9,26.7c0,0.7,0.1,1.4,0.1,2.1C37.8,96.7,38,96.8,38.1,96.8z"/>
	<path class="st9" d="M130,135.1c-2.1,0-4.2,0-6.3,0c-1.5,0-3,0-2.8-2.1c0.2-2-0.9-5.1,2.3-5.3c5.3-0.4,10.6-0.2,15.9-0.2
		c0.5,0,1.3,0.8,1.5,1.4c0.8,3.5-1.2,6-4.9,6c-1.9,0-3.8,0-5.7,0C130,135,130,135,130,135.1z"/>
	<path class="st9" d="M31.2,136.1c-2.6,0.7-3.5-0.8-3.7-3c-0.8-8.8-1.5-17.5-2.3-26.3c-1-11-2-21.9-2.9-32.9c-0.2-1.9,0-3.8,0-5.7
		c0.4,0,0.7-0.1,1.1-0.1c0.2,1.1,0.6,2.2,0.7,3.3c1.1,16.4,2.1,32.8,3.2,49.1c0.2,3.3,0.4,6.6,0.7,9.9
		C28.1,132.9,28.7,135,31.2,136.1C31.2,136.2,31.2,136.1,31.2,136.1z"/>
	<g>
		<path class="st9" d="M407.6,160.3v-9.7l-8.5-13.4h5.5l5.4,9.2l5.3-9.2h5.4l-8.5,13.4v9.7H407.6z"/>
		<path class="st9" d="M419.7,151.7c0-1.5,0.4-2.9,1.1-4.3c0.7-1.4,1.8-2.4,3.1-3.2c1.3-0.7,2.8-1.1,4.5-1.1c2.5,0,4.6,0.8,6.2,2.5
			c1.6,1.6,2.4,3.7,2.4,6.2c0,2.5-0.8,4.6-2.5,6.3c-1.6,1.7-3.7,2.5-6.2,2.5c-1.5,0-3-0.3-4.4-1c-1.4-0.7-2.5-1.7-3.2-3.1
			C420,155.3,419.7,153.7,419.7,151.7z M424.2,152c0,1.7,0.4,2.9,1.2,3.8s1.8,1.3,2.9,1.3c1.2,0,2.1-0.4,2.9-1.3
			c0.8-0.9,1.2-2.2,1.2-3.9c0-1.6-0.4-2.9-1.2-3.8c-0.8-0.9-1.8-1.3-2.9-1.3c-1.2,0-2.1,0.4-2.9,1.3S424.2,150.3,424.2,152z"/>
		<path class="st9" d="M451.5,160.3v-2.5c-0.6,0.9-1.4,1.6-2.4,2.1c-1,0.5-2,0.8-3.2,0.8c-1.1,0-2.1-0.2-3-0.7
			c-0.9-0.5-1.5-1.2-1.9-2.1c-0.4-0.9-0.6-2.1-0.6-3.7v-10.6h4.4v7.7c0,2.4,0.1,3.8,0.2,4.3c0.2,0.5,0.5,1,0.9,1.3
			c0.4,0.3,1,0.5,1.6,0.5c0.8,0,1.4-0.2,2-0.6c0.6-0.4,1-0.9,1.2-1.5c0.2-0.6,0.3-2.1,0.3-4.5v-7.1h4.4v16.8H451.5z"/>
		<path class="st9" d="M464.4,160.3H460v-16.8h4.1v2.4c0.7-1.1,1.3-1.9,1.9-2.2c0.6-0.4,1.2-0.5,1.9-0.5c1,0,2,0.3,2.9,0.8l-1.4,3.9
			c-0.7-0.5-1.4-0.7-2.1-0.7c-0.6,0-1.1,0.2-1.6,0.5c-0.4,0.3-0.8,1-1,1.9c-0.2,0.9-0.4,2.8-0.4,5.6V160.3z"/>
		<path class="st9" d="M491.5,155l4.4,0.7c-0.6,1.6-1.5,2.9-2.7,3.7c-1.2,0.8-2.8,1.3-4.6,1.3c-2.9,0-5.1-1-6.5-2.9
			c-1.1-1.5-1.7-3.5-1.7-5.8c0-2.8,0.7-5,2.2-6.5c1.5-1.6,3.3-2.4,5.5-2.4c2.5,0,4.5,0.8,5.9,2.5c1.4,1.6,2.1,4.2,2.1,7.6H485
			c0,1.3,0.4,2.3,1.1,3.1c0.7,0.7,1.5,1.1,2.6,1.1c0.7,0,1.3-0.2,1.8-0.6C490.9,156.5,491.2,155.9,491.5,155z M491.7,150.5
			c0-1.3-0.4-2.3-1-2.9c-0.6-0.7-1.4-1-2.3-1c-1,0-1.8,0.4-2.4,1.1c-0.6,0.7-0.9,1.7-0.9,2.9H491.7z"/>
		<path class="st9" d="M499.6,160.3v-23.1h4.4v8.3c1.4-1.6,3-2.3,4.9-2.3c2,0,3.7,0.7,5.1,2.2c1.3,1.5,2,3.6,2,6.4
			c0,2.9-0.7,5.1-2,6.6c-1.4,1.5-3,2.3-5,2.3c-1,0-1.9-0.2-2.8-0.7c-0.9-0.5-1.7-1.2-2.4-2.1v2.5H499.6z M504,151.6
			c0,1.7,0.3,3,0.8,3.9c0.8,1.2,1.8,1.8,3.1,1.8c1,0,1.8-0.4,2.5-1.3c0.7-0.8,1-2.2,1-4c0-1.9-0.3-3.3-1-4.1
			c-0.7-0.8-1.6-1.3-2.7-1.3c-1.1,0-1.9,0.4-2.7,1.2C504.3,148.7,504,149.9,504,151.6z"/>
		<path class="st9" d="M518.5,151.7c0-1.5,0.4-2.9,1.1-4.3c0.7-1.4,1.8-2.4,3.1-3.2c1.3-0.7,2.8-1.1,4.5-1.1c2.5,0,4.6,0.8,6.2,2.5
			c1.6,1.6,2.4,3.7,2.4,6.2c0,2.5-0.8,4.6-2.5,6.3c-1.6,1.7-3.7,2.5-6.2,2.5c-1.5,0-3-0.3-4.4-1s-2.5-1.7-3.2-3.1
			C518.8,155.3,518.5,153.7,518.5,151.7z M523,152c0,1.7,0.4,2.9,1.2,3.8s1.8,1.3,2.9,1.3c1.2,0,2.1-0.4,2.9-1.3s1.2-2.2,1.2-3.9
			c0-1.6-0.4-2.9-1.2-3.8s-1.8-1.3-2.9-1.3c-1.2,0-2.1,0.4-2.9,1.3S523,150.3,523,152z"/>
		<path class="st9" d="M538.2,151.7c0-1.5,0.4-2.9,1.1-4.3c0.7-1.4,1.8-2.4,3.1-3.2c1.3-0.7,2.8-1.1,4.5-1.1c2.5,0,4.6,0.8,6.2,2.5
			s2.4,3.7,2.4,6.2c0,2.5-0.8,4.6-2.5,6.3c-1.6,1.7-3.7,2.5-6.2,2.5c-1.5,0-3-0.3-4.4-1s-2.5-1.7-3.2-3.1
			C538.6,155.3,538.2,153.7,538.2,151.7z M542.8,152c0,1.7,0.4,2.9,1.2,3.8s1.8,1.3,2.9,1.3c1.2,0,2.1-0.4,2.9-1.3
			c0.8-0.9,1.2-2.2,1.2-3.9c0-1.6-0.4-2.9-1.2-3.8c-0.8-0.9-1.8-1.3-2.9-1.3c-1.2,0-2.1,0.4-2.9,1.3S542.8,150.3,542.8,152z"/>
		<path class="st9" d="M558.8,160.3v-23.1h4.4v12.3l5.2-5.9h5.5l-5.7,6.1l6.1,10.6h-4.8l-4.2-7.5l-2.1,2.2v5.4H558.8z"/>
		<path class="st9" d="M577,160.3v-4.4h4.4v4.4H577z"/>
		<path class="st9" d="M583.9,143.6h4.7l4,11.9l3.9-11.9h4.6l-5.9,16.1l-1.1,2.9c-0.4,1-0.8,1.7-1.1,2.2c-0.4,0.5-0.8,0.9-1.2,1.3
			c-0.5,0.3-1,0.6-1.7,0.7c-0.7,0.2-1.4,0.3-2.3,0.3c-0.9,0-1.7-0.1-2.5-0.3l-0.4-3.5c0.7,0.1,1.3,0.2,1.9,0.2c1,0,1.8-0.3,2.3-0.9
			c0.5-0.6,0.9-1.4,1.1-2.3L583.9,143.6z"/>
		<path class="st9" d="M602.9,151.7c0-1.5,0.4-2.9,1.1-4.3c0.7-1.4,1.8-2.4,3.1-3.2c1.3-0.7,2.8-1.1,4.5-1.1c2.5,0,4.6,0.8,6.2,2.5
			c1.6,1.6,2.4,3.7,2.4,6.2c0,2.5-0.8,4.6-2.5,6.3c-1.6,1.7-3.7,2.5-6.2,2.5c-1.5,0-3-0.3-4.4-1s-2.5-1.7-3.2-3.1
			C603.3,155.3,602.9,153.7,602.9,151.7z M607.5,152c0,1.7,0.4,2.9,1.2,3.8s1.8,1.3,2.9,1.3c1.2,0,2.1-0.4,2.9-1.3
			c0.8-0.9,1.2-2.2,1.2-3.9c0-1.6-0.4-2.9-1.2-3.8c-0.8-0.9-1.8-1.3-2.9-1.3c-1.2,0-2.1,0.4-2.9,1.3S607.5,150.3,607.5,152z"/>
		<path class="st9" d="M634.7,160.3v-2.5c-0.6,0.9-1.4,1.6-2.4,2.1c-1,0.5-2,0.8-3.2,0.8c-1.1,0-2.1-0.2-3-0.7
			c-0.9-0.5-1.5-1.2-1.9-2.1c-0.4-0.9-0.6-2.1-0.6-3.7v-10.6h4.4v7.7c0,2.4,0.1,3.8,0.2,4.3c0.2,0.5,0.5,1,0.9,1.3
			c0.4,0.3,1,0.5,1.6,0.5c0.8,0,1.4-0.2,2-0.6c0.6-0.4,1-0.9,1.2-1.5c0.2-0.6,0.3-2.1,0.3-4.5v-7.1h4.4v16.8H634.7z"/>
		<path class="st9" d="M647.7,160.3h-4.4v-16.8h4.1v2.4c0.7-1.1,1.3-1.9,1.9-2.2c0.6-0.4,1.2-0.5,1.9-0.5c1,0,2,0.3,2.9,0.8
			l-1.4,3.9c-0.7-0.5-1.4-0.7-2.1-0.7c-0.6,0-1.1,0.2-1.6,0.5c-0.4,0.3-0.8,1-1,1.9c-0.2,0.9-0.4,2.8-0.4,5.6V160.3z"/>
		<path class="st9" d="M668.1,160.3l-5.3-16.8h4.3l3.1,11l2.9-11h4.3l2.8,11l3.2-11h4.4l-5.4,16.8h-4.3l-2.9-10.8l-2.8,10.8H668.1z"
			/>
		<path class="st9" d="M693.5,148.7l-4-0.7c0.5-1.6,1.2-2.8,2.3-3.6c1.1-0.8,2.7-1.2,4.9-1.2c2,0,3.5,0.2,4.4,0.7
			c1,0.5,1.7,1.1,2,1.8c0.4,0.7,0.6,2,0.6,4l0,5.2c0,1.5,0.1,2.6,0.2,3.3c0.1,0.7,0.4,1.5,0.8,2.2h-4.4c-0.1-0.3-0.3-0.7-0.4-1.3
			c-0.1-0.3-0.1-0.4-0.2-0.5c-0.8,0.7-1.6,1.3-2.4,1.7c-0.9,0.4-1.8,0.6-2.8,0.6c-1.7,0-3.1-0.5-4.1-1.4c-1-0.9-1.5-2.1-1.5-3.6
			c0-0.9,0.2-1.8,0.7-2.5c0.5-0.7,1.1-1.3,1.9-1.7c0.8-0.4,2-0.7,3.5-1c2.1-0.4,3.5-0.8,4.3-1.1V149c0-0.9-0.2-1.5-0.6-1.8
			c-0.4-0.4-1.2-0.5-2.4-0.5c-0.8,0-1.4,0.2-1.8,0.5C694.1,147.4,693.8,147.9,693.5,148.7z M699.4,152.3c-0.6,0.2-1.5,0.4-2.7,0.7
			c-1.2,0.3-2,0.5-2.4,0.8c-0.6,0.4-0.9,0.9-0.9,1.6c0,0.6,0.2,1.2,0.7,1.6c0.5,0.5,1.1,0.7,1.8,0.7c0.8,0,1.6-0.3,2.3-0.8
			c0.5-0.4,0.9-0.9,1.1-1.5c0.1-0.4,0.2-1.1,0.2-2.2V152.3z"/>
		<path class="st9" d="M706.1,143.6h4.7l4,11.9l3.9-11.9h4.6l-5.9,16.1l-1.1,2.9c-0.4,1-0.8,1.7-1.1,2.2c-0.4,0.5-0.8,0.9-1.2,1.3
			c-0.5,0.3-1,0.6-1.7,0.7c-0.7,0.2-1.4,0.3-2.3,0.3c-0.9,0-1.7-0.1-2.5-0.3l-0.4-3.5c0.7,0.1,1.3,0.2,1.9,0.2c1,0,1.8-0.3,2.3-0.9
			c0.5-0.6,0.9-1.4,1.1-2.3L706.1,143.6z"/>
		<path class="st9" d="M723.7,160.3v-4.4h4.4v4.4H723.7z"/>
	</g>
</g>
</svg>
